NotoSansSogdian-Regular.ufo
<glyph name="tatweel" format="2">
  <advance width="436"/>
  <unicode hex="0640"/>
  <outline>
    <contour>
      <point x="436" y="0" type="line"/>
      <point x="436" y="76" type="line"/>
      <point x="0" y="76" type="line" smooth="yes"/>
      <point x="-34" y="76"/>
      <point x="-43" y="57"/>
      <point x="-43" y="38" type="curve" smooth="yes"/>
      <point x="-43" y="19"/>
      <point x="-34" y="0"/>
      <point x="0" y="0" type="curve" smooth="yes"/>
    </contour>
  </outline>
</glyph>
<glyph name="BethSep" format="2">
  <advance width="734"/>
  <unicode hex="10F31"/>
  <outline>
    <contour>
      <point x="440" y="222" type="curve" smooth="yes"/>
      <point x="497" y="222"/>
      <point x="543" y="235"/>
      <point x="571" y="268" type="curve"/>
      <point x="575" y="248"/>
      <point x="579" y="201"/>
      <point x="579" y="186" type="curve" smooth="yes"/>
      <point x="579" y="113"/>
      <point x="568" y="76"/>
      <point x="486" y="76" type="curve" smooth="yes"/>
      <point x="50" y="76" type="line"/>
      <point x="50" y="0" type="line"/>
      <point x="483" y="0" type="line" smooth="yes"/>
      <point x="610" y="0"/>
      <point x="658" y="59"/>
      <point x="658" y="168" type="curve" smooth="yes"/>
      <point x="658" y="225"/>
      <point x="644" y="308"/>
      <point x="627" y="382" type="curve"/>
      <point x="565" y="382" type="line"/>
      <point x="558" y="315"/>
      <point x="512" y="293"/>
      <point x="451" y="293" type="curve" smooth="yes"/>
      <point x="390" y="293"/>
      <point x="357" y="324"/>
      <point x="346" y="390" type="curve"/>
      <point x="276" y="375" type="line"/>
      <point x="281" y="252"/>
      <point x="369" y="222"/>
    </contour>
  </outline>
</glyph>
<glyph name="GimelSep" format="2">
  <advance width="638"/>
  <unicode hex="10F32"/>
  <outline>
    <contour>
      <point x="45" y="129" type="line"/>
      <point x="81" y="65" type="line"/>
      <point x="90" y="65" type="line"/>
      <point x="217" y="255" type="line"/>
      <point x="224" y="187"/>
      <point x="237" y="122"/>
      <point x="255" y="81" type="curve" smooth="yes"/>
      <point x="275" y="35"/>
      <point x="303" y="-10"/>
      <point x="383" y="-10" type="curve" smooth="yes"/>
      <point x="471" y="-10"/>
      <point x="524" y="49"/>
      <point x="542" y="118" type="curve" smooth="yes"/>
      <point x="556" y="172"/>
      <point x="563" y="240"/>
      <point x="563" y="307" type="curve" smooth="yes"/>
      <point x="563" y="333"/>
      <point x="562" y="358"/>
      <point x="561" y="382" type="curve"/>
      <point x="495" y="382" type="line"/>
      <point x="480" y="271" type="line" smooth="yes"/>
      <point x="462" y="135"/>
      <point x="446" y="65"/>
      <point x="392" y="65" type="curve" smooth="yes"/>
      <point x="338" y="65"/>
      <point x="318" y="136"/>
      <point x="290" y="289" type="curve" smooth="yes"/>
      <point x="273" y="382" type="line"/>
      <point x="215" y="382" type="line"/>
    </contour>
  </outline>
</glyph>
<glyph name="HeSep" format="2">
  <advance width="948"/>
  <unicode hex="10F33"/>
  <outline>
    <contour>
      <point x="161" y="0" type="curve" smooth="yes"/>
      <point x="878" y="0" type="line"/>
      <point x="878" y="76" type="line"/>
      <point x="163" y="76" type="line"/>
      <point x="160" y="78"/>
      <point x="158" y="82"/>
      <point x="158" y="87" type="curve" smooth="yes"/>
      <point x="158" y="97"/>
      <point x="164" y="111"/>
      <point x="174" y="131" type="curve" smooth="yes"/>
      <point x="185" y="154" type="line" smooth="yes"/>
      <point x="234" y="257"/>
      <point x="264" y="304"/>
      <point x="372" y="305" type="curve" smooth="yes"/>
      <point x="767" y="309" type="line"/>
      <point x="772" y="382" type="line"/>
      <point x="383" y="382" type="line" smooth="yes"/>
      <point x="231" y="382"/>
      <point x="178" y="312"/>
      <point x="119" y="200" type="curve" smooth="yes"/>
      <point x="96" y="156"/>
      <point x="72" y="106"/>
      <point x="72" y="71" type="curve" smooth="yes"/>
      <point x="72" y="36"/>
      <point x="89" y="0"/>
    </contour>
  </outline>
</glyph>
<glyph name="WawSep" format="2">
  <advance width="514"/>
  <unicode hex="10F34"/>
  <outline>
    <contour>
      <point x="162" y="-242" type="curve"/>
      <point x="256" y="-242" type="line"/>
      <point x="335" y="-130"/>
      <point x="383" y="-51"/>
      <point x="419" y="54" type="curve" smooth="yes"/>
      <point x="438" y="111"/>
      <point x="449" y="158"/>
      <point x="449" y="199" type="curve" smooth="yes"/>
      <point x="449" y="331"/>
      <point x="391" y="410"/>
      <point x="274" y="410" type="curve" smooth="yes"/>
      <point x="163" y="410"/>
      <point x="55" y="298"/>
      <point x="55" y="170" type="curve" smooth="yes"/>
      <point x="55" y="48"/>
      <point x="152" y="2"/>
      <point x="308" y="0" type="curve"/>
      <point x="271" y="-78"/>
      <point x="220" y="-162"/>
    </contour>
    <contour>
      <point x="136" y="182" type="curve" smooth="yes"/>
      <point x="136" y="251"/>
      <point x="196" y="331"/>
      <point x="270" y="331" type="curve" smooth="yes"/>
      <point x="350" y="331"/>
      <point x="366" y="274"/>
      <point x="366" y="208" type="curve" smooth="yes"/>
      <point x="366" y="169"/>
      <point x="356" y="124"/>
      <point x="339" y="76" type="curve"/>
      <point x="240" y="77"/>
      <point x="136" y="91"/>
    </contour>
  </outline>
</glyph>
<glyph name="ZayinSep" format="2">
  <advance width="415"/>
  <unicode hex="10F35"/>
  <outline>
    <contour>
      <point x="45" y="86" type="curve" smooth="yes"/>
      <point x="45" y="60"/>
      <point x="49" y="0"/>
      <point x="162" y="0" type="curve" smooth="yes"/>
      <point x="341" y="0" type="line"/>
      <point x="357" y="66" type="line"/>
      <point x="302" y="143"/>
      <point x="246" y="295"/>
      <point x="224" y="382" type="curve"/>
      <point x="174" y="382" type="line"/>
      <point x="145" y="320"/>
      <point x="123" y="273"/>
      <point x="90" y="212" type="curve" smooth="yes"/>
      <point x="54" y="146"/>
      <point x="45" y="112"/>
    </contour>
    <contour>
      <point x="126" y="107" type="curve" smooth="yes"/>
      <point x="126" y="121"/>
      <point x="136" y="149"/>
      <point x="153" y="181" type="curve" smooth="yes"/>
      <point x="164" y="201"/>
      <point x="174" y="220"/>
      <point x="186" y="245" type="curve"/>
      <point x="190" y="245" type="line"/>
      <point x="206" y="179"/>
      <point x="243" y="102"/>
      <point x="262" y="74" type="curve"/>
      <point x="262" y="69" type="line"/>
      <point x="170" y="69" type="line" smooth="yes"/>
      <point x="132" y="69"/>
      <point x="126" y="93"/>
    </contour>
  </outline>
</glyph>
<glyph name="HethSep" format="2">
  <advance width="766"/>
  <unicode hex="10F36"/>
  <outline>
    <contour>
      <point x="361" y="138" type="curve"/>
      <point x="365" y="138" type="line"/>
      <point x="383" y="57"/>
      <point x="421" y="-10"/>
      <point x="511" y="-10" type="curve" smooth="yes"/>
      <point x="599" y="-10"/>
      <point x="652" y="49"/>
      <point x="670" y="118" type="curve" smooth="yes"/>
      <point x="684" y="172"/>
      <point x="691" y="240"/>
      <point x="691" y="307" type="curve" smooth="yes"/>
      <point x="691" y="333"/>
      <point x="690" y="358"/>
      <point x="689" y="382" type="curve"/>
      <point x="623" y="382" type="line"/>
      <point x="608" y="271" type="line" smooth="yes"/>
      <point x="590" y="135"/>
      <point x="574" y="65"/>
      <point x="520" y="65" type="curve" smooth="yes"/>
      <point x="466" y="65"/>
      <point x="441" y="136"/>
      <point x="413" y="289" type="curve" smooth="yes"/>
      <point x="396" y="382" type="line"/>
      <point x="338" y="382" type="line"/>
      <point x="315" y="194"/>
      <point x="296" y="76"/>
      <point x="230" y="76" type="curve" smooth="yes"/>
      <point x="172" y="76"/>
      <point x="169" y="139"/>
      <point x="164" y="262" type="curve" smooth="yes"/>
      <point x="162" y="309"/>
      <point x="162" y="529"/>
      <point x="162" y="674" type="curve"/>
      <point x="89" y="674" type="line"/>
      <point x="85" y="564"/>
      <point x="80" y="373"/>
      <point x="80" y="246" type="curve" smooth="yes"/>
      <point x="80" y="74"/>
      <point x="114" y="0"/>
      <point x="217" y="0" type="curve" smooth="yes"/>
      <point x="277" y="0"/>
      <point x="340" y="35"/>
    </contour>
  </outline>
</glyph>
<glyph name="YodhSep" format="2">
  <advance width="418"/>
  <unicode hex="10F37"/>
  <outline>
    <contour>
      <point x="70" y="0" type="line"/>
      <point x="136" y="0" type="line" smooth="yes"/>
      <point x="248" y="0"/>
      <point x="291" y="24"/>
      <point x="321" y="52" type="curve" smooth="yes"/>
      <point x="346" y="76"/>
      <point x="358" y="111"/>
      <point x="358" y="141" type="curve" smooth="yes"/>
      <point x="358" y="163"/>
      <point x="357" y="179"/>
      <point x="348" y="203" type="curve" smooth="yes"/>
      <point x="323" y="266"/>
      <point x="297" y="301"/>
      <point x="253" y="357" type="curve"/>
      <point x="269" y="373"/>
      <point x="292" y="394"/>
      <point x="308" y="407" type="curve"/>
      <point x="262" y="459" type="line"/>
      <point x="232" y="435"/>
      <point x="187" y="399"/>
      <point x="169" y="382" type="curve"/>
      <point x="167" y="334" type="line"/>
      <point x="216" y="282"/>
      <point x="273" y="199"/>
      <point x="273" y="153" type="curve" smooth="yes"/>
      <point x="273" y="83"/>
      <point x="214" y="76"/>
      <point x="141" y="76" type="curve" smooth="yes"/>
      <point x="70" y="76" type="line"/>
    </contour>
  </outline>
</glyph>
<glyph name="KaphSep" format="2">
  <advance width="712"/>
  <unicode hex="10F38"/>
  <outline>
    <contour>
      <point x="333" y="-24" type="curve" smooth="yes"/>
      <point x="243" y="-24"/>
      <point x="168" y="11"/>
      <point x="164" y="235" type="curve" smooth="yes"/>
      <point x="163" y="282"/>
      <point x="162" y="529"/>
      <point x="162" y="674" type="curve"/>
      <point x="89" y="674" type="line"/>
      <point x="85" y="564"/>
      <point x="80" y="349"/>
      <point x="80" y="222" type="curve" smooth="yes"/>
      <point x="80" y="-69"/>
      <point x="210" y="-107"/>
      <point x="330" y="-107" type="curve" smooth="yes"/>
      <point x="479" y="-107"/>
      <point x="557" y="11"/>
      <point x="608" y="136" type="curve" smooth="yes"/>
      <point x="646" y="229"/>
      <point x="658" y="326"/>
      <point x="662" y="382" type="curve"/>
      <point x="586" y="382" type="line"/>
      <point x="579" y="324"/>
      <point x="566" y="258"/>
      <point x="544" y="195" type="curve"/>
      <point x="417" y="229"/>
      <point x="368" y="306"/>
      <point x="353" y="389" type="curve"/>
      <point x="285" y="377" type="line"/>
      <point x="284" y="370"/>
      <point x="284" y="368"/>
      <point x="284" y="361" type="curve" smooth="yes"/>
      <point x="284" y="304"/>
      <point x="310" y="249"/>
      <point x="352" y="209" type="curve" smooth="yes"/>
      <point x="388" y="174"/>
      <point x="435" y="142"/>
      <point x="513" y="120" type="curve"/>
      <point x="474" y="39"/>
      <point x="418" y="-24"/>
    </contour>
  </outline>
</glyph>
<glyph name="LamedhSep" format="2">
  <advance width="518"/>
  <unicode hex="10F39"/>
  <outline>
    <contour>
      <point x="50" y="0" type="line"/>
      <point x="246" y="0" type="line" smooth="yes"/>
      <point x="346" y="0"/>
      <point x="468" y="8"/>
      <point x="468" y="123" type="curve" smooth="yes"/>
      <point x="468" y="145"/>
      <point x="460" y="172"/>
      <point x="444" y="204" type="curve" smooth="yes"/>
      <point x="377" y="334"/>
      <point x="255" y="566"/>
      <point x="180" y="715" type="curve"/>
      <point x="107" y="679" type="line"/>
      <point x="165" y="564"/>
      <point x="296" y="305"/>
      <point x="363" y="174" type="curve" smooth="yes"/>
      <point x="369" y="162"/>
      <point x="378" y="140"/>
      <point x="378" y="121" type="curve" smooth="yes"/>
      <point x="378" y="101"/>
      <point x="366" y="76"/>
      <point x="274" y="76" type="curve" smooth="yes"/>
      <point x="50" y="76" type="line"/>
    </contour>
  </outline>
</glyph>
<glyph name="NunSep" format="2">
  <advance width="585"/>
  <unicode hex="10F3B"/>
  <outline>
    <contour>
      <point x="363" y="129" type="curve" smooth="yes"/>
      <point x="380" y="163"/>
      <point x="393" y="192"/>
      <point x="405" y="229" type="curve"/>
      <point x="409" y="229" type="line" smooth="yes"/>
      <point x="417" y="208"/>
      <point x="426" y="188"/>
      <point x="434" y="171" type="curve" smooth="yes"/>
      <point x="448" y="141"/>
      <point x="457" y="118"/>
      <point x="457" y="105" type="curve" smooth="yes"/>
      <point x="457" y="90"/>
      <point x="449" y="76"/>
      <point x="412" y="76" type="curve" smooth="yes"/>
      <point x="381" y="76" type="line"/>
      <point x="367" y="0" type="line"/>
      <point x="414" y="0" type="line" smooth="yes"/>
      <point x="478" y="0"/>
      <point x="535" y="29"/>
      <point x="535" y="96" type="curve" smooth="yes"/>
      <point x="535" y="124"/>
      <point x="530" y="142"/>
      <point x="501" y="204" type="curve" smooth="yes"/>
      <point x="473" y="264"/>
      <point x="450" y="322"/>
      <point x="428" y="382" type="curve"/>
      <point x="376" y="382" type="line"/>
      <point x="352" y="294"/>
      <point x="325" y="209"/>
      <point x="287" y="140" type="curve" smooth="yes"/>
      <point x="262" y="94"/>
      <point x="248" y="76"/>
      <point x="221" y="76" type="curve" smooth="yes"/>
      <point x="178" y="76"/>
      <point x="169" y="107"/>
      <point x="164" y="192" type="curve" smooth="yes"/>
      <point x="161" y="239"/>
      <point x="162" y="529"/>
      <point x="162" y="674" type="curve"/>
      <point x="89" y="674" type="line"/>
      <point x="85" y="564"/>
      <point x="80" y="323"/>
      <point x="80" y="196" type="curve" smooth="yes"/>
      <point x="80" y="74"/>
      <point x="100" y="0"/>
      <point x="203" y="0" type="curve" smooth="yes"/>
      <point x="292" y="0"/>
      <point x="329" y="59"/>
    </contour>
  </outline>
</glyph>
<glyph name="SamekhSep" format="2">
  <advance width="665"/>
  <unicode hex="10F3C"/>
  <outline>
    <contour>
      <point x="40" y="129" type="line"/>
      <point x="76" y="65" type="line"/>
      <point x="85" y="65" type="line"/>
      <point x="212" y="255" type="line"/>
      <point x="219" y="188"/>
      <point x="230" y="125"/>
      <point x="250" y="83" type="curve" smooth="yes"/>
      <point x="272" y="37"/>
      <point x="302" y="-10"/>
      <point x="383" y="-10" type="curve" smooth="yes"/>
      <point x="454" y="-10"/>
      <point x="494" y="38"/>
      <point x="512" y="93" type="curve"/>
      <point x="515" y="93" type="line"/>
      <point x="516" y="81"/>
      <point x="516" y="72"/>
      <point x="516" y="62" type="curve" smooth="yes"/>
      <point x="516" y="-58"/>
      <point x="470" y="-101"/>
      <point x="338" y="-101" type="curve" smooth="yes"/>
      <point x="303" y="-101"/>
      <point x="266" y="-97"/>
      <point x="215" y="-88" type="curve"/>
      <point x="215" y="-163" type="line"/>
      <point x="259" y="-176"/>
      <point x="300" y="-177"/>
      <point x="339" y="-177" type="curve" smooth="yes"/>
      <point x="443" y="-177"/>
      <point x="521" y="-154"/>
      <point x="561" y="-92" type="curve" smooth="yes"/>
      <point x="583" y="-58"/>
      <point x="590" y="-13"/>
      <point x="590" y="42" type="curve" smooth="yes"/>
      <point x="590" y="109"/>
      <point x="570" y="274"/>
      <point x="556" y="382" type="curve"/>
      <point x="495" y="382" type="line"/>
      <point x="485" y="271" type="line" smooth="yes"/>
      <point x="473" y="135"/>
      <point x="446" y="65"/>
      <point x="392" y="65" type="curve" smooth="yes"/>
      <point x="338" y="65"/>
      <point x="311" y="136"/>
      <point x="285" y="289" type="curve" smooth="yes"/>
      <point x="269" y="382" type="line"/>
      <point x="210" y="382" type="line"/>
    </contour>
  </outline>
</glyph>
<glyph name="PeSep" format="2">
  <advance width="742"/>
  <unicode hex="10F3E"/>
  <outline>
    <contour>
      <point x="658" y="53" type="curve" smooth="yes"/>
      <point x="679" y="108"/>
      <point x="687" y="156"/>
      <point x="687" y="197" type="curve" smooth="yes"/>
      <point x="687" y="331"/>
      <point x="634" y="410"/>
      <point x="522" y="410" type="curve" smooth="yes"/>
      <point x="415" y="410"/>
      <point x="313" y="302"/>
      <point x="313" y="192" type="curve" smooth="yes"/>
      <point x="313" y="101"/>
      <point x="356" y="52"/>
      <point x="440" y="25" type="curve" smooth="yes"/>
      <point x="469" y="16"/>
      <point x="506" y="8"/>
      <point x="547" y="4" type="curve"/>
      <point x="508" y="-51"/>
      <point x="449" y="-91"/>
      <point x="367" y="-91" type="curve" smooth="yes"/>
      <point x="251" y="-91"/>
      <point x="170" y="-40"/>
      <point x="164" y="231" type="curve" smooth="yes"/>
      <point x="163" y="278"/>
      <point x="162" y="529"/>
      <point x="162" y="674" type="curve"/>
      <point x="89" y="674" type="line"/>
      <point x="85" y="564"/>
      <point x="80" y="343"/>
      <point x="80" y="216" type="curve" smooth="yes"/>
      <point x="80" y="-88"/>
      <point x="187" y="-177"/>
      <point x="351" y="-177" type="curve" smooth="yes"/>
      <point x="513" y="-177"/>
      <point x="612" y="-69"/>
    </contour>
    <contour>
      <point x="394" y="202" type="curve" smooth="yes"/>
      <point x="394" y="264"/>
      <point x="455" y="330"/>
      <point x="518" y="330" type="curve" smooth="yes"/>
      <point x="595" y="330"/>
      <point x="608" y="272"/>
      <point x="608" y="206" type="curve" smooth="yes"/>
      <point x="608" y="166"/>
      <point x="600" y="120"/>
      <point x="584" y="76" type="curve"/>
      <point x="472" y="84"/>
      <point x="394" y="106"/>
    </contour>
  </outline>
</glyph>
<glyph name="SadheSep" format="2">
  <advance width="745"/>
  <unicode hex="10F3F"/>
  <outline>
    <contour>
      <point x="475" y="304" type="curve" smooth="yes"/>
      <point x="538" y="304"/>
      <point x="606" y="308"/>
      <point x="651" y="320" type="curve"/>
      <point x="642" y="390" type="line"/>
      <point x="637" y="390" type="line"/>
      <point x="598" y="380"/>
      <point x="547" y="376"/>
      <point x="490" y="376" type="curve" smooth="yes"/>
      <point x="429" y="376"/>
      <point x="384" y="382"/>
      <point x="347" y="382" type="curve" smooth="yes"/>
      <point x="324" y="382"/>
      <point x="308" y="367"/>
      <point x="308" y="344" type="curve" smooth="yes"/>
      <point x="308" y="337"/>
      <point x="308" y="330"/>
      <point x="309" y="316" type="curve" smooth="yes"/>
      <point x="312" y="262"/>
      <point x="317" y="229"/>
      <point x="317" y="177" type="curve" smooth="yes"/>
      <point x="317" y="112"/>
      <point x="297" y="76"/>
      <point x="245" y="76" type="curve" smooth="yes"/>
      <point x="208" y="76"/>
      <point x="166" y="91"/>
      <point x="164" y="182" type="curve" smooth="yes"/>
      <point x="163" y="229"/>
      <point x="162" y="529"/>
      <point x="162" y="674" type="curve"/>
      <point x="89" y="674" type="line"/>
      <point x="85" y="564"/>
      <point x="80" y="316"/>
      <point x="80" y="189" type="curve" smooth="yes"/>
      <point x="80" y="35"/>
      <point x="156" y="0"/>
      <point x="269" y="0" type="curve" smooth="yes"/>
      <point x="675" y="0" type="line"/>
      <point x="675" y="76" type="line"/>
      <point x="372" y="76" type="line"/>
      <point x="390" y="99"/>
      <point x="397" y="134"/>
      <point x="397" y="180" type="curve" smooth="yes"/>
      <point x="397" y="209"/>
      <point x="392" y="259"/>
      <point x="385" y="308" type="curve"/>
      <point x="417" y="305"/>
      <point x="453" y="304"/>
    </contour>
  </outline>
</glyph>
<glyph name="ReshSep" format="2">
  <advance width="480"/>
  <unicode hex="10F40"/>
  <outline>
    <contour>
      <point x="60" y="-11" type="curve"/>
      <point x="60" y="-93" type="line"/>
      <point x="209" y="-43"/>
      <point x="337" y="42"/>
      <point x="396" y="199" type="curve" smooth="yes"/>
      <point x="413" y="245"/>
      <point x="430" y="305"/>
      <point x="430" y="382" type="curve"/>
      <point x="354" y="382" type="line"/>
      <point x="348" y="316"/>
      <point x="338" y="267"/>
      <point x="320" y="223" type="curve"/>
      <point x="201" y="253"/>
      <point x="153" y="324"/>
      <point x="138" y="390" type="curve"/>
      <point x="136" y="390" type="line"/>
      <point x="74" y="369" type="line"/>
      <point x="74" y="359" type="line" smooth="yes"/>
      <point x="74" y="299"/>
      <point x="105" y="255"/>
      <point x="137" y="228" type="curve" smooth="yes"/>
      <point x="164" y="205"/>
      <point x="212" y="172"/>
      <point x="283" y="150" type="curve"/>
      <point x="239" y="87"/>
      <point x="166" y="31"/>
    </contour>
  </outline>
</glyph>
<glyph name="LeshSep" format="2">
  <advance width="470"/>
  <unicode hex="10F44"/>
  <outline>
    <contour>
      <point x="60" y="-76" type="line"/>
      <point x="376" y="-152" type="line"/>
      <point x="384" y="-69" type="line"/>
      <point x="198" y="-20" type="line"/>
      <point x="281" y="31"/>
      <point x="346" y="97"/>
      <point x="386" y="199" type="curve" smooth="yes"/>
      <point x="404" y="245"/>
      <point x="420" y="305"/>
      <point x="420" y="382" type="curve"/>
      <point x="344" y="382" type="line"/>
      <point x="338" y="316"/>
      <point x="328" y="267"/>
      <point x="310" y="223" type="curve"/>
      <point x="191" y="253"/>
      <point x="143" y="324"/>
      <point x="128" y="390" type="curve"/>
      <point x="126" y="390" type="line"/>
      <point x="64" y="363" type="line"/>
      <point x="63" y="360"/>
      <point x="63" y="351"/>
      <point x="63" y="350" type="curve" smooth="yes"/>
      <point x="63" y="313"/>
      <point x="96" y="256"/>
      <point x="127" y="228" type="curve" smooth="yes"/>
      <point x="154" y="204"/>
      <point x="202" y="171"/>
      <point x="273" y="150" type="curve"/>
      <point x="231" y="87"/>
      <point x="163" y="33"/>
      <point x="60" y="-11" type="curve"/>
    </contour>
  </outline>
</glyph>
<glyph name="IndShin" format="2">
  <advance width="1083"/>
  <unicode hex="10F45"/>
  <outline>
    <contour>
      <point x="310" y="29" type="curve" smooth="yes"/>
      <point x="336" y="48"/>
      <point x="364" y="79"/>
      <point x="401" y="126" type="curve" smooth="yes"/>
      <point x="427" y="160"/>
      <point x="449" y="188"/>
      <point x="468" y="211" type="curve" smooth="yes"/>
      <point x="508" y="260"/>
      <point x="535" y="284"/>
      <point x="564" y="284" type="curve" smooth="yes"/>
      <point x="593" y="284"/>
      <point x="614" y="257"/>
      <point x="614" y="223" type="curve" smooth="yes"/>
      <point x="614" y="174"/>
      <point x="593" y="132"/>
      <point x="549" y="86" type="curve"/>
      <point x="502" y="57"/>
      <point x="456" y="27"/>
      <point x="411" y="-4" type="curve"/>
      <point x="450" y="-63" type="line"/>
      <point x="645" y="66"/>
      <point x="845" y="175"/>
      <point x="1043" y="264" type="curve"/>
      <point x="1033" y="284"/>
      <point x="1019" y="312"/>
      <point x="1007" y="331" type="curve"/>
      <point x="911" y="290"/>
      <point x="794" y="231"/>
      <point x="674" y="161" type="curve"/>
      <point x="687" y="191"/>
      <point x="690" y="218"/>
      <point x="690" y="243" type="curve" smooth="yes"/>
      <point x="690" y="320"/>
      <point x="629" y="363"/>
      <point x="575" y="363" type="curve" smooth="yes"/>
      <point x="508" y="363"/>
      <point x="454" y="317"/>
      <point x="396" y="240" type="curve" smooth="yes"/>
      <point x="378" y="216"/>
      <point x="358" y="190"/>
      <point x="336" y="163" type="curve" smooth="yes"/>
      <point x="266" y="80"/>
      <point x="254" y="76"/>
      <point x="226" y="76" type="curve" smooth="yes"/>
      <point x="159" y="76"/>
      <point x="168" y="167"/>
      <point x="164" y="276" type="curve" smooth="yes"/>
      <point x="162" y="323"/>
      <point x="162" y="529"/>
      <point x="162" y="674" type="curve"/>
      <point x="88" y="674" type="line"/>
      <point x="85" y="564"/>
      <point x="80" y="291"/>
      <point x="80" y="230" type="curve" smooth="yes"/>
      <point x="80" y="89"/>
      <point x="101" y="0"/>
      <point x="218" y="0" type="curve" smooth="yes"/>
      <point x="257" y="0"/>
      <point x="286" y="11"/>
    </contour>
  </outline>
</glyph>
<glyph name="dotbelowSogd" format="2">
  <unicode hex="10F46"/>
  <outline>
    <contour>
      <point x="-43" y="-55" type="curve" smooth="yes"/>
      <point x="-43" y="-90"/>
      <point x="-26" y="-103"/>
      <point x="0" y="-103" type="curve" smooth="yes"/>
      <point x="28" y="-103"/>
      <point x="44" y="-86"/>
      <point x="44" y="-55" type="curve" smooth="yes"/>
      <point x="44" y="-24"/>
      <point x="28" y="-8"/>
      <point x="0" y="-8" type="curve" smooth="yes"/>
      <point x="-27" y="-8"/>
      <point x="-43" y="-24"/>
    </contour>
  </outline>
</glyph>
<glyph name="twodotsbelowSogd" format="2">
  <unicode hex="10F47"/>
  <outline>
    <contour>
      <point x="-114" y="-55" type="curve" smooth="yes"/>
      <point x="-114" y="-90"/>
      <point x="-97" y="-103"/>
      <point x="-71" y="-103" type="curve" smooth="yes"/>
      <point x="-43" y="-103"/>
      <point x="-27" y="-86"/>
      <point x="-27" y="-55" type="curve" smooth="yes"/>
      <point x="-27" y="-24"/>
      <point x="-43" y="-8"/>
      <point x="-71" y="-8" type="curve" smooth="yes"/>
      <point x="-98" y="-8"/>
      <point x="-114" y="-24"/>
    </contour>
    <contour>
      <point x="25" y="-55" type="curve" smooth="yes"/>
      <point x="25" y="-90"/>
      <point x="42" y="-103"/>
      <point x="67" y="-103" type="curve" smooth="yes"/>
      <point x="96" y="-103"/>
      <point x="112" y="-86"/>
      <point x="112" y="-55" type="curve" smooth="yes"/>
      <point x="112" y="-24"/>
      <point x="96" y="-8"/>
      <point x="67" y="-8" type="curve" smooth="yes"/>
      <point x="41" y="-8"/>
      <point x="25" y="-24"/>
    </contour>
  </outline>
</glyph>
<glyph name="dotaboveSogd" format="2">
  <unicode hex="10F48"/>
  <outline>
    <contour>
      <point x="44" y="597" type="curve" smooth="yes"/>
      <point x="44" y="632"/>
      <point x="27" y="645"/>
      <point x="2" y="645" type="curve" smooth="yes"/>
      <point x="-27" y="645"/>
      <point x="-43" y="628"/>
      <point x="-43" y="597" type="curve" smooth="yes"/>
      <point x="-43" y="566"/>
      <point x="-27" y="550"/>
      <point x="2" y="550" type="curve" smooth="yes"/>
      <point x="28" y="550"/>
      <point x="44" y="566"/>
    </contour>
  </outline>
</glyph>
<glyph name="twodotsaboveSogd" format="2">
  <unicode hex="10F49"/>
  <outline>
    <contour>
      <point x="112" y="597" type="curve" smooth="yes"/>
      <point x="112" y="632"/>
      <point x="95" y="645"/>
      <point x="69" y="645" type="curve" smooth="yes"/>
      <point x="41" y="645"/>
      <point x="25" y="628"/>
      <point x="25" y="597" type="curve" smooth="yes"/>
      <point x="25" y="566"/>
      <point x="41" y="550"/>
      <point x="69" y="550" type="curve" smooth="yes"/>
      <point x="96" y="550"/>
      <point x="112" y="566"/>
    </contour>
    <contour>
      <point x="-27" y="597" type="curve" smooth="yes"/>
      <point x="-27" y="632"/>
      <point x="-44" y="645"/>
      <point x="-69" y="645" type="curve" smooth="yes"/>
      <point x="-98" y="645"/>
      <point x="-114" y="628"/>
      <point x="-114" y="597" type="curve" smooth="yes"/>
      <point x="-114" y="566"/>
      <point x="-98" y="550"/>
      <point x="-69" y="550" type="curve" smooth="yes"/>
      <point x="-43" y="550"/>
      <point x="-27" y="566"/>
    </contour>
  </outline>
</glyph>
<glyph name="curveaboveSogd" format="2">
  <unicode hex="10F4A"/>
  <outline>
    <contour>
      <point x="103" y="539" type="curve"/>
      <point x="149" y="559" type="line"/>
      <point x="130" y="614"/>
      <point x="82" y="653"/>
      <point x="10" y="653" type="curve" smooth="yes"/>
      <point x="-63" y="653"/>
      <point x="-121" y="615"/>
      <point x="-146" y="556" type="curve"/>
      <point x="-106" y="543" type="line"/>
      <point x="-83" y="580"/>
      <point x="-47" y="602"/>
      <point x="6" y="602" type="curve" smooth="yes"/>
      <point x="65" y="602"/>
      <point x="86" y="571"/>
    </contour>
  </outline>
</glyph>
<glyph name="curvebelowSogd" format="2">
  <unicode hex="10F4B"/>
  <outline>
    <contour>
      <point x="-87" y="-2" type="curve"/>
      <point x="-128" y="-25" type="line"/>
      <point x="-111" y="-74"/>
      <point x="-68" y="-109"/>
      <point x="-3" y="-109" type="curve" smooth="yes"/>
      <point x="63" y="-109"/>
      <point x="115" y="-75"/>
      <point x="137" y="-22" type="curve"/>
      <point x="101" y="-5" type="line"/>
      <point x="81" y="-39"/>
      <point x="48" y="-58"/>
      <point x="0" y="-58" type="curve" smooth="yes"/>
      <point x="-53" y="-58"/>
      <point x="-72" y="-31"/>
    </contour>
  </outline>
</glyph>
<glyph name="hookaboveSogd" format="2">
  <unicode hex="10F4C"/>
  <outline>
    <contour>
      <point x="-95" y="599" type="line"/>
      <point x="-80" y="557" type="line"/>
      <point x="53" y="605" type="line"/>
      <point x="57" y="532" type="line"/>
      <point x="100" y="532" type="line"/>
      <point x="100" y="660" type="line"/>
      <point x="66" y="660" type="line"/>
    </contour>
  </outline>
</glyph>
<glyph name="hookbelowSogd" format="2">
  <unicode hex="10F4D"/>
  <outline>
    <contour>
      <point x="-34" y="0" type="line"/>
      <point x="-74" y="0" type="line"/>
      <point x="-98" y="-123" type="line"/>
      <point x="-98" y="-128" type="line"/>
      <point x="70" y="-128" type="line"/>
      <point x="70" y="-82" type="line"/>
      <point x="-48" y="-82" type="line"/>
    </contour>
  </outline>
</glyph>
<glyph name="longhookbelowSogd" format="2">
  <unicode hex="10F4E"/>
  <outline>
    <contour>
      <point x="-62" y="0" type="line"/>
      <point x="-102" y="0" type="line"/>
      <point x="-126" y="-123" type="line"/>
      <point x="-126" y="-128" type="line"/>
      <point x="117" y="-128" type="line"/>
      <point x="117" y="-82" type="line"/>
      <point x="-76" y="-82" type="line"/>
    </contour>
  </outline>
</glyph>
<glyph name="reshbelowSogd" format="2">
  <unicode hex="10F4F"/>
  <outline>
    <contour>
      <point x="-76" y="-149" type="curve"/>
      <point x="-76" y="-187" type="line"/>
      <point x="-16" y="-167"/>
      <point x="34" y="-134"/>
      <point x="55" y="-77" type="curve" smooth="yes"/>
      <point x="61" y="-61"/>
      <point x="67" y="-38"/>
      <point x="67" y="-4" type="curve"/>
      <point x="32" y="-4" type="line"/>
      <point x="30" y="-29"/>
      <point x="26" y="-48"/>
      <point x="20" y="-62" type="curve"/>
      <point x="-24" y="-51"/>
      <point x="-41" y="-24"/>
      <point x="-47" y="0" type="curve"/>
      <point x="-79" y="-10" type="line"/>
      <point x="-79" y="-18" type="line" smooth="yes"/>
      <point x="-79" y="-41"/>
      <point x="-67" y="-58"/>
      <point x="-54" y="-69" type="curve" smooth="yes"/>
      <point x="-44" y="-77"/>
      <point x="-27" y="-89"/>
      <point x="1" y="-97" type="curve"/>
      <point x="-15" y="-117"/>
      <point x="-40" y="-135"/>
    </contour>
  </outline>
</glyph>
<glyph name="strokebelowSogd" format="2">
  <unicode hex="10F50"/>
  <outline>
    <contour>
      <point x="65" y="95" type="line"/>
      <point x="12" y="95" type="line"/>
      <point x="-19" y="-57" type="line"/>
      <point x="-19" y="-62" type="line"/>
      <point x="16" y="-62" type="line"/>
    </contour>
  </outline>
</glyph>
<glyph name="oneSogdSep" format="2">
  <advance width="356"/>
  <unicode hex="10F51"/>
  <outline>
    <contour>
      <point x="214" y="0" type="curve"/>
      <point x="296" y="0" type="line"/>
      <point x="291" y="86"/>
      <point x="236" y="299"/>
      <point x="215" y="351" type="curve"/>
      <point x="155" y="351" type="line"/>
      <point x="128" y="183"/>
      <point x="104" y="76"/>
      <point x="20" y="76" type="curve"/>
      <point x="20" y="0" type="line"/>
      <point x="119" y="0"/>
      <point x="170" y="80"/>
      <point x="184" y="182" type="curve"/>
      <point x="188" y="182" type="line"/>
      <point x="199" y="124"/>
      <point x="209" y="51"/>
    </contour>
  </outline>
</glyph>
<glyph name="tenSogdSep" format="2">
  <advance width="696"/>
  <unicode hex="10F52"/>
  <outline>
    <contour>
      <point x="60" y="0" type="line"/>
      <point x="394" y="0" type="line" smooth="yes"/>
      <point x="504" y="0"/>
      <point x="631" y="4"/>
      <point x="631" y="132" type="curve" smooth="yes"/>
      <point x="631" y="183"/>
      <point x="594" y="219"/>
      <point x="540" y="268" type="curve" smooth="yes"/>
      <point x="208" y="569" type="line"/>
      <point x="149" y="507" type="line"/>
      <point x="504" y="191" type="line" smooth="yes"/>
      <point x="528" y="169"/>
      <point x="547" y="147"/>
      <point x="547" y="126" type="curve" smooth="yes"/>
      <point x="547" y="96"/>
      <point x="533" y="76"/>
      <point x="458" y="76" type="curve" smooth="yes"/>
      <point x="60" y="76" type="line"/>
    </contour>
  </outline>
</glyph>
<glyph name="twentySogdSep" format="2">
  <advance width="696"/>
  <unicode hex="10F53"/>
  <outline>
    <contour>
      <point x="439" y="528" type="curve" smooth="yes"/>
      <point x="439" y="584"/>
      <point x="392" y="648"/>
      <point x="306" y="648" type="curve" smooth="yes"/>
      <point x="199" y="648"/>
      <point x="155" y="572"/>
      <point x="155" y="513" type="curve" smooth="yes"/>
      <point x="155" y="462"/>
      <point x="184" y="423"/>
      <point x="234" y="387" type="curve" smooth="yes"/>
      <point x="503" y="194" type="line" smooth="yes"/>
      <point x="531" y="174"/>
      <point x="547" y="150"/>
      <point x="547" y="130" type="curve" smooth="yes"/>
      <point x="547" y="102"/>
      <point x="533" y="76"/>
      <point x="458" y="76" type="curve" smooth="yes"/>
      <point x="60" y="76" type="line"/>
      <point x="60" y="0" type="line"/>
      <point x="394" y="0" type="line" smooth="yes"/>
      <point x="504" y="0"/>
      <point x="631" y="6"/>
      <point x="631" y="135" type="curve" smooth="yes"/>
      <point x="631" y="198"/>
      <point x="574" y="244"/>
      <point x="540" y="268" type="curve" smooth="yes"/>
      <point x="355" y="399" type="line"/>
      <point x="404" y="421"/>
      <point x="439" y="461"/>
    </contour>
    <contour>
      <point x="224" y="517" type="curve" smooth="yes"/>
      <point x="224" y="556"/>
      <point x="256" y="589"/>
      <point x="300" y="589" type="curve" smooth="yes"/>
      <point x="345" y="589"/>
      <point x="372" y="561"/>
      <point x="372" y="521" type="curve" smooth="yes"/>
      <point x="372" y="475"/>
      <point x="343" y="439"/>
      <point x="297" y="429" type="curve"/>
      <point x="258" y="448"/>
      <point x="224" y="470"/>
    </contour>
  </outline>
</glyph>
<glyph name="hundredSogdSep" format="2">
  <advance width="1618"/>
  <unicode hex="10F54"/>
  <outline>
    <contour>
      <point x="436" y="61" type="curve"/>
      <point x="429" y="14" type="line"/>
      <point x="461" y="2"/>
      <point x="518" y="-2"/>
      <point x="543" y="-2" type="curve" smooth="yes"/>
      <point x="618" y="-2"/>
      <point x="687" y="21"/>
      <point x="733" y="74" type="curve"/>
      <point x="763" y="0"/>
      <point x="800" y="-30"/>
      <point x="866" y="-30" type="curve" smooth="yes"/>
      <point x="944" y="-30"/>
      <point x="988" y="16"/>
      <point x="1010" y="75" type="curve"/>
      <point x="1033" y="28"/>
      <point x="1090" y="0"/>
      <point x="1198" y="0" type="curve" smooth="yes"/>
      <point x="1548" y="0" type="line"/>
      <point x="1548" y="65" type="line"/>
      <point x="1510" y="82"/>
      <point x="1435" y="154"/>
      <point x="1384" y="209" type="curve"/>
      <point x="1439" y="257"/>
      <point x="1502" y="306"/>
      <point x="1550" y="334" type="curve"/>
      <point x="1509" y="394" type="line"/>
      <point x="1458" y="366"/>
      <point x="1392" y="316"/>
      <point x="1336" y="262" type="curve"/>
      <point x="1299" y="307"/>
      <point x="1268" y="353"/>
      <point x="1245" y="391" type="curve"/>
      <point x="1174" y="353" type="line"/>
      <point x="1207" y="280"/>
      <point x="1324" y="130"/>
      <point x="1414" y="78" type="curve"/>
      <point x="1414" y="72" type="line"/>
      <point x="1383" y="74"/>
      <point x="1291" y="76"/>
      <point x="1274" y="76" type="curve" smooth="yes"/>
      <point x="1189" y="76" type="line" smooth="yes"/>
      <point x="1114" y="76"/>
      <point x="1041" y="105"/>
      <point x="1038" y="217" type="curve"/>
      <point x="1043" y="275"/>
      <point x="1043" y="328"/>
      <point x="1043" y="382" type="curve"/>
      <point x="977" y="382" type="line"/>
      <point x="961" y="254" type="line" smooth="yes"/>
      <point x="944" y="118"/>
      <point x="929" y="45"/>
      <point x="875" y="45" type="curve" smooth="yes"/>
      <point x="821" y="45"/>
      <point x="800" y="116"/>
      <point x="772" y="269" type="curve" smooth="yes"/>
      <point x="751" y="382" type="line"/>
      <point x="687" y="382" type="line"/>
      <point x="688" y="318"/>
      <point x="694" y="258"/>
      <point x="703" y="199" type="curve"/>
      <point x="700" y="118"/>
      <point x="639" y="76"/>
      <point x="557" y="76" type="curve" smooth="yes"/>
      <point x="519" y="76" type="line"/>
      <point x="539" y="117"/>
      <point x="545" y="146"/>
      <point x="545" y="181" type="curve" smooth="yes"/>
      <point x="545" y="305"/>
      <point x="463" y="389"/>
      <point x="333" y="389" type="curve" smooth="yes"/>
      <point x="180" y="389"/>
      <point x="65" y="263"/>
      <point x="65" y="86" type="curve" smooth="yes"/>
      <point x="65" y="-124"/>
      <point x="217" y="-302"/>
      <point x="522" y="-302" type="curve" smooth="yes"/>
      <point x="557" y="-302"/>
      <point x="594" y="-300"/>
      <point x="633" y="-294" type="curve"/>
      <point x="633" y="-220" type="line"/>
      <point x="602" y="-224"/>
      <point x="568" y="-225"/>
      <point x="538" y="-225" type="curve" smooth="yes"/>
      <point x="314" y="-225"/>
      <point x="152" y="-111"/>
      <point x="152" y="92" type="curve" smooth="yes"/>
      <point x="152" y="223"/>
      <point x="228" y="306"/>
      <point x="329" y="306" type="curve" smooth="yes"/>
      <point x="426" y="306"/>
      <point x="472" y="242"/>
      <point x="472" y="169" type="curve" smooth="yes"/>
      <point x="472" y="134"/>
      <point x="464" y="94"/>
    </contour>
  </outline>
</glyph>
<glyph name="u10F55" format="2">
  <advance width="414"/>
  <unicode hex="10F55"/>
  <outline>
    <contour>
      <point x="80" y="372" type="line"/>
      <point x="80" y="0" type="line"/>
      <point x="160" y="0" type="line"/>
      <point x="160" y="382" type="line"/>
    </contour>
    <contour>
      <point x="254" y="382" type="line"/>
      <point x="254" y="0" type="line"/>
      <point x="334" y="0" type="line"/>
      <point x="334" y="392" type="line"/>
    </contour>
  </outline>
</glyph>
<glyph name="u10F56" format="2">
  <advance width="414"/>
  <unicode hex="10F56"/>
  <outline>
    <contour>
      <point x="254" y="382" type="line"/>
      <point x="254" y="0" type="line"/>
      <point x="334" y="0" type="line"/>
      <point x="334" y="392" type="line"/>
    </contour>
    <contour>
      <point x="80" y="372" type="line"/>
      <point x="80" y="0" type="line"/>
      <point x="160" y="0" type="line"/>
      <point x="160" y="382" type="line"/>
    </contour>
    <contour>
      <point x="160" y="464" type="curve" smooth="yes"/>
      <point x="160" y="425"/>
      <point x="179" y="410"/>
      <point x="207" y="410" type="curve" smooth="yes"/>
      <point x="237" y="410"/>
      <point x="255" y="429"/>
      <point x="255" y="464" type="curve" smooth="yes"/>
      <point x="255" y="499"/>
      <point x="238" y="517"/>
      <point x="207" y="517" type="curve" smooth="yes"/>
      <point x="177" y="517"/>
      <point x="160" y="499"/>
    </contour>
    <contour>
      <point x="160" y="-83" type="curve" smooth="yes"/>
      <point x="160" y="-122"/>
      <point x="179" y="-137"/>
      <point x="207" y="-137" type="curve" smooth="yes"/>
      <point x="237" y="-137"/>
      <point x="255" y="-118"/>
      <point x="255" y="-83" type="curve" smooth="yes"/>
      <point x="255" y="-48"/>
      <point x="238" y="-30"/>
      <point x="207" y="-30" type="curve" smooth="yes"/>
      <point x="177" y="-30"/>
      <point x="160" y="-48"/>
    </contour>
  </outline>
</glyph>
<glyph name="u10F57" format="2">
  <advance width="508"/>
  <unicode hex="10F57"/>
  <outline>
    <contour>
      <point x="70" y="198" type="curve" smooth="yes"/>
      <point x="70" y="99"/>
      <point x="137" y="26"/>
      <point x="251" y="26" type="curve" smooth="yes"/>
      <point x="369" y="26"/>
      <point x="438" y="117"/>
      <point x="438" y="218" type="curve" smooth="yes"/>
      <point x="438" y="317"/>
      <point x="372" y="390"/>
      <point x="257" y="390" type="curve" smooth="yes"/>
      <point x="139" y="390"/>
      <point x="70" y="299"/>
    </contour>
    <contour>
      <point x="133" y="206" type="curve"/>
      <point x="133" y="271"/>
      <point x="179" y="329"/>
      <point x="254" y="329" type="curve" smooth="yes"/>
      <point x="329" y="329"/>
      <point x="375" y="282"/>
      <point x="375" y="210" type="curve" smooth="yes"/>
      <point x="375" y="145"/>
      <point x="329" y="87"/>
      <point x="254" y="87" type="curve" smooth="yes"/>
      <point x="179" y="87"/>
      <point x="133" y="134"/>
    </contour>
    <contour>
      <point x="209" y="208" type="curve" smooth="yes"/>
      <point x="209" y="170"/>
      <point x="227" y="156"/>
      <point x="254" y="156" type="curve" smooth="yes"/>
      <point x="283" y="156"/>
      <point x="300" y="174"/>
      <point x="300" y="208" type="curve" smooth="yes"/>
      <point x="300" y="242"/>
      <point x="284" y="259"/>
      <point x="254" y="259" type="curve" smooth="yes"/>
      <point x="225" y="259"/>
      <point x="209" y="242"/>
    </contour>
  </outline>
</glyph>
<glyph name="u10F58" format="2">
  <advance width="812"/>
  <unicode hex="10F58"/>
  <outline>
    <contour>
      <point x="70" y="199" type="curve" smooth="yes"/>
      <point x="70" y="99"/>
      <point x="135" y="26"/>
      <point x="249" y="26" type="curve" smooth="yes"/>
      <point x="322" y="26"/>
      <point x="373" y="60"/>
      <point x="401" y="110" type="curve"/>
      <point x="427" y="58"/>
      <point x="479" y="26"/>
      <point x="557" y="26" type="curve" smooth="yes"/>
      <point x="674" y="26"/>
      <point x="742" y="117"/>
      <point x="742" y="217" type="curve" smooth="yes"/>
      <point x="742" y="317"/>
      <point x="677" y="390"/>
      <point x="562" y="390" type="curve" smooth="yes"/>
      <point x="489" y="390"/>
      <point x="439" y="353"/>
      <point x="410" y="304" type="curve"/>
      <point x="385" y="356"/>
      <point x="334" y="390"/>
      <point x="255" y="390" type="curve" smooth="yes"/>
      <point x="138" y="390"/>
      <point x="70" y="299"/>
    </contour>
    <contour>
      <point x="133" y="206" type="curve" smooth="yes"/>
      <point x="133" y="271"/>
      <point x="177" y="329"/>
      <point x="252" y="329" type="curve" smooth="yes"/>
      <point x="327" y="329"/>
      <point x="376" y="283"/>
      <point x="376" y="210" type="curve" smooth="yes"/>
      <point x="376" y="145"/>
      <point x="327" y="87"/>
      <point x="252" y="87" type="curve" smooth="yes"/>
      <point x="177" y="87"/>
      <point x="133" y="133"/>
    </contour>
    <contour>
      <point x="436" y="206" type="curve" smooth="yes"/>
      <point x="436" y="271"/>
      <point x="485" y="329"/>
      <point x="560" y="329" type="curve" smooth="yes"/>
      <point x="634" y="329"/>
      <point x="678" y="283"/>
      <point x="678" y="210" type="curve" smooth="yes"/>
      <point x="678" y="145"/>
      <point x="634" y="87"/>
      <point x="560" y="87" type="curve" smooth="yes"/>
      <point x="485" y="87"/>
      <point x="436" y="133"/>
    </contour>
    <contour>
      <point x="209" y="208" type="curve" smooth="yes"/>
      <point x="209" y="170"/>
      <point x="227" y="156"/>
      <point x="254" y="156" type="curve" smooth="yes"/>
      <point x="283" y="156"/>
      <point x="301" y="174"/>
      <point x="301" y="208" type="curve" smooth="yes"/>
      <point x="301" y="242"/>
      <point x="284" y="259"/>
      <point x="254" y="259" type="curve" smooth="yes"/>
      <point x="225" y="259"/>
      <point x="209" y="242"/>
    </contour>
    <contour>
      <point x="513" y="208" type="curve" smooth="yes"/>
      <point x="513" y="170"/>
      <point x="531" y="156"/>
      <point x="558" y="156" type="curve" smooth="yes"/>
      <point x="587" y="156"/>
      <point x="604" y="174"/>
      <point x="604" y="208" type="curve" smooth="yes"/>
      <point x="604" y="242"/>
      <point x="588" y="259"/>
      <point x="558" y="259" type="curve" smooth="yes"/>
      <point x="529" y="259"/>
      <point x="513" y="242"/>
    </contour>
  </outline>
</glyph>
<glyph name="u10F59" format="2">
  <advance width="740"/>
  <unicode hex="10F59"/>
  <outline>
    <contour>
      <point x="647" y="-56" type="curve"/>
      <point x="650" y="14" type="line"/>
      <point x="348" y="14"/>
      <point x="147" y="43"/>
      <point x="147" y="189" type="curve" smooth="yes"/>
      <point x="147" y="324"/>
      <point x="348" y="372"/>
      <point x="650" y="372" type="curve"/>
      <point x="647" y="442" type="line"/>
      <point x="260" y="442"/>
      <point x="70" y="354"/>
      <point x="70" y="174" type="curve" smooth="yes"/>
      <point x="70" y="5"/>
      <point x="261" y="-56"/>
    </contour>
    <contour>
      <point x="237" y="193" type="curve" smooth="yes"/>
      <point x="237" y="145"/>
      <point x="266" y="128"/>
      <point x="300" y="128" type="curve" smooth="yes"/>
      <point x="337" y="128"/>
      <point x="365" y="151"/>
      <point x="365" y="193" type="curve" smooth="yes"/>
      <point x="365" y="235"/>
      <point x="338" y="257"/>
      <point x="300" y="257" type="curve" smooth="yes"/>
      <point x="263" y="257"/>
      <point x="237" y="235"/>
    </contour>
  </outline>
</glyph>
<glyph name="AlephFin.EE" format="2">
  <advance width="649"/>
  <outline>
    <contour>
      <point x="434" y="76" type="curve" smooth="yes"/>
      <point x="50" y="76" type="line"/>
      <point x="50" y="0" type="line"/>
      <point x="649" y="0" type="line"/>
      <point x="676" y="76" type="line"/>
      <point x="673" y="77"/>
      <point x="660" y="82"/>
      <point x="629" y="111" type="curve" smooth="yes"/>
      <point x="609" y="130"/>
      <point x="580" y="160"/>
      <point x="540" y="205" type="curve"/>
      <point x="596" y="255"/>
      <point x="661" y="307"/>
      <point x="710" y="336" type="curve"/>
      <point x="669" y="394" type="line"/>
      <point x="617" y="365"/>
      <point x="551" y="311"/>
      <point x="495" y="256" type="curve"/>
      <point x="459" y="302"/>
      <point x="427" y="352"/>
      <point x="405" y="391" type="curve"/>
      <point x="338" y="355" type="line"/>
      <point x="369" y="281"/>
      <point x="498" y="123"/>
      <point x="562" y="74" type="curve"/>
      <point x="562" y="72" type="line"/>
      <point x="531" y="74"/>
      <point x="451" y="76"/>
    </contour>
  </outline>
</glyph>
<glyph name="AlephFin" format="2">
  <advance width="735"/>
  <outline>
    <contour>
      <point x="434" y="76" type="curve" smooth="yes"/>
      <point x="50" y="76" type="line"/>
      <point x="50" y="0" type="line"/>
      <point x="735" y="0" type="line"/>
      <point x="735" y="76" type="line"/>
      <point x="669" y="76"/>
      <point x="642" y="104"/>
      <point x="544" y="209" type="curve"/>
      <point x="599" y="257"/>
      <point x="662" y="308"/>
      <point x="710" y="336" type="curve"/>
      <point x="669" y="394" type="line"/>
      <point x="618" y="366"/>
      <point x="553" y="313"/>
      <point x="497" y="259" type="curve"/>
      <point x="460" y="304"/>
      <point x="428" y="353"/>
      <point x="405" y="391" type="curve"/>
      <point x="339" y="353" type="line"/>
      <point x="372" y="280"/>
      <point x="487" y="130"/>
      <point x="572" y="76" type="curve"/>
      <point x="572" y="72" type="line"/>
      <point x="541" y="74"/>
      <point x="451" y="76"/>
    </contour>
  </outline>
</glyph>
<glyph name="AlephFin.pe" format="2">
  <advance width="778"/>
  <outline>
    <contour>
      <point x="710" y="336" type="curve"/>
      <point x="669" y="394" type="line"/>
      <point x="618" y="366"/>
      <point x="553" y="313"/>
      <point x="497" y="259" type="curve"/>
      <point x="463" y="297"/>
      <point x="429" y="348"/>
      <point x="405" y="391" type="curve"/>
      <point x="338" y="351" type="line"/>
      <point x="379" y="275"/>
      <point x="487" y="128"/>
      <point x="577" y="76" type="curve"/>
      <point x="577" y="72" type="line"/>
      <point x="546" y="74"/>
      <point x="455" y="76"/>
      <point x="438" y="76" type="curve" smooth="yes"/>
      <point x="50" y="76" type="line"/>
      <point x="50" y="0" type="line"/>
      <point x="708" y="0" type="line"/>
      <point x="708" y="65" type="line"/>
      <point x="671" y="82"/>
      <point x="600" y="149"/>
      <point x="545" y="209" type="curve"/>
      <point x="599" y="258"/>
      <point x="662" y="308"/>
    </contour>
  </outline>
</glyph>
<glyph name="AlephIni.L" format="2">
  <advance width="499"/>
  <outline>
    <contour>
      <point x="0" y="0" type="curve" smooth="yes"/>
      <point x="429" y="0" type="line"/>
      <point x="429" y="65" type="line"/>
      <point x="392" y="82"/>
      <point x="321" y="149"/>
      <point x="266" y="209" type="curve"/>
      <point x="320" y="258"/>
      <point x="383" y="308"/>
      <point x="431" y="336" type="curve"/>
      <point x="390" y="394" type="line"/>
      <point x="339" y="366"/>
      <point x="274" y="313"/>
      <point x="218" y="259" type="curve"/>
      <point x="184" y="297"/>
      <point x="150" y="348"/>
      <point x="126" y="391" type="curve"/>
      <point x="59" y="351" type="line"/>
      <point x="100" y="275"/>
      <point x="208" y="128"/>
      <point x="298" y="76" type="curve"/>
      <point x="298" y="72" type="line"/>
      <point x="267" y="74"/>
      <point x="176" y="76"/>
      <point x="159" y="76" type="curve" smooth="yes"/>
      <point x="0" y="76" type="line" smooth="yes"/>
      <point x="-34" y="76"/>
      <point x="-43" y="57"/>
      <point x="-43" y="38" type="curve" smooth="yes"/>
      <point x="-43" y="19"/>
      <point x="-34" y="0"/>
    </contour>
  </outline>
</glyph>
<glyph name="AlephMed.EE" format="2">
  <advance width="340"/>
  <outline>
    <contour>
      <point x="125" y="76" type="curve" smooth="yes"/>
      <point x="0" y="76" type="line" smooth="yes"/>
      <point x="-34" y="76"/>
      <point x="-43" y="57"/>
      <point x="-43" y="38" type="curve" smooth="yes"/>
      <point x="-43" y="19"/>
      <point x="-34" y="0"/>
      <point x="0" y="0" type="curve" smooth="yes"/>
      <point x="340" y="0" type="line"/>
      <point x="367" y="76" type="line"/>
      <point x="363" y="77"/>
      <point x="351" y="82"/>
      <point x="320" y="111" type="curve" smooth="yes"/>
      <point x="300" y="130"/>
      <point x="271" y="160"/>
      <point x="231" y="205" type="curve"/>
      <point x="287" y="255"/>
      <point x="352" y="307"/>
      <point x="401" y="336" type="curve"/>
      <point x="360" y="394" type="line"/>
      <point x="308" y="365"/>
      <point x="242" y="311"/>
      <point x="186" y="256" type="curve"/>
      <point x="150" y="302"/>
      <point x="118" y="352"/>
      <point x="96" y="391" type="curve"/>
      <point x="29" y="355" type="line"/>
      <point x="60" y="281"/>
      <point x="189" y="123"/>
      <point x="253" y="74" type="curve"/>
      <point x="253" y="72" type="line"/>
      <point x="222" y="74"/>
      <point x="142" y="76"/>
    </contour>
  </outline>
</glyph>
<glyph name="AlephMed.EEL" format="2">
  <advance width="370"/>
  <outline>
    <contour>
      <point x="155" y="76" type="curve"/>
      <point x="0" y="76" type="line" smooth="yes"/>
      <point x="-34" y="76"/>
      <point x="-43" y="57"/>
      <point x="-43" y="38" type="curve" smooth="yes"/>
      <point x="-43" y="19"/>
      <point x="-34" y="0"/>
      <point x="0" y="0" type="curve" smooth="yes"/>
      <point x="370" y="0" type="line"/>
      <point x="397" y="76" type="line"/>
      <point x="394" y="77"/>
      <point x="381" y="82"/>
      <point x="350" y="111" type="curve" smooth="yes"/>
      <point x="330" y="130"/>
      <point x="301" y="160"/>
      <point x="261" y="205" type="curve"/>
      <point x="317" y="255"/>
      <point x="382" y="307"/>
      <point x="431" y="336" type="curve"/>
      <point x="390" y="394" type="line"/>
      <point x="338" y="365"/>
      <point x="272" y="311"/>
      <point x="216" y="256" type="curve"/>
      <point x="180" y="302"/>
      <point x="148" y="352"/>
      <point x="126" y="391" type="curve"/>
      <point x="59" y="355" type="line"/>
      <point x="90" y="281"/>
      <point x="219" y="124"/>
      <point x="283" y="75" type="curve"/>
      <point x="283" y="72" type="line"/>
      <point x="252" y="74"/>
      <point x="172" y="76"/>
    </contour>
  </outline>
</glyph>
<glyph name="AlephMed.L" format="2">
  <advance width="456"/>
  <outline>
    <contour>
      <point x="0" y="0" type="curve" smooth="yes"/>
      <point x="456" y="0" type="line"/>
      <point x="456" y="76" type="line"/>
      <point x="390" y="76"/>
      <point x="363" y="104"/>
      <point x="265" y="209" type="curve"/>
      <point x="320" y="257"/>
      <point x="383" y="308"/>
      <point x="431" y="336" type="curve"/>
      <point x="390" y="394" type="line"/>
      <point x="339" y="366"/>
      <point x="274" y="313"/>
      <point x="218" y="259" type="curve"/>
      <point x="181" y="304"/>
      <point x="149" y="353"/>
      <point x="126" y="391" type="curve"/>
      <point x="60" y="353" type="line"/>
      <point x="93" y="280"/>
      <point x="206" y="132"/>
      <point x="291" y="78" type="curve"/>
      <point x="291" y="72" type="line"/>
      <point x="260" y="74"/>
      <point x="172" y="76"/>
      <point x="155" y="76" type="curve" smooth="yes"/>
      <point x="0" y="76" type="line" smooth="yes"/>
      <point x="-34" y="76"/>
      <point x="-43" y="57"/>
      <point x="-43" y="38" type="curve" smooth="yes"/>
      <point x="-43" y="19"/>
      <point x="-34" y="0"/>
    </contour>
  </outline>
</glyph>
<glyph name="AlephMed" format="2">
  <advance width="426"/>
  <outline>
    <contour>
      <point x="0" y="0" type="curve" smooth="yes"/>
      <point x="426" y="0" type="line"/>
      <point x="426" y="76" type="line"/>
      <point x="360" y="76"/>
      <point x="333" y="104"/>
      <point x="235" y="209" type="curve"/>
      <point x="290" y="257"/>
      <point x="353" y="308"/>
      <point x="401" y="336" type="curve"/>
      <point x="360" y="394" type="line"/>
      <point x="309" y="366"/>
      <point x="244" y="313"/>
      <point x="188" y="259" type="curve"/>
      <point x="151" y="304"/>
      <point x="119" y="353"/>
      <point x="96" y="391" type="curve"/>
      <point x="30" y="353" type="line"/>
      <point x="63" y="280"/>
      <point x="178" y="130"/>
      <point x="263" y="76" type="curve"/>
      <point x="263" y="72" type="line"/>
      <point x="232" y="74"/>
      <point x="142" y="76"/>
      <point x="125" y="76" type="curve" smooth="yes"/>
      <point x="0" y="76" type="line" smooth="yes"/>
      <point x="-34" y="76"/>
      <point x="-43" y="57"/>
      <point x="-43" y="38" type="curve" smooth="yes"/>
      <point x="-43" y="19"/>
      <point x="-34" y="0"/>
    </contour>
  </outline>
</glyph>
<glyph name="AlephMed.pe" format="2">
  <advance width="469"/>
  <outline>
    <contour>
      <point x="0" y="0" type="curve" smooth="yes"/>
      <point x="399" y="0" type="line"/>
      <point x="399" y="65" type="line"/>
      <point x="362" y="82"/>
      <point x="291" y="149"/>
      <point x="236" y="209" type="curve"/>
      <point x="290" y="258"/>
      <point x="353" y="308"/>
      <point x="401" y="336" type="curve"/>
      <point x="360" y="394" type="line"/>
      <point x="309" y="366"/>
      <point x="244" y="313"/>
      <point x="188" y="259" type="curve"/>
      <point x="154" y="297"/>
      <point x="120" y="348"/>
      <point x="96" y="391" type="curve"/>
      <point x="29" y="351" type="line"/>
      <point x="70" y="275"/>
      <point x="177" y="128"/>
      <point x="267" y="76" type="curve"/>
      <point x="267" y="72" type="line"/>
      <point x="236" y="74"/>
      <point x="146" y="76"/>
      <point x="129" y="76" type="curve" smooth="yes"/>
      <point x="0" y="76" type="line" smooth="yes"/>
      <point x="-34" y="76"/>
      <point x="-43" y="57"/>
      <point x="-43" y="38" type="curve" smooth="yes"/>
      <point x="-43" y="19"/>
      <point x="-34" y="0"/>
    </contour>
  </outline>
</glyph>
<glyph name="AyinFin.pe" format="2">
  <advance width="1218"/>
  <outline>
    <contour>
      <point x="1005" y="313" type="curve"/>
      <point x="1005" y="240" type="line"/>
      <point x="1061" y="240"/>
      <point x="1100" y="212"/>
      <point x="1100" y="162" type="curve" smooth="yes"/>
      <point x="1100" y="124"/>
      <point x="1079" y="73"/>
      <point x="1018" y="73" type="curve" smooth="yes"/>
      <point x="950" y="73"/>
      <point x="928" y="132"/>
      <point x="900" y="207" type="curve" smooth="yes"/>
      <point x="809" y="449"/>
      <point x="686" y="561"/>
      <point x="463" y="561" type="curve" smooth="yes"/>
      <point x="225" y="561"/>
      <point x="80" y="375"/>
      <point x="80" y="188" type="curve" smooth="yes"/>
      <point x="80" y="-11"/>
      <point x="193" y="-144"/>
      <point x="429" y="-144" type="curve" smooth="yes"/>
      <point x="658" y="-144"/>
      <point x="753" y="27"/>
      <point x="753" y="149" type="curve" smooth="yes"/>
      <point x="753" y="321"/>
      <point x="612" y="421"/>
      <point x="461" y="421" type="curve" smooth="yes"/>
      <point x="309" y="421"/>
      <point x="219" y="294"/>
      <point x="219" y="188" type="curve" smooth="yes"/>
      <point x="219" y="81"/>
      <point x="275" y="-7"/>
      <point x="432" y="-7" type="curve" smooth="yes"/>
      <point x="562" y="-7"/>
      <point x="614" y="85"/>
      <point x="614" y="150" type="curve" smooth="yes"/>
      <point x="614" y="233"/>
      <point x="553" y="282"/>
      <point x="465" y="282" type="curve" smooth="yes"/>
      <point x="430" y="282"/>
      <point x="350" y="248"/>
      <point x="348" y="170" type="curve"/>
      <point x="419" y="170" type="line"/>
      <point x="419" y="198"/>
      <point x="452" y="215"/>
      <point x="472" y="215" type="curve" smooth="yes"/>
      <point x="520" y="215"/>
      <point x="544" y="194"/>
      <point x="544" y="150" type="curve" smooth="yes"/>
      <point x="544" y="117"/>
      <point x="517" y="62"/>
      <point x="441" y="62" type="curve" smooth="yes"/>
      <point x="328" y="62"/>
      <point x="291" y="119"/>
      <point x="291" y="188" type="curve" smooth="yes"/>
      <point x="291" y="258"/>
      <point x="353" y="347"/>
      <point x="461" y="347" type="curve" smooth="yes"/>
      <point x="576" y="347"/>
      <point x="679" y="275"/>
      <point x="679" y="149" type="curve" smooth="yes"/>
      <point x="679" y="48"/>
      <point x="604" y="-70"/>
      <point x="429" y="-70" type="curve" smooth="yes"/>
      <point x="235" y="-70"/>
      <point x="155" y="37"/>
      <point x="155" y="188" type="curve" smooth="yes"/>
      <point x="155" y="337"/>
      <point x="269" y="487"/>
      <point x="463" y="487" type="curve" smooth="yes"/>
      <point x="658" y="487"/>
      <point x="763" y="385"/>
      <point x="833" y="167" type="curve" smooth="yes"/>
      <point x="864" y="71"/>
      <point x="906" y="0"/>
      <point x="1019" y="0" type="curve" smooth="yes"/>
      <point x="1141" y="0"/>
      <point x="1178" y="103"/>
      <point x="1178" y="165" type="curve" smooth="yes"/>
      <point x="1178" y="260"/>
      <point x="1101" y="313"/>
    </contour>
  </outline>
</glyph>
<glyph name="AyinIni" format="2">
  <advance width="1215"/>
  <outline>
    <contour>
      <point x="1002" y="240" type="line"/>
      <point x="1058" y="240"/>
      <point x="1097" y="212"/>
      <point x="1097" y="162" type="curve" smooth="yes"/>
      <point x="1097" y="124"/>
      <point x="1076" y="73"/>
      <point x="1015" y="73" type="curve" smooth="yes"/>
      <point x="947" y="73"/>
      <point x="925" y="132"/>
      <point x="898" y="205" type="curve" smooth="yes"/>
      <point x="809" y="446"/>
      <point x="683" y="561"/>
      <point x="460" y="561" type="curve" smooth="yes"/>
      <point x="222" y="561"/>
      <point x="77" y="375"/>
      <point x="77" y="188" type="curve" smooth="yes"/>
      <point x="77" y="149"/>
      <point x="81" y="113"/>
      <point x="89" y="80" type="curve"/>
      <point x="59" y="77"/>
      <point x="34" y="76"/>
      <point x="0" y="76" type="curve" smooth="yes"/>
      <point x="-36" y="76"/>
      <point x="-45" y="58"/>
      <point x="-45" y="38" type="curve" smooth="yes"/>
      <point x="-45" y="18"/>
      <point x="-36" y="0"/>
      <point x="0" y="0" type="curve" smooth="yes"/>
      <point x="30" y="0"/>
      <point x="70" y="0"/>
      <point x="118" y="7" type="curve"/>
      <point x="170" y="-87"/>
      <point x="272" y="-144"/>
      <point x="426" y="-144" type="curve" smooth="yes"/>
      <point x="655" y="-144"/>
      <point x="750" y="27"/>
      <point x="750" y="149" type="curve" smooth="yes"/>
      <point x="750" y="321"/>
      <point x="609" y="421"/>
      <point x="458" y="421" type="curve" smooth="yes"/>
      <point x="306" y="421"/>
      <point x="216" y="294"/>
      <point x="216" y="188" type="curve" smooth="yes"/>
      <point x="216" y="81"/>
      <point x="272" y="-7"/>
      <point x="429" y="-7" type="curve" smooth="yes"/>
      <point x="559" y="-7"/>
      <point x="611" y="85"/>
      <point x="611" y="150" type="curve" smooth="yes"/>
      <point x="611" y="233"/>
      <point x="550" y="282"/>
      <point x="462" y="282" type="curve" smooth="yes"/>
      <point x="427" y="282"/>
      <point x="347" y="248"/>
      <point x="345" y="170" type="curve"/>
      <point x="416" y="170" type="line"/>
      <point x="416" y="198"/>
      <point x="449" y="215"/>
      <point x="469" y="215" type="curve" smooth="yes"/>
      <point x="517" y="215"/>
      <point x="541" y="194"/>
      <point x="541" y="150" type="curve" smooth="yes"/>
      <point x="541" y="117"/>
      <point x="514" y="62"/>
      <point x="438" y="62" type="curve" smooth="yes"/>
      <point x="325" y="62"/>
      <point x="288" y="119"/>
      <point x="288" y="188" type="curve" smooth="yes"/>
      <point x="288" y="258"/>
      <point x="350" y="347"/>
      <point x="458" y="347" type="curve" smooth="yes"/>
      <point x="573" y="347"/>
      <point x="676" y="275"/>
      <point x="676" y="149" type="curve" smooth="yes"/>
      <point x="676" y="48"/>
      <point x="601" y="-70"/>
      <point x="426" y="-70" type="curve" smooth="yes"/>
      <point x="232" y="-70"/>
      <point x="152" y="37"/>
      <point x="152" y="188" type="curve" smooth="yes"/>
      <point x="152" y="337"/>
      <point x="266" y="487"/>
      <point x="460" y="487" type="curve" smooth="yes"/>
      <point x="655" y="487"/>
      <point x="760" y="385"/>
      <point x="830" y="167" type="curve" smooth="yes"/>
      <point x="861" y="71"/>
      <point x="903" y="0"/>
      <point x="1016" y="0" type="curve" smooth="yes"/>
      <point x="1138" y="0"/>
      <point x="1175" y="103"/>
      <point x="1175" y="165" type="curve" smooth="yes"/>
      <point x="1175" y="260"/>
      <point x="1098" y="313"/>
      <point x="1002" y="313" type="curve"/>
    </contour>
  </outline>
</glyph>
<glyph name="BethFin" format="2">
  <advance width="734"/>
  <outline>
    <contour>
      <point x="440" y="222" type="curve" smooth="yes"/>
      <point x="497" y="222"/>
      <point x="543" y="235"/>
      <point x="571" y="268" type="curve"/>
      <point x="575" y="248"/>
      <point x="579" y="201"/>
      <point x="579" y="186" type="curve" smooth="yes"/>
      <point x="579" y="113"/>
      <point x="568" y="76"/>
      <point x="486" y="76" type="curve" smooth="yes"/>
      <point x="50" y="76" type="line"/>
      <point x="50" y="0" type="line"/>
      <point x="474" y="0" type="line" smooth="yes"/>
      <point x="536" y="0"/>
      <point x="587" y="13"/>
      <point x="618" y="49" type="curve"/>
      <point x="633" y="23"/>
      <point x="667" y="0"/>
      <point x="734" y="0" type="curve"/>
      <point x="734" y="76" type="line"/>
      <point x="672" y="76"/>
      <point x="660" y="111"/>
      <point x="657" y="142" type="curve"/>
      <point x="658" y="150"/>
      <point x="658" y="159"/>
      <point x="658" y="168" type="curve" smooth="yes"/>
      <point x="658" y="225"/>
      <point x="644" y="308"/>
      <point x="627" y="382" type="curve"/>
      <point x="565" y="382" type="line"/>
      <point x="558" y="315"/>
      <point x="512" y="293"/>
      <point x="451" y="293" type="curve" smooth="yes"/>
      <point x="390" y="293"/>
      <point x="357" y="324"/>
      <point x="346" y="390" type="curve"/>
      <point x="276" y="375" type="line"/>
      <point x="281" y="252"/>
      <point x="369" y="222"/>
    </contour>
  </outline>
</glyph>
<glyph name="BethIni" format="2">
  <advance width="499"/>
  <outline>
    <contour>
      <point x="205" y="222" type="curve" smooth="yes"/>
      <point x="262" y="222"/>
      <point x="308" y="235"/>
      <point x="336" y="268" type="curve"/>
      <point x="340" y="248"/>
      <point x="344" y="201"/>
      <point x="344" y="186" type="curve" smooth="yes"/>
      <point x="344" y="113"/>
      <point x="333" y="76"/>
      <point x="251" y="76" type="curve" smooth="yes"/>
      <point x="0" y="76" type="line" smooth="yes"/>
      <point x="-34" y="76"/>
      <point x="-43" y="57"/>
      <point x="-43" y="38" type="curve" smooth="yes"/>
      <point x="-43" y="19"/>
      <point x="-34" y="0"/>
      <point x="0" y="0" type="curve" smooth="yes"/>
      <point x="248" y="0" type="line" smooth="yes"/>
      <point x="375" y="0"/>
      <point x="423" y="59"/>
      <point x="423" y="168" type="curve" smooth="yes"/>
      <point x="423" y="225"/>
      <point x="409" y="308"/>
      <point x="392" y="382" type="curve"/>
      <point x="330" y="382" type="line"/>
      <point x="323" y="315"/>
      <point x="277" y="293"/>
      <point x="216" y="293" type="curve" smooth="yes"/>
      <point x="155" y="293"/>
      <point x="122" y="324"/>
      <point x="111" y="390" type="curve"/>
      <point x="41" y="375" type="line"/>
      <point x="46" y="252"/>
      <point x="134" y="222"/>
    </contour>
  </outline>
</glyph>
<glyph name="FethFin.BB" format="2">
  <advance width="873"/>
  <outline>
    <contour>
      <point x="418" y="222" type="curve" smooth="yes"/>
      <point x="450" y="222"/>
      <point x="499" y="229"/>
      <point x="538" y="301" type="curve"/>
      <point x="573" y="228"/>
      <point x="622" y="222"/>
      <point x="654" y="222" type="curve" smooth="yes"/>
      <point x="686" y="222"/>
      <point x="718" y="237"/>
      <point x="736" y="275" type="curve"/>
      <point x="741" y="254"/>
      <point x="746" y="202"/>
      <point x="746" y="186" type="curve" smooth="yes"/>
      <point x="746" y="113"/>
      <point x="735" y="76"/>
      <point x="653" y="76" type="curve" smooth="yes"/>
      <point x="50" y="76" type="line"/>
      <point x="50" y="0" type="line"/>
      <point x="650" y="0" type="line" smooth="yes"/>
      <point x="717" y="0"/>
      <point x="759" y="17"/>
      <point x="785" y="49" type="curve"/>
      <point x="794" y="32"/>
      <point x="815" y="0"/>
      <point x="873" y="0" type="curve"/>
      <point x="873" y="76" type="line"/>
      <point x="844" y="76"/>
      <point x="825" y="101"/>
      <point x="825" y="168" type="curve" smooth="yes"/>
      <point x="825" y="225"/>
      <point x="811" y="308"/>
      <point x="794" y="382" type="curve"/>
      <point x="732" y="382" type="line"/>
      <point x="719" y="313"/>
      <point x="691" y="293"/>
      <point x="660" y="293" type="curve" smooth="yes"/>
      <point x="625" y="293"/>
      <point x="593" y="320"/>
      <point x="575" y="382" type="curve"/>
      <point x="513" y="382" type="line"/>
      <point x="492" y="329"/>
      <point x="463" y="293"/>
      <point x="428" y="293" type="curve" smooth="yes"/>
      <point x="397" y="293"/>
      <point x="370" y="317"/>
      <point x="355" y="390" type="curve"/>
      <point x="286" y="376" type="line"/>
      <point x="299" y="249"/>
      <point x="365" y="222"/>
    </contour>
  </outline>
</glyph>
<glyph name="FethFin" format="2">
  <advance width="900"/>
  <outline>
    <contour>
      <point x="418" y="222" type="curve" smooth="yes"/>
      <point x="450" y="222"/>
      <point x="499" y="229"/>
      <point x="538" y="301" type="curve"/>
      <point x="573" y="228"/>
      <point x="622" y="222"/>
      <point x="654" y="222" type="curve" smooth="yes"/>
      <point x="686" y="222"/>
      <point x="718" y="237"/>
      <point x="736" y="275" type="curve"/>
      <point x="741" y="254"/>
      <point x="746" y="202"/>
      <point x="746" y="186" type="curve" smooth="yes"/>
      <point x="746" y="113"/>
      <point x="735" y="76"/>
      <point x="653" y="76" type="curve" smooth="yes"/>
      <point x="50" y="76" type="line"/>
      <point x="50" y="0" type="line"/>
      <point x="650" y="0" type="line" smooth="yes"/>
      <point x="716" y="0"/>
      <point x="758" y="16"/>
      <point x="784" y="48" type="curve"/>
      <point x="800" y="23"/>
      <point x="834" y="0"/>
      <point x="900" y="0" type="curve"/>
      <point x="900" y="76" type="line"/>
      <point x="838" y="76"/>
      <point x="826" y="110"/>
      <point x="823" y="141" type="curve"/>
      <point x="824" y="150"/>
      <point x="825" y="159"/>
      <point x="825" y="168" type="curve" smooth="yes"/>
      <point x="825" y="225"/>
      <point x="811" y="308"/>
      <point x="794" y="382" type="curve"/>
      <point x="732" y="382" type="line"/>
      <point x="719" y="313"/>
      <point x="691" y="293"/>
      <point x="660" y="293" type="curve" smooth="yes"/>
      <point x="625" y="293"/>
      <point x="593" y="320"/>
      <point x="575" y="382" type="curve"/>
      <point x="513" y="382" type="line"/>
      <point x="492" y="329"/>
      <point x="463" y="293"/>
      <point x="428" y="293" type="curve" smooth="yes"/>
      <point x="397" y="293"/>
      <point x="370" y="317"/>
      <point x="355" y="390" type="curve"/>
      <point x="286" y="376" type="line"/>
      <point x="299" y="249"/>
      <point x="365" y="222"/>
    </contour>
  </outline>
</glyph>
<glyph name="FethFin.pe" format="2">
  <advance width="901"/>
  <outline>
    <contour>
      <point x="417" y="222" type="curve" smooth="yes"/>
      <point x="449" y="222"/>
      <point x="498" y="229"/>
      <point x="537" y="301" type="curve"/>
      <point x="572" y="228"/>
      <point x="621" y="222"/>
      <point x="653" y="222" type="curve" smooth="yes"/>
      <point x="685" y="222"/>
      <point x="717" y="237"/>
      <point x="735" y="275" type="curve"/>
      <point x="740" y="254"/>
      <point x="745" y="202"/>
      <point x="745" y="186" type="curve" smooth="yes"/>
      <point x="745" y="113"/>
      <point x="734" y="76"/>
      <point x="652" y="76" type="curve" smooth="yes"/>
      <point x="49" y="76" type="line"/>
      <point x="49" y="0" type="line"/>
      <point x="649" y="0" type="line" smooth="yes"/>
      <point x="776" y="0"/>
      <point x="824" y="59"/>
      <point x="824" y="168" type="curve" smooth="yes"/>
      <point x="824" y="225"/>
      <point x="810" y="308"/>
      <point x="793" y="382" type="curve"/>
      <point x="731" y="382" type="line"/>
      <point x="718" y="313"/>
      <point x="690" y="293"/>
      <point x="659" y="293" type="curve" smooth="yes"/>
      <point x="624" y="293"/>
      <point x="592" y="320"/>
      <point x="574" y="382" type="curve"/>
      <point x="512" y="382" type="line"/>
      <point x="491" y="329"/>
      <point x="462" y="293"/>
      <point x="427" y="293" type="curve" smooth="yes"/>
      <point x="396" y="293"/>
      <point x="369" y="317"/>
      <point x="354" y="390" type="curve"/>
      <point x="285" y="376" type="line"/>
      <point x="298" y="249"/>
      <point x="364" y="222"/>
    </contour>
  </outline>
</glyph>
<glyph name="FethIni" format="2">
  <advance width="655"/>
  <outline>
    <contour>
      <point x="172" y="222" type="curve" smooth="yes"/>
      <point x="204" y="222"/>
      <point x="253" y="229"/>
      <point x="292" y="301" type="curve"/>
      <point x="327" y="228"/>
      <point x="376" y="222"/>
      <point x="408" y="222" type="curve" smooth="yes"/>
      <point x="440" y="222"/>
      <point x="472" y="237"/>
      <point x="490" y="275" type="curve"/>
      <point x="495" y="254"/>
      <point x="500" y="202"/>
      <point x="500" y="186" type="curve" smooth="yes"/>
      <point x="500" y="113"/>
      <point x="489" y="76"/>
      <point x="407" y="76" type="curve" smooth="yes"/>
      <point x="0" y="76" type="line" smooth="yes"/>
      <point x="-34" y="76"/>
      <point x="-43" y="57"/>
      <point x="-43" y="38" type="curve" smooth="yes"/>
      <point x="-43" y="19"/>
      <point x="-34" y="0"/>
      <point x="0" y="0" type="curve" smooth="yes"/>
      <point x="404" y="0" type="line" smooth="yes"/>
      <point x="531" y="0"/>
      <point x="579" y="59"/>
      <point x="579" y="168" type="curve" smooth="yes"/>
      <point x="579" y="225"/>
      <point x="565" y="308"/>
      <point x="548" y="382" type="curve"/>
      <point x="486" y="382" type="line"/>
      <point x="473" y="313"/>
      <point x="445" y="293"/>
      <point x="414" y="293" type="curve" smooth="yes"/>
      <point x="379" y="293"/>
      <point x="347" y="320"/>
      <point x="329" y="382" type="curve"/>
      <point x="267" y="382" type="line"/>
      <point x="246" y="329"/>
      <point x="217" y="293"/>
      <point x="182" y="293" type="curve" smooth="yes"/>
      <point x="151" y="293"/>
      <point x="124" y="317"/>
      <point x="109" y="390" type="curve"/>
      <point x="40" y="376" type="line"/>
      <point x="53" y="249"/>
      <point x="119" y="222"/>
    </contour>
  </outline>
</glyph>
<glyph name="GimelFin.BB" format="2">
  <advance width="615"/>
  <outline>
    <contour>
      <point x="383" y="-30" type="curve" smooth="yes"/>
      <point x="457" y="-30"/>
      <point x="500" y="11"/>
      <point x="523" y="66" type="curve"/>
      <point x="538" y="25"/>
      <point x="563" y="0"/>
      <point x="615" y="0" type="curve"/>
      <point x="615" y="76" type="line"/>
      <point x="589" y="76"/>
      <point x="554" y="103"/>
      <point x="554" y="207" type="curve"/>
      <point x="557" y="233"/>
      <point x="558" y="260"/>
      <point x="559" y="287" type="curve" smooth="yes"/>
      <point x="560" y="313"/>
      <point x="560" y="358"/>
      <point x="560" y="382" type="curve"/>
      <point x="494" y="382" type="line"/>
      <point x="478" y="254" type="line" smooth="yes"/>
      <point x="461" y="118"/>
      <point x="446" y="45"/>
      <point x="392" y="45" type="curve" smooth="yes"/>
      <point x="338" y="45"/>
      <point x="317" y="116"/>
      <point x="289" y="269" type="curve" smooth="yes"/>
      <point x="268" y="382" type="line"/>
      <point x="215" y="382" type="line"/>
      <point x="45" y="129" type="line"/>
      <point x="81" y="65" type="line"/>
      <point x="90" y="65" type="line"/>
      <point x="213" y="249" type="line"/>
      <point x="221" y="178"/>
      <point x="236" y="104"/>
      <point x="255" y="63" type="curve" smooth="yes"/>
      <point x="277" y="17"/>
      <point x="302" y="-30"/>
    </contour>
  </outline>
</glyph>
<glyph name="GimelFin" format="2">
  <advance width="655"/>
  <outline>
    <contour>
      <point x="383" y="-30" type="curve" smooth="yes"/>
      <point x="458" y="-30"/>
      <point x="502" y="13"/>
      <point x="525" y="69" type="curve"/>
      <point x="546" y="26"/>
      <point x="590" y="0"/>
      <point x="655" y="0" type="curve"/>
      <point x="655" y="76" type="line"/>
      <point x="625" y="76"/>
      <point x="558" y="105"/>
      <point x="555" y="217" type="curve"/>
      <point x="557" y="240"/>
      <point x="558" y="263"/>
      <point x="559" y="287" type="curve" smooth="yes"/>
      <point x="560" y="313"/>
      <point x="560" y="358"/>
      <point x="560" y="382" type="curve"/>
      <point x="494" y="382" type="line"/>
      <point x="478" y="254" type="line" smooth="yes"/>
      <point x="461" y="118"/>
      <point x="446" y="45"/>
      <point x="392" y="45" type="curve" smooth="yes"/>
      <point x="338" y="45"/>
      <point x="317" y="116"/>
      <point x="289" y="269" type="curve" smooth="yes"/>
      <point x="268" y="382" type="line"/>
      <point x="215" y="382" type="line"/>
      <point x="45" y="129" type="line"/>
      <point x="81" y="65" type="line"/>
      <point x="90" y="65" type="line"/>
      <point x="213" y="249" type="line"/>
      <point x="221" y="178"/>
      <point x="236" y="104"/>
      <point x="255" y="63" type="curve" smooth="yes"/>
      <point x="277" y="17"/>
      <point x="302" y="-30"/>
    </contour>
  </outline>
</glyph>
<glyph name="GimelFin.pe" format="2">
  <advance width="638"/>
  <outline>
    <contour>
      <point x="45" y="129" type="line"/>
      <point x="81" y="65" type="line"/>
      <point x="90" y="65" type="line"/>
      <point x="217" y="255" type="line"/>
      <point x="224" y="187"/>
      <point x="236" y="123"/>
      <point x="256" y="81" type="curve" smooth="yes"/>
      <point x="278" y="35"/>
      <point x="302" y="-10"/>
      <point x="383" y="-10" type="curve" smooth="yes"/>
      <point x="471" y="-10"/>
      <point x="524" y="49"/>
      <point x="542" y="118" type="curve" smooth="yes"/>
      <point x="556" y="172"/>
      <point x="563" y="240"/>
      <point x="563" y="307" type="curve" smooth="yes"/>
      <point x="563" y="333"/>
      <point x="562" y="358"/>
      <point x="561" y="382" type="curve"/>
      <point x="495" y="382" type="line"/>
      <point x="480" y="271" type="line" smooth="yes"/>
      <point x="462" y="135"/>
      <point x="446" y="65"/>
      <point x="392" y="65" type="curve" smooth="yes"/>
      <point x="338" y="65"/>
      <point x="318" y="136"/>
      <point x="290" y="289" type="curve" smooth="yes"/>
      <point x="273" y="382" type="line"/>
      <point x="215" y="382" type="line"/>
    </contour>
  </outline>
</glyph>
<glyph name="GimelMed.BB" format="2">
  <advance width="503"/>
  <outline>
    <contour>
      <point x="271" y="-30" type="curve" smooth="yes"/>
      <point x="345" y="-30"/>
      <point x="388" y="11"/>
      <point x="411" y="66" type="curve"/>
      <point x="426" y="25"/>
      <point x="451" y="0"/>
      <point x="503" y="0" type="curve"/>
      <point x="503" y="76" type="line"/>
      <point x="477" y="76"/>
      <point x="442" y="103"/>
      <point x="442" y="207" type="curve"/>
      <point x="445" y="233"/>
      <point x="446" y="260"/>
      <point x="447" y="287" type="curve" smooth="yes"/>
      <point x="448" y="313"/>
      <point x="448" y="358"/>
      <point x="448" y="382" type="curve"/>
      <point x="382" y="382" type="line"/>
      <point x="366" y="254" type="line" smooth="yes"/>
      <point x="349" y="118"/>
      <point x="334" y="45"/>
      <point x="280" y="45" type="curve" smooth="yes"/>
      <point x="226" y="45"/>
      <point x="205" y="116"/>
      <point x="177" y="269" type="curve" smooth="yes"/>
      <point x="156" y="382" type="line"/>
      <point x="92" y="382" type="line"/>
      <point x="94" y="320"/>
      <point x="99" y="262"/>
      <point x="107" y="206" type="curve"/>
      <point x="107" y="200" type="line"/>
      <point x="107" y="116"/>
      <point x="63" y="76"/>
      <point x="0" y="76" type="curve" smooth="yes"/>
      <point x="-34" y="76"/>
      <point x="-43" y="57"/>
      <point x="-43" y="38" type="curve" smooth="yes"/>
      <point x="-43" y="19"/>
      <point x="-34" y="0"/>
      <point x="0" y="0" type="curve" smooth="yes"/>
      <point x="40" y="0"/>
      <point x="101" y="12"/>
      <point x="142" y="64" type="curve"/>
      <point x="175" y="-7"/>
      <point x="210" y="-30"/>
    </contour>
  </outline>
</glyph>
<glyph name="HeFin.EE" format="2">
  <advance width="958"/>
  <outline>
    <contour>
      <point x="161" y="0" type="curve" smooth="yes"/>
      <point x="713" y="0" type="line" smooth="yes"/>
      <point x="789" y="0"/>
      <point x="838" y="22"/>
      <point x="871" y="59" type="curve"/>
      <point x="886" y="23"/>
      <point x="911" y="0"/>
      <point x="958" y="0" type="curve"/>
      <point x="969" y="76" type="line"/>
      <point x="944" y="76"/>
      <point x="920" y="88"/>
      <point x="912" y="142" type="curve"/>
      <point x="913" y="144"/>
      <point x="913" y="147"/>
      <point x="913" y="149" type="curve" smooth="yes"/>
      <point x="913" y="177"/>
      <point x="912" y="221"/>
      <point x="904" y="244" type="curve"/>
      <point x="847" y="244" type="line"/>
      <point x="834" y="190" type="line" smooth="yes"/>
      <point x="819" y="128"/>
      <point x="795" y="76"/>
      <point x="713" y="76" type="curve" smooth="yes"/>
      <point x="163" y="76" type="line" smooth="yes"/>
      <point x="159" y="76"/>
      <point x="158" y="82"/>
      <point x="158" y="87" type="curve" smooth="yes"/>
      <point x="158" y="97"/>
      <point x="164" y="111"/>
      <point x="174" y="131" type="curve" smooth="yes"/>
      <point x="185" y="154" type="line" smooth="yes"/>
      <point x="234" y="257"/>
      <point x="262" y="304"/>
      <point x="370" y="305" type="curve" smooth="yes"/>
      <point x="767" y="309" type="line"/>
      <point x="772" y="382" type="line"/>
      <point x="383" y="382" type="line" smooth="yes"/>
      <point x="231" y="382"/>
      <point x="178" y="312"/>
      <point x="119" y="200" type="curve" smooth="yes"/>
      <point x="96" y="156"/>
      <point x="72" y="106"/>
      <point x="72" y="71" type="curve" smooth="yes"/>
      <point x="72" y="36"/>
      <point x="89" y="0"/>
    </contour>
  </outline>
</glyph>
<glyph name="HeFin" format="2">
  <advance width="1018"/>
  <outline>
    <contour>
      <point x="161" y="0" type="curve" smooth="yes"/>
      <point x="713" y="0" type="line" smooth="yes"/>
      <point x="792" y="0"/>
      <point x="841" y="24"/>
      <point x="875" y="63" type="curve"/>
      <point x="896" y="33"/>
      <point x="936" y="0"/>
      <point x="1018" y="0" type="curve"/>
      <point x="1018" y="76" type="line"/>
      <point x="968" y="76"/>
      <point x="925" y="102"/>
      <point x="913" y="154" type="curve"/>
      <point x="913" y="182"/>
      <point x="911" y="222"/>
      <point x="904" y="244" type="curve"/>
      <point x="847" y="244" type="line"/>
      <point x="834" y="190" type="line" smooth="yes"/>
      <point x="819" y="128"/>
      <point x="795" y="76"/>
      <point x="713" y="76" type="curve" smooth="yes"/>
      <point x="163" y="76" type="line" smooth="yes"/>
      <point x="159" y="76"/>
      <point x="158" y="82"/>
      <point x="158" y="87" type="curve" smooth="yes"/>
      <point x="158" y="97"/>
      <point x="164" y="111"/>
      <point x="174" y="131" type="curve" smooth="yes"/>
      <point x="185" y="154" type="line" smooth="yes"/>
      <point x="234" y="257"/>
      <point x="263" y="304"/>
      <point x="371" y="305" type="curve" smooth="yes"/>
      <point x="767" y="309" type="line"/>
      <point x="772" y="382" type="line"/>
      <point x="383" y="382" type="line" smooth="yes"/>
      <point x="231" y="382"/>
      <point x="178" y="312"/>
      <point x="119" y="200" type="curve" smooth="yes"/>
      <point x="96" y="156"/>
      <point x="72" y="106"/>
      <point x="72" y="71" type="curve" smooth="yes"/>
      <point x="72" y="36"/>
      <point x="89" y="0"/>
    </contour>
  </outline>
</glyph>
<glyph name="HethFin.BB" format="2">
  <advance width="743"/>
  <outline>
    <contour>
      <point x="362" y="138" type="curve"/>
      <point x="365" y="138" type="line"/>
      <point x="385" y="48"/>
      <point x="410" y="-30"/>
      <point x="511" y="-30" type="curve" smooth="yes"/>
      <point x="585" y="-30"/>
      <point x="628" y="11"/>
      <point x="651" y="66" type="curve"/>
      <point x="666" y="25"/>
      <point x="691" y="0"/>
      <point x="743" y="0" type="curve"/>
      <point x="743" y="76" type="line"/>
      <point x="717" y="76"/>
      <point x="682" y="103"/>
      <point x="682" y="207" type="curve"/>
      <point x="685" y="233"/>
      <point x="686" y="260"/>
      <point x="687" y="287" type="curve" smooth="yes"/>
      <point x="688" y="313"/>
      <point x="688" y="358"/>
      <point x="688" y="382" type="curve"/>
      <point x="622" y="382" type="line"/>
      <point x="606" y="254" type="line" smooth="yes"/>
      <point x="589" y="118"/>
      <point x="574" y="45"/>
      <point x="520" y="45" type="curve" smooth="yes"/>
      <point x="466" y="45"/>
      <point x="445" y="116"/>
      <point x="417" y="269" type="curve" smooth="yes"/>
      <point x="396" y="382" type="line"/>
      <point x="338" y="382" type="line"/>
      <point x="315" y="194"/>
      <point x="296" y="76"/>
      <point x="230" y="76" type="curve" smooth="yes"/>
      <point x="172" y="76"/>
      <point x="169" y="139"/>
      <point x="164" y="262" type="curve" smooth="yes"/>
      <point x="162" y="309"/>
      <point x="162" y="529"/>
      <point x="162" y="674" type="curve"/>
      <point x="89" y="674" type="line"/>
      <point x="85" y="564"/>
      <point x="80" y="373"/>
      <point x="80" y="246" type="curve" smooth="yes"/>
      <point x="80" y="74"/>
      <point x="114" y="0"/>
      <point x="217" y="0" type="curve" smooth="yes"/>
      <point x="277" y="0"/>
      <point x="342" y="36"/>
    </contour>
  </outline>
</glyph>
<glyph name="HethFin.alt03" format="2">
  <advance width="853"/>
  <outline>
    <contour>
      <point x="581" y="-30" type="curve" smooth="yes"/>
      <point x="656" y="-30"/>
      <point x="700" y="13"/>
      <point x="723" y="69" type="curve"/>
      <point x="744" y="26"/>
      <point x="788" y="0"/>
      <point x="853" y="0" type="curve"/>
      <point x="853" y="76" type="line"/>
      <point x="823" y="76"/>
      <point x="756" y="105"/>
      <point x="753" y="217" type="curve"/>
      <point x="755" y="240"/>
      <point x="756" y="263"/>
      <point x="757" y="287" type="curve" smooth="yes"/>
      <point x="758" y="313"/>
      <point x="758" y="358"/>
      <point x="758" y="382" type="curve"/>
      <point x="692" y="382" type="line"/>
      <point x="676" y="254" type="line" smooth="yes"/>
      <point x="659" y="118"/>
      <point x="644" y="45"/>
      <point x="590" y="45" type="curve" smooth="yes"/>
      <point x="536" y="45"/>
      <point x="515" y="116"/>
      <point x="487" y="269" type="curve" smooth="yes"/>
      <point x="466" y="382" type="line"/>
      <point x="402" y="382" type="line"/>
      <point x="404" y="322"/>
      <point x="410" y="266"/>
      <point x="417" y="211" type="curve"/>
      <point x="415" y="119"/>
      <point x="332" y="76"/>
      <point x="231" y="76" type="curve" smooth="yes"/>
      <point x="50" y="76" type="line"/>
      <point x="50" y="0" type="line"/>
      <point x="205" y="0" type="line" smooth="yes"/>
      <point x="240" y="0"/>
      <point x="295" y="3"/>
      <point x="336" y="15" type="curve" smooth="yes"/>
      <point x="379" y="28"/>
      <point x="421" y="50"/>
      <point x="444" y="86" type="curve"/>
      <point x="471" y="17"/>
      <point x="500" y="-30"/>
    </contour>
  </outline>
</glyph>
<glyph name="HethFin.alt03BB" format="2">
  <advance width="813"/>
  <outline>
    <contour>
      <point x="581" y="-30" type="curve" smooth="yes"/>
      <point x="655" y="-30"/>
      <point x="698" y="11"/>
      <point x="721" y="66" type="curve"/>
      <point x="736" y="25"/>
      <point x="761" y="0"/>
      <point x="813" y="0" type="curve"/>
      <point x="813" y="76" type="line"/>
      <point x="787" y="76"/>
      <point x="752" y="103"/>
      <point x="752" y="207" type="curve"/>
      <point x="755" y="233"/>
      <point x="756" y="260"/>
      <point x="757" y="287" type="curve" smooth="yes"/>
      <point x="758" y="313"/>
      <point x="758" y="358"/>
      <point x="758" y="382" type="curve"/>
      <point x="692" y="382" type="line"/>
      <point x="676" y="254" type="line" smooth="yes"/>
      <point x="659" y="118"/>
      <point x="644" y="45"/>
      <point x="590" y="45" type="curve" smooth="yes"/>
      <point x="536" y="45"/>
      <point x="515" y="116"/>
      <point x="487" y="269" type="curve" smooth="yes"/>
      <point x="466" y="382" type="line"/>
      <point x="402" y="382" type="line"/>
      <point x="403" y="322"/>
      <point x="409" y="266"/>
      <point x="417" y="211" type="curve"/>
      <point x="415" y="119"/>
      <point x="332" y="76"/>
      <point x="231" y="76" type="curve" smooth="yes"/>
      <point x="50" y="76" type="line"/>
      <point x="50" y="0" type="line"/>
      <point x="205" y="0" type="line" smooth="yes"/>
      <point x="240" y="0"/>
      <point x="294" y="3"/>
      <point x="336" y="15" type="curve" smooth="yes"/>
      <point x="379" y="27"/>
      <point x="421" y="50"/>
      <point x="444" y="86" type="curve"/>
      <point x="473" y="15"/>
      <point x="500" y="-30"/>
    </contour>
  </outline>
</glyph>
<glyph name="HethFin" format="2">
  <advance width="783"/>
  <outline>
    <contour>
      <point x="361" y="138" type="curve"/>
      <point x="365" y="138" type="line"/>
      <point x="372" y="107"/>
      <point x="378" y="82"/>
      <point x="386" y="63" type="curve" smooth="yes"/>
      <point x="405" y="20"/>
      <point x="430" y="-30"/>
      <point x="511" y="-30" type="curve" smooth="yes"/>
      <point x="586" y="-30"/>
      <point x="630" y="13"/>
      <point x="653" y="69" type="curve"/>
      <point x="674" y="26"/>
      <point x="718" y="0"/>
      <point x="783" y="0" type="curve"/>
      <point x="783" y="76" type="line"/>
      <point x="753" y="76"/>
      <point x="686" y="105"/>
      <point x="683" y="217" type="curve"/>
      <point x="685" y="240"/>
      <point x="686" y="263"/>
      <point x="687" y="287" type="curve" smooth="yes"/>
      <point x="688" y="313"/>
      <point x="688" y="358"/>
      <point x="688" y="382" type="curve"/>
      <point x="622" y="382" type="line"/>
      <point x="606" y="254" type="line" smooth="yes"/>
      <point x="589" y="118"/>
      <point x="574" y="45"/>
      <point x="520" y="45" type="curve" smooth="yes"/>
      <point x="466" y="45"/>
      <point x="445" y="116"/>
      <point x="417" y="269" type="curve" smooth="yes"/>
      <point x="396" y="382" type="line"/>
      <point x="338" y="382" type="line"/>
      <point x="315" y="194"/>
      <point x="296" y="76"/>
      <point x="230" y="76" type="curve" smooth="yes"/>
      <point x="172" y="76"/>
      <point x="169" y="139"/>
      <point x="164" y="262" type="curve" smooth="yes"/>
      <point x="162" y="309"/>
      <point x="162" y="529"/>
      <point x="162" y="674" type="curve"/>
      <point x="89" y="674" type="line"/>
      <point x="85" y="564"/>
      <point x="80" y="373"/>
      <point x="80" y="246" type="curve" smooth="yes"/>
      <point x="80" y="74"/>
      <point x="114" y="0"/>
      <point x="217" y="0" type="curve" smooth="yes"/>
      <point x="277" y="0"/>
      <point x="341" y="35"/>
    </contour>
  </outline>
</glyph>
<glyph name="HethFin.pe" format="2">
  <advance width="766"/>
  <outline>
    <contour>
      <point x="362" y="139" type="curve"/>
      <point x="365" y="139" type="line"/>
      <point x="384" y="53"/>
      <point x="422" y="-10"/>
      <point x="511" y="-10" type="curve" smooth="yes"/>
      <point x="599" y="-10"/>
      <point x="652" y="49"/>
      <point x="670" y="118" type="curve" smooth="yes"/>
      <point x="684" y="172"/>
      <point x="691" y="240"/>
      <point x="691" y="307" type="curve" smooth="yes"/>
      <point x="691" y="333"/>
      <point x="690" y="358"/>
      <point x="689" y="382" type="curve"/>
      <point x="623" y="382" type="line"/>
      <point x="608" y="271" type="line" smooth="yes"/>
      <point x="590" y="135"/>
      <point x="574" y="65"/>
      <point x="520" y="65" type="curve" smooth="yes"/>
      <point x="466" y="65"/>
      <point x="441" y="136"/>
      <point x="413" y="289" type="curve" smooth="yes"/>
      <point x="396" y="382" type="line"/>
      <point x="338" y="382" type="line"/>
      <point x="315" y="194"/>
      <point x="296" y="76"/>
      <point x="230" y="76" type="curve" smooth="yes"/>
      <point x="172" y="76"/>
      <point x="169" y="139"/>
      <point x="164" y="262" type="curve" smooth="yes"/>
      <point x="162" y="309"/>
      <point x="162" y="529"/>
      <point x="162" y="674" type="curve"/>
      <point x="89" y="674" type="line"/>
      <point x="85" y="564"/>
      <point x="80" y="373"/>
      <point x="80" y="246" type="curve" smooth="yes"/>
      <point x="80" y="74"/>
      <point x="114" y="0"/>
      <point x="217" y="0" type="curve" smooth="yes"/>
      <point x="277" y="0"/>
      <point x="341" y="38"/>
    </contour>
  </outline>
</glyph>
<glyph name="HethMed" format="2">
  <advance width="543"/>
  <outline>
    <contour>
      <point x="271" y="-30" type="curve" smooth="yes"/>
      <point x="346" y="-30"/>
      <point x="390" y="13"/>
      <point x="413" y="69" type="curve"/>
      <point x="434" y="26"/>
      <point x="478" y="0"/>
      <point x="543" y="0" type="curve"/>
      <point x="543" y="76" type="line"/>
      <point x="513" y="76"/>
      <point x="446" y="105"/>
      <point x="443" y="217" type="curve"/>
      <point x="445" y="240"/>
      <point x="446" y="263"/>
      <point x="447" y="287" type="curve" smooth="yes"/>
      <point x="448" y="313"/>
      <point x="448" y="358"/>
      <point x="448" y="382" type="curve"/>
      <point x="382" y="382" type="line"/>
      <point x="366" y="254" type="line" smooth="yes"/>
      <point x="349" y="118"/>
      <point x="334" y="45"/>
      <point x="280" y="45" type="curve" smooth="yes"/>
      <point x="226" y="45"/>
      <point x="205" y="116"/>
      <point x="177" y="269" type="curve" smooth="yes"/>
      <point x="156" y="382" type="line"/>
      <point x="92" y="382" type="line"/>
      <point x="94" y="320"/>
      <point x="100" y="262"/>
      <point x="107" y="206" type="curve"/>
      <point x="107" y="200" type="line" smooth="yes"/>
      <point x="107" y="116"/>
      <point x="63" y="76"/>
      <point x="0" y="76" type="curve" smooth="yes"/>
      <point x="-34" y="76"/>
      <point x="-43" y="57"/>
      <point x="-43" y="38" type="curve" smooth="yes"/>
      <point x="-43" y="19"/>
      <point x="-34" y="0"/>
      <point x="0" y="0" type="curve" smooth="yes"/>
      <point x="40" y="0"/>
      <point x="101" y="12"/>
      <point x="142" y="64" type="curve"/>
      <point x="174" y="-5"/>
      <point x="207" y="-30"/>
    </contour>
  </outline>
</glyph>
<glyph name="HethMed.pe" format="2">
  <advance width="523"/>
  <outline>
    <contour>
      <point x="271" y="-30" type="curve" smooth="yes"/>
      <point x="359" y="-30"/>
      <point x="404" y="29"/>
      <point x="423" y="98" type="curve" smooth="yes"/>
      <point x="438" y="152"/>
      <point x="445" y="218"/>
      <point x="447" y="287" type="curve" smooth="yes"/>
      <point x="448" y="313"/>
      <point x="448" y="358"/>
      <point x="448" y="382" type="curve"/>
      <point x="382" y="382" type="line"/>
      <point x="366" y="254" type="line" smooth="yes"/>
      <point x="349" y="118"/>
      <point x="334" y="45"/>
      <point x="280" y="45" type="curve" smooth="yes"/>
      <point x="226" y="45"/>
      <point x="205" y="116"/>
      <point x="177" y="269" type="curve" smooth="yes"/>
      <point x="156" y="382" type="line"/>
      <point x="92" y="382" type="line"/>
      <point x="94" y="320"/>
      <point x="99" y="262"/>
      <point x="107" y="206" type="curve"/>
      <point x="107" y="200" type="line"/>
      <point x="107" y="116"/>
      <point x="63" y="76"/>
      <point x="0" y="76" type="curve" smooth="yes"/>
      <point x="-34" y="76"/>
      <point x="-43" y="57"/>
      <point x="-43" y="38" type="curve" smooth="yes"/>
      <point x="-43" y="19"/>
      <point x="-34" y="0"/>
      <point x="0" y="0" type="curve" smooth="yes"/>
      <point x="40" y="0"/>
      <point x="101" y="12"/>
      <point x="142" y="64" type="curve"/>
      <point x="174" y="-6"/>
      <point x="211" y="-30"/>
    </contour>
  </outline>
</glyph>
<glyph name="KaphFin.EE" format="2">
  <advance width="597"/>
  <outline>
    <contour>
      <point x="597" y="0" type="curve"/>
      <point x="608" y="76" type="line"/>
      <point x="593" y="77"/>
      <point x="582" y="80"/>
      <point x="572" y="84" type="curve"/>
      <point x="619" y="200"/>
      <point x="639" y="321"/>
      <point x="644" y="382" type="curve"/>
      <point x="570" y="382" type="line"/>
      <point x="562" y="310"/>
      <point x="541" y="210"/>
      <point x="507" y="122" type="curve"/>
      <point x="426" y="187"/>
      <point x="365" y="303"/>
      <point x="334" y="386" type="curve"/>
      <point x="262" y="354" type="line"/>
      <point x="297" y="250"/>
      <point x="375" y="121"/>
      <point x="472" y="49" type="curve"/>
      <point x="425" y="-34"/>
      <point x="374" y="-73"/>
      <point x="309" y="-73" type="curve" smooth="yes"/>
      <point x="225" y="-73"/>
      <point x="163" y="-41"/>
      <point x="158" y="167" type="curve" smooth="yes"/>
      <point x="157" y="214"/>
      <point x="156" y="529"/>
      <point x="156" y="674" type="curve"/>
      <point x="82" y="674" type="line"/>
      <point x="79" y="564"/>
      <point x="74" y="283"/>
      <point x="74" y="156" type="curve" smooth="yes"/>
      <point x="74" y="-119"/>
      <point x="188" y="-156"/>
      <point x="301" y="-156" type="curve" smooth="yes"/>
      <point x="408" y="-156"/>
      <point x="486" y="-83"/>
      <point x="539" y="13" type="curve"/>
      <point x="556" y="5"/>
      <point x="574" y="0"/>
    </contour>
  </outline>
</glyph>
<glyph name="KaphFin.alt04" format="2">
  <advance width="708"/>
  <outline>
    <contour>
      <point x="708" y="0" type="curve"/>
      <point x="708" y="76" type="line"/>
      <point x="676" y="76"/>
      <point x="620" y="80"/>
      <point x="572" y="123" type="curve"/>
      <point x="615" y="182"/>
      <point x="656" y="266"/>
      <point x="656" y="382" type="curve"/>
      <point x="583" y="382" type="line"/>
      <point x="578" y="305"/>
      <point x="557" y="227"/>
      <point x="513" y="171" type="curve"/>
      <point x="446" y="239"/>
      <point x="391" y="341"/>
      <point x="373" y="386" type="curve"/>
      <point x="303" y="352" type="line"/>
      <point x="328" y="279"/>
      <point x="387" y="192"/>
      <point x="454" y="123" type="curve"/>
      <point x="399" y="88"/>
      <point x="311" y="76"/>
      <point x="203" y="76" type="curve" smooth="yes"/>
      <point x="50" y="76" type="line"/>
      <point x="50" y="0" type="line"/>
      <point x="183" y="0" type="line" smooth="yes"/>
      <point x="319" y="0"/>
      <point x="435" y="21"/>
      <point x="508" y="67" type="curve"/>
      <point x="589" y="5"/>
      <point x="658" y="0"/>
    </contour>
  </outline>
</glyph>
<glyph name="KaphFin.alt04EE" format="2">
  <advance width="608"/>
  <outline>
    <contour>
      <point x="608" y="0" type="curve"/>
      <point x="619" y="76" type="line"/>
      <point x="602" y="76"/>
      <point x="587" y="78"/>
      <point x="559" y="108" type="curve"/>
      <point x="564" y="113"/>
      <point x="568" y="118"/>
      <point x="574" y="126" type="curve" smooth="yes"/>
      <point x="616" y="184"/>
      <point x="656" y="268"/>
      <point x="656" y="382" type="curve"/>
      <point x="583" y="382" type="line"/>
      <point x="578" y="302"/>
      <point x="557" y="220"/>
      <point x="507" y="162" type="curve"/>
      <point x="443" y="233"/>
      <point x="391" y="342"/>
      <point x="373" y="386" type="curve"/>
      <point x="303" y="352" type="line"/>
      <point x="327" y="281"/>
      <point x="384" y="189"/>
      <point x="446" y="118" type="curve"/>
      <point x="390" y="87"/>
      <point x="305" y="76"/>
      <point x="203" y="76" type="curve" smooth="yes"/>
      <point x="50" y="76" type="line"/>
      <point x="50" y="0" type="line"/>
      <point x="183" y="0" type="line" smooth="yes"/>
      <point x="310" y="0"/>
      <point x="420" y="18"/>
      <point x="494" y="59" type="curve"/>
      <point x="534" y="15"/>
      <point x="571" y="0"/>
    </contour>
  </outline>
</glyph>
<glyph name="KaphFin.alt04pe" format="2">
  <advance width="706"/>
  <outline>
    <contour>
      <point x="656" y="375" type="curve" smooth="yes"/>
      <point x="656" y="382" type="line"/>
      <point x="586" y="382" type="line"/>
      <point x="582" y="330"/>
      <point x="577" y="283"/>
      <point x="565" y="244" type="curve"/>
      <point x="445" y="272"/>
      <point x="397" y="328"/>
      <point x="382" y="395" type="curve"/>
      <point x="380" y="395" type="line"/>
      <point x="319" y="374" type="line"/>
      <point x="318" y="369"/>
      <point x="318" y="364"/>
      <point x="318" y="359" type="curve" smooth="yes"/>
      <point x="318" y="311"/>
      <point x="342" y="273"/>
      <point x="376" y="244" type="curve" smooth="yes"/>
      <point x="405" y="219"/>
      <point x="459" y="189"/>
      <point x="537" y="169" type="curve"/>
      <point x="528" y="147"/>
      <point x="513" y="131"/>
      <point x="484" y="112" type="curve" smooth="yes"/>
      <point x="439" y="83"/>
      <point x="377" y="76"/>
      <point x="289" y="76" type="curve" smooth="yes"/>
      <point x="50" y="76" type="line"/>
      <point x="50" y="0" type="line"/>
      <point x="298" y="0" type="line" smooth="yes"/>
      <point x="420" y="0"/>
      <point x="495" y="27"/>
      <point x="536" y="56" type="curve" smooth="yes"/>
      <point x="582" y="88"/>
      <point x="613" y="131"/>
      <point x="631" y="191" type="curve" smooth="yes"/>
      <point x="646" y="240"/>
      <point x="656" y="300"/>
    </contour>
  </outline>
</glyph>
<glyph name="KaphFin" format="2">
  <advance width="695"/>
  <outline>
    <contour>
      <point x="695" y="0" type="curve"/>
      <point x="695" y="76" type="line"/>
      <point x="676" y="76"/>
      <point x="620" y="79"/>
      <point x="578" y="99" type="curve"/>
      <point x="621" y="210"/>
      <point x="639" y="324"/>
      <point x="644" y="382" type="curve"/>
      <point x="570" y="382" type="line"/>
      <point x="562" y="312"/>
      <point x="543" y="217"/>
      <point x="511" y="131" type="curve"/>
      <point x="432" y="185"/>
      <point x="369" y="295"/>
      <point x="334" y="386" type="curve"/>
      <point x="262" y="354" type="line"/>
      <point x="289" y="246"/>
      <point x="388" y="108"/>
      <point x="477" y="57" type="curve"/>
      <point x="428" y="-32"/>
      <point x="376" y="-73"/>
      <point x="309" y="-73" type="curve" smooth="yes"/>
      <point x="225" y="-73"/>
      <point x="163" y="-41"/>
      <point x="158" y="167" type="curve" smooth="yes"/>
      <point x="157" y="214"/>
      <point x="156" y="529"/>
      <point x="156" y="674" type="curve"/>
      <point x="82" y="674" type="line"/>
      <point x="79" y="564"/>
      <point x="74" y="283"/>
      <point x="74" y="156" type="curve" smooth="yes"/>
      <point x="74" y="-119"/>
      <point x="188" y="-156"/>
      <point x="301" y="-156" type="curve" smooth="yes"/>
      <point x="413" y="-156"/>
      <point x="494" y="-75"/>
      <point x="547" y="28" type="curve"/>
      <point x="605" y="4"/>
      <point x="665" y="0"/>
    </contour>
  </outline>
</glyph>
<glyph name="KaphFin.pe" format="2">
  <advance width="729"/>
  <outline>
    <contour>
      <point x="331" y="-57" type="curve" smooth="yes"/>
      <point x="241" y="-57"/>
      <point x="168" y="-19"/>
      <point x="164" y="205" type="curve" smooth="yes"/>
      <point x="163" y="252"/>
      <point x="162" y="529"/>
      <point x="162" y="674" type="curve"/>
      <point x="89" y="674" type="line"/>
      <point x="85" y="564"/>
      <point x="80" y="319"/>
      <point x="80" y="192" type="curve" smooth="yes"/>
      <point x="80" y="-99"/>
      <point x="208" y="-140"/>
      <point x="328" y="-140" type="curve" smooth="yes"/>
      <point x="408" y="-140"/>
      <point x="471" y="-105"/>
      <point x="517" y="-53" type="curve" smooth="yes"/>
      <point x="615" y="58"/>
      <point x="652" y="243"/>
      <point x="662" y="382" type="curve"/>
      <point x="586" y="382" type="line"/>
      <point x="580" y="332"/>
      <point x="570" y="256"/>
      <point x="553" y="193" type="curve"/>
      <point x="419" y="225"/>
      <point x="369" y="304"/>
      <point x="353" y="389" type="curve"/>
      <point x="285" y="377" type="line"/>
      <point x="284" y="370"/>
      <point x="284" y="368"/>
      <point x="284" y="361" type="curve" smooth="yes"/>
      <point x="284" y="304"/>
      <point x="310" y="249"/>
      <point x="352" y="209" type="curve" smooth="yes"/>
      <point x="390" y="172"/>
      <point x="439" y="139"/>
      <point x="526" y="117" type="curve"/>
      <point x="491" y="26"/>
      <point x="428" y="-57"/>
    </contour>
  </outline>
</glyph>
<glyph name="KaphIni.cut1" format="2">
  <advance width="486"/>
  <outline>
    <contour>
      <point x="-15" y="-310" type="curve" smooth="yes"/>
      <point x="179" y="-310"/>
      <point x="300" y="-122"/>
      <point x="370" y="76" type="curve" smooth="yes"/>
      <point x="404" y="171"/>
      <point x="426" y="276"/>
      <point x="431" y="382" type="curve"/>
      <point x="356" y="382" type="line"/>
      <point x="350" y="309"/>
      <point x="338" y="251"/>
      <point x="320" y="190" type="curve"/>
      <point x="187" y="223"/>
      <point x="127" y="302"/>
      <point x="112" y="386" type="curve"/>
      <point x="44" y="374" type="line"/>
      <point x="43" y="367"/>
      <point x="43" y="365"/>
      <point x="43" y="358" type="curve" smooth="yes"/>
      <point x="43" y="301"/>
      <point x="69" y="246"/>
      <point x="111" y="206" type="curve" smooth="yes"/>
      <point x="149" y="169"/>
      <point x="207" y="136"/>
      <point x="295" y="114" type="curve"/>
      <point x="234" y="-60"/>
      <point x="142" y="-224"/>
      <point x="-7" y="-224" type="curve" smooth="yes"/>
      <point x="-106" y="-224"/>
      <point x="-181" y="-183"/>
      <point x="-187" y="-5" type="curve"/>
      <point x="-254" y="-87" type="line"/>
      <point x="-230" y="-262"/>
      <point x="-127" y="-310"/>
    </contour>
  </outline>
</glyph>
<glyph name="KaphIni.short" format="2">
  <advance width="486"/>
  <outline>
    <contour>
      <point x="5" y="-310" type="curve" smooth="yes"/>
      <point x="199" y="-310"/>
      <point x="300" y="-122"/>
      <point x="370" y="76" type="curve" smooth="yes"/>
      <point x="404" y="171"/>
      <point x="426" y="276"/>
      <point x="431" y="382" type="curve"/>
      <point x="356" y="382" type="line"/>
      <point x="350" y="309"/>
      <point x="338" y="251"/>
      <point x="320" y="190" type="curve"/>
      <point x="187" y="223"/>
      <point x="127" y="302"/>
      <point x="112" y="386" type="curve"/>
      <point x="44" y="374" type="line"/>
      <point x="43" y="367"/>
      <point x="43" y="365"/>
      <point x="43" y="358" type="curve" smooth="yes"/>
      <point x="43" y="301"/>
      <point x="69" y="246"/>
      <point x="111" y="206" type="curve" smooth="yes"/>
      <point x="149" y="169"/>
      <point x="207" y="136"/>
      <point x="295" y="114" type="curve"/>
      <point x="235" y="-60"/>
      <point x="162" y="-224"/>
      <point x="13" y="-224" type="curve" smooth="yes"/>
      <point x="-61" y="-224"/>
      <point x="-137" y="-179"/>
      <point x="-137" y="20" type="curve" smooth="yes"/>
      <point x="-137" y="40" type="line"/>
      <point x="-206" y="40" type="line"/>
      <point x="-209" y="14"/>
      <point x="-209" y="-5"/>
      <point x="-209" y="-10" type="curve" smooth="yes"/>
      <point x="-209" y="-252"/>
      <point x="-105" y="-310"/>
    </contour>
  </outline>
</glyph>
<glyph name="KaphMed.EE" format="2">
  <advance width="364"/>
  <outline>
    <contour>
      <point x="364" y="0" type="curve"/>
      <point x="375" y="76" type="line"/>
      <point x="365" y="76"/>
      <point x="357" y="78"/>
      <point x="350" y="80" type="curve"/>
      <point x="381" y="168"/>
      <point x="405" y="277"/>
      <point x="410" y="382" type="curve"/>
      <point x="335" y="382" type="line"/>
      <point x="327" y="287"/>
      <point x="307" y="178"/>
      <point x="286" y="126" type="curve" smooth="yes"/>
      <point x="282" y="115" type="line"/>
      <point x="196" y="180"/>
      <point x="127" y="301"/>
      <point x="91" y="386" type="curve"/>
      <point x="19" y="353" type="line"/>
      <point x="58" y="244"/>
      <point x="149" y="108"/>
      <point x="254" y="39" type="curve"/>
      <point x="195" y="-106"/>
      <point x="116" y="-224"/>
      <point x="3" y="-224" type="curve" smooth="yes"/>
      <point x="-106" y="-224"/>
      <point x="-187" y="-179"/>
      <point x="-187" y="20" type="curve" smooth="yes"/>
      <point x="-187" y="52" type="line"/>
      <point x="-256" y="37" type="line"/>
      <point x="-259" y="11"/>
      <point x="-259" y="-1"/>
      <point x="-259" y="-6" type="curve" smooth="yes"/>
      <point x="-259" y="-248"/>
      <point x="-138" y="-310"/>
      <point x="-5" y="-310" type="curve" smooth="yes"/>
      <point x="155" y="-310"/>
      <point x="253" y="-164"/>
      <point x="322" y="6" type="curve"/>
      <point x="335" y="2"/>
      <point x="348" y="0"/>
    </contour>
  </outline>
</glyph>
<glyph name="KaphMed.cut1" format="2">
  <advance width="460"/>
  <outline>
    <contour>
      <point x="-187" y="-5" type="curve"/>
      <point x="-254" y="-87" type="line"/>
      <point x="-231" y="-260"/>
      <point x="-123" y="-310"/>
      <point x="-5" y="-310" type="curve" smooth="yes"/>
      <point x="160" y="-310"/>
      <point x="259" y="-155"/>
      <point x="328" y="21" type="curve"/>
      <point x="378" y="1"/>
      <point x="424" y="0"/>
      <point x="460" y="0" type="curve"/>
      <point x="460" y="76" type="line"/>
      <point x="433" y="76"/>
      <point x="394" y="77"/>
      <point x="355" y="93" type="curve"/>
      <point x="383" y="179"/>
      <point x="405" y="282"/>
      <point x="410" y="382" type="curve"/>
      <point x="335" y="382" type="line"/>
      <point x="327" y="287"/>
      <point x="307" y="179"/>
      <point x="286" y="127" type="curve"/>
      <point x="183" y="195"/>
      <point x="130" y="301"/>
      <point x="91" y="386" type="curve"/>
      <point x="19" y="354" type="line"/>
      <point x="41" y="287"/>
      <point x="125" y="119"/>
      <point x="257" y="47" type="curve"/>
      <point x="198" y="-101"/>
      <point x="118" y="-224"/>
      <point x="3" y="-224" type="curve" smooth="yes"/>
      <point x="-102" y="-224"/>
      <point x="-181" y="-179"/>
    </contour>
  </outline>
</glyph>
<glyph name="KaphMed.cut2" format="2">
  <advance width="480"/>
  <outline>
    <contour>
      <point x="-173" y="-102" type="curve"/>
      <point x="-242" y="-142" type="line"/>
      <point x="-204" y="-273"/>
      <point x="-109" y="-310"/>
      <point x="-5" y="-310" type="curve" smooth="yes"/>
      <point x="169" y="-310"/>
      <point x="277" y="-155"/>
      <point x="348" y="21" type="curve"/>
      <point x="398" y="1"/>
      <point x="444" y="0"/>
      <point x="480" y="0" type="curve"/>
      <point x="480" y="76" type="line"/>
      <point x="453" y="76"/>
      <point x="414" y="77"/>
      <point x="375" y="93" type="curve"/>
      <point x="403" y="179"/>
      <point x="425" y="282"/>
      <point x="430" y="382" type="curve"/>
      <point x="355" y="382" type="line"/>
      <point x="347" y="287"/>
      <point x="327" y="179"/>
      <point x="306" y="127" type="curve"/>
      <point x="203" y="195"/>
      <point x="150" y="301"/>
      <point x="111" y="386" type="curve"/>
      <point x="39" y="354" type="line"/>
      <point x="60" y="287"/>
      <point x="145" y="119"/>
      <point x="277" y="48" type="curve"/>
      <point x="215" y="-101"/>
      <point x="127" y="-224"/>
      <point x="3" y="-224" type="curve" smooth="yes"/>
      <point x="-79" y="-224"/>
      <point x="-145" y="-199"/>
    </contour>
  </outline>
</glyph>
<glyph name="KaphMed.cut2EE" format="2">
  <advance width="384"/>
  <outline>
    <contour>
      <point x="384" y="0" type="curve"/>
      <point x="395" y="76" type="line"/>
      <point x="385" y="76"/>
      <point x="377" y="78"/>
      <point x="370" y="80" type="curve"/>
      <point x="401" y="168"/>
      <point x="425" y="277"/>
      <point x="430" y="382" type="curve"/>
      <point x="355" y="382" type="line"/>
      <point x="347" y="287"/>
      <point x="327" y="178"/>
      <point x="302" y="115" type="curve"/>
      <point x="216" y="180"/>
      <point x="147" y="301"/>
      <point x="111" y="386" type="curve"/>
      <point x="39" y="353" type="line"/>
      <point x="78" y="244"/>
      <point x="169" y="108"/>
      <point x="273" y="39" type="curve"/>
      <point x="212" y="-106"/>
      <point x="124" y="-224"/>
      <point x="3" y="-224" type="curve" smooth="yes"/>
      <point x="-79" y="-224"/>
      <point x="-145" y="-199"/>
      <point x="-173" y="-102" type="curve"/>
      <point x="-242" y="-142" type="line"/>
      <point x="-204" y="-273"/>
      <point x="-109" y="-310"/>
      <point x="-5" y="-310" type="curve" smooth="yes"/>
      <point x="164" y="-310"/>
      <point x="271" y="-163"/>
      <point x="342" y="7" type="curve"/>
      <point x="355" y="3"/>
      <point x="368" y="0"/>
    </contour>
  </outline>
</glyph>
<glyph name="KaphMed.cut3" format="2">
  <advance width="480"/>
  <outline>
    <contour>
      <point x="-61" y="-226" type="curve" smooth="yes"/>
      <point x="-211" y="-226"/>
      <point x="-285" y="-133"/>
      <point x="-285" y="-17" type="curve" smooth="yes"/>
      <point x="-285" y="75"/>
      <point x="-252" y="153"/>
      <point x="-184" y="199" type="curve"/>
      <point x="-219" y="249" type="line"/>
      <point x="-319" y="179"/>
      <point x="-369" y="67"/>
      <point x="-369" y="-36" type="curve" smooth="yes"/>
      <point x="-369" y="-185"/>
      <point x="-270" y="-310"/>
      <point x="-66" y="-310" type="curve" smooth="yes"/>
      <point x="165" y="-310"/>
      <point x="282" y="-155"/>
      <point x="350" y="20" type="curve"/>
      <point x="399" y="1"/>
      <point x="444" y="0"/>
      <point x="480" y="0" type="curve"/>
      <point x="480" y="76" type="line"/>
      <point x="453" y="76"/>
      <point x="414" y="77"/>
      <point x="376" y="92" type="curve"/>
      <point x="403" y="179"/>
      <point x="425" y="281"/>
      <point x="430" y="382" type="curve"/>
      <point x="355" y="382" type="line"/>
      <point x="349" y="298"/>
      <point x="331" y="196"/>
      <point x="306" y="127" type="curve"/>
      <point x="203" y="195"/>
      <point x="150" y="301"/>
      <point x="111" y="386" type="curve"/>
      <point x="39" y="354" type="line"/>
      <point x="60" y="287"/>
      <point x="145" y="119"/>
      <point x="277" y="48" type="curve"/>
      <point x="215" y="-101"/>
      <point x="121" y="-226"/>
    </contour>
  </outline>
</glyph>
<glyph name="KaphMed.cut3EE" format="2">
  <advance width="384"/>
  <outline>
    <contour>
      <point x="384" y="0" type="curve"/>
      <point x="395" y="76" type="line"/>
      <point x="386" y="76"/>
      <point x="379" y="77"/>
      <point x="372" y="79" type="curve"/>
      <point x="401" y="170"/>
      <point x="425" y="276"/>
      <point x="430" y="382" type="curve"/>
      <point x="355" y="382" type="line"/>
      <point x="349" y="298"/>
      <point x="331" y="195"/>
      <point x="302" y="115" type="curve"/>
      <point x="216" y="180"/>
      <point x="147" y="301"/>
      <point x="111" y="386" type="curve"/>
      <point x="39" y="353" type="line"/>
      <point x="78" y="244"/>
      <point x="169" y="108"/>
      <point x="273" y="39" type="curve"/>
      <point x="212" y="-106"/>
      <point x="117" y="-226"/>
      <point x="-61" y="-226" type="curve" smooth="yes"/>
      <point x="-211" y="-226"/>
      <point x="-285" y="-133"/>
      <point x="-285" y="-17" type="curve" smooth="yes"/>
      <point x="-285" y="75"/>
      <point x="-252" y="153"/>
      <point x="-184" y="199" type="curve"/>
      <point x="-219" y="249" type="line"/>
      <point x="-319" y="179"/>
      <point x="-369" y="67"/>
      <point x="-369" y="-36" type="curve" smooth="yes"/>
      <point x="-369" y="-185"/>
      <point x="-270" y="-310"/>
      <point x="-66" y="-310" type="curve" smooth="yes"/>
      <point x="159" y="-310"/>
      <point x="276" y="-163"/>
      <point x="345" y="6" type="curve"/>
      <point x="356" y="2"/>
      <point x="369" y="0"/>
    </contour>
  </outline>
</glyph>
<glyph name="KaphMed" format="2">
  <advance width="460"/>
  <outline>
    <contour>
      <point x="-5" y="-310" type="curve" smooth="yes"/>
      <point x="160" y="-310"/>
      <point x="259" y="-155"/>
      <point x="328" y="21" type="curve"/>
      <point x="378" y="1"/>
      <point x="424" y="0"/>
      <point x="460" y="0" type="curve"/>
      <point x="460" y="76" type="line"/>
      <point x="433" y="76"/>
      <point x="394" y="77"/>
      <point x="355" y="93" type="curve"/>
      <point x="383" y="179"/>
      <point x="405" y="282"/>
      <point x="410" y="382" type="curve"/>
      <point x="335" y="382" type="line"/>
      <point x="327" y="287"/>
      <point x="307" y="179"/>
      <point x="286" y="127" type="curve"/>
      <point x="183" y="195"/>
      <point x="130" y="301"/>
      <point x="91" y="386" type="curve"/>
      <point x="19" y="354" type="line"/>
      <point x="41" y="287"/>
      <point x="125" y="119"/>
      <point x="257" y="47" type="curve"/>
      <point x="198" y="-101"/>
      <point x="118" y="-224"/>
      <point x="3" y="-224" type="curve" smooth="yes"/>
      <point x="-106" y="-224"/>
      <point x="-187" y="-179"/>
      <point x="-187" y="20" type="curve" smooth="yes"/>
      <point x="-187" y="52" type="line"/>
      <point x="-256" y="37" type="line"/>
      <point x="-259" y="11"/>
      <point x="-259" y="-1"/>
      <point x="-259" y="-6" type="curve" smooth="yes"/>
      <point x="-259" y="-248"/>
      <point x="-138" y="-310"/>
    </contour>
  </outline>
</glyph>
<glyph name="KaphMed.ligaF" format="2">
  <advance width="481"/>
  <outline>
    <contour>
      <point x="-325" y="-17" type="curve"/>
      <point x="-397" y="-67" type="line"/>
      <point x="-334" y="-198"/>
      <point x="-218" y="-273"/>
      <point x="-62" y="-273" type="curve" smooth="yes"/>
      <point x="151" y="-273"/>
      <point x="275" y="-149"/>
      <point x="349" y="21" type="curve"/>
      <point x="399" y="1"/>
      <point x="445" y="0"/>
      <point x="481" y="0" type="curve"/>
      <point x="481" y="76" type="line"/>
      <point x="454" y="76"/>
      <point x="415" y="77"/>
      <point x="376" y="93" type="curve"/>
      <point x="404" y="179"/>
      <point x="426" y="282"/>
      <point x="431" y="382" type="curve"/>
      <point x="356" y="382" type="line"/>
      <point x="348" y="287"/>
      <point x="328" y="179"/>
      <point x="307" y="127" type="curve"/>
      <point x="204" y="195"/>
      <point x="151" y="301"/>
      <point x="112" y="386" type="curve"/>
      <point x="40" y="354" type="line"/>
      <point x="61" y="287"/>
      <point x="145" y="120"/>
      <point x="276" y="48" type="curve"/>
      <point x="213" y="-92"/>
      <point x="113" y="-188"/>
      <point x="-55" y="-188" type="curve" smooth="yes"/>
      <point x="-197" y="-188"/>
      <point x="-279" y="-117"/>
    </contour>
  </outline>
</glyph>
<glyph name="KaphMed.ligaFEE" format="2">
  <advance width="385"/>
  <outline>
    <contour>
      <point x="385" y="0" type="curve"/>
      <point x="396" y="76" type="line"/>
      <point x="386" y="76"/>
      <point x="378" y="78"/>
      <point x="371" y="80" type="curve"/>
      <point x="402" y="168"/>
      <point x="426" y="277"/>
      <point x="431" y="382" type="curve"/>
      <point x="356" y="382" type="line"/>
      <point x="348" y="287"/>
      <point x="328" y="178"/>
      <point x="303" y="115" type="curve"/>
      <point x="217" y="180"/>
      <point x="148" y="301"/>
      <point x="112" y="386" type="curve"/>
      <point x="40" y="353" type="line"/>
      <point x="79" y="244"/>
      <point x="169" y="110"/>
      <point x="273" y="40" type="curve"/>
      <point x="209" y="-96"/>
      <point x="110" y="-188"/>
      <point x="-55" y="-188" type="curve" smooth="yes"/>
      <point x="-197" y="-188"/>
      <point x="-279" y="-117"/>
      <point x="-325" y="-17" type="curve"/>
      <point x="-397" y="-67" type="line"/>
      <point x="-334" y="-198"/>
      <point x="-218" y="-273"/>
      <point x="-62" y="-273" type="curve" smooth="yes"/>
      <point x="146" y="-273"/>
      <point x="268" y="-156"/>
      <point x="342" y="7" type="curve"/>
      <point x="355" y="2"/>
      <point x="369" y="0"/>
    </contour>
  </outline>
</glyph>
<glyph name="KaphMed.ligaM" format="2">
  <advance width="480"/>
  <outline>
    <contour>
      <point x="-98" y="-301" type="curve" smooth="yes"/>
      <point x="152" y="-301"/>
      <point x="275" y="-154"/>
      <point x="348" y="21" type="curve"/>
      <point x="398" y="1"/>
      <point x="444" y="0"/>
      <point x="480" y="0" type="curve"/>
      <point x="480" y="76" type="line"/>
      <point x="453" y="76"/>
      <point x="414" y="77"/>
      <point x="375" y="93" type="curve"/>
      <point x="403" y="179"/>
      <point x="425" y="282"/>
      <point x="430" y="382" type="curve"/>
      <point x="355" y="382" type="line"/>
      <point x="347" y="287"/>
      <point x="327" y="179"/>
      <point x="306" y="127" type="curve"/>
      <point x="203" y="195"/>
      <point x="150" y="301"/>
      <point x="111" y="386" type="curve"/>
      <point x="39" y="354" type="line"/>
      <point x="60" y="287"/>
      <point x="144" y="120"/>
      <point x="276" y="48" type="curve"/>
      <point x="211" y="-99"/>
      <point x="103" y="-216"/>
      <point x="-91" y="-216" type="curve" smooth="yes"/>
      <point x="-195" y="-216"/>
      <point x="-344" y="-160"/>
      <point x="-363" y="43" type="curve"/>
      <point x="-446" y="40" type="line"/>
      <point x="-431" y="-193"/>
      <point x="-273" y="-301"/>
    </contour>
  </outline>
</glyph>
<glyph name="KaphMed.ligaMEE" format="2">
  <advance width="384"/>
  <outline>
    <contour>
      <point x="384" y="0" type="curve"/>
      <point x="395" y="76" type="line"/>
      <point x="385" y="76"/>
      <point x="377" y="78"/>
      <point x="370" y="80" type="curve"/>
      <point x="401" y="168"/>
      <point x="425" y="277"/>
      <point x="430" y="382" type="curve"/>
      <point x="355" y="382" type="line"/>
      <point x="347" y="287"/>
      <point x="327" y="178"/>
      <point x="302" y="115" type="curve"/>
      <point x="216" y="180"/>
      <point x="147" y="301"/>
      <point x="111" y="386" type="curve"/>
      <point x="39" y="353" type="line"/>
      <point x="78" y="244"/>
      <point x="168" y="109"/>
      <point x="272" y="40" type="curve"/>
      <point x="207" y="-103"/>
      <point x="100" y="-216"/>
      <point x="-91" y="-216" type="curve" smooth="yes"/>
      <point x="-195" y="-216"/>
      <point x="-344" y="-160"/>
      <point x="-363" y="43" type="curve"/>
      <point x="-446" y="40" type="line"/>
      <point x="-431" y="-193"/>
      <point x="-273" y="-301"/>
      <point x="-98" y="-301" type="curve" smooth="yes"/>
      <point x="145" y="-301"/>
      <point x="268" y="-161"/>
      <point x="342" y="7" type="curve"/>
      <point x="354" y="2"/>
      <point x="368" y="0"/>
    </contour>
  </outline>
</glyph>
<glyph name="KaphMed.pecut3" format="2">
  <advance width="486"/>
  <outline>
    <contour>
      <point x="-61" y="-226" type="curve" smooth="yes"/>
      <point x="-211" y="-226"/>
      <point x="-285" y="-133"/>
      <point x="-285" y="-17" type="curve" smooth="yes"/>
      <point x="-285" y="75"/>
      <point x="-252" y="153"/>
      <point x="-184" y="199" type="curve"/>
      <point x="-219" y="249" type="line"/>
      <point x="-319" y="179"/>
      <point x="-369" y="67"/>
      <point x="-369" y="-36" type="curve" smooth="yes"/>
      <point x="-369" y="-185"/>
      <point x="-270" y="-310"/>
      <point x="-66" y="-310" type="curve" smooth="yes"/>
      <point x="192" y="-310"/>
      <point x="307" y="-118"/>
      <point x="372" y="80" type="curve" smooth="yes"/>
      <point x="401" y="170"/>
      <point x="425" y="276"/>
      <point x="430" y="382" type="curve"/>
      <point x="355" y="382" type="line"/>
      <point x="349" y="305"/>
      <point x="338" y="240"/>
      <point x="324" y="189" type="curve"/>
      <point x="188" y="221"/>
      <point x="128" y="301"/>
      <point x="112" y="386" type="curve"/>
      <point x="44" y="374" type="line"/>
      <point x="43" y="367"/>
      <point x="43" y="365"/>
      <point x="43" y="358" type="curve" smooth="yes"/>
      <point x="43" y="301"/>
      <point x="69" y="246"/>
      <point x="111" y="206" type="curve" smooth="yes"/>
      <point x="150" y="168"/>
      <point x="210" y="134"/>
      <point x="301" y="112" type="curve"/>
      <point x="240" y="-64"/>
      <point x="146" y="-226"/>
    </contour>
  </outline>
</glyph>
<glyph name="KaphMed.peligaF" format="2">
  <advance width="485"/>
  <outline>
    <contour>
      <point x="-325" y="-17" type="curve"/>
      <point x="-397" y="-67" type="line"/>
      <point x="-334" y="-198"/>
      <point x="-218" y="-273"/>
      <point x="-62" y="-273" type="curve" smooth="yes"/>
      <point x="174" y="-273"/>
      <point x="302" y="-122"/>
      <point x="372" y="76" type="curve" smooth="yes"/>
      <point x="403" y="165"/>
      <point x="426" y="276"/>
      <point x="431" y="382" type="curve"/>
      <point x="356" y="382" type="line"/>
      <point x="350" y="316"/>
      <point x="339" y="244"/>
      <point x="326" y="189" type="curve"/>
      <point x="189" y="221"/>
      <point x="129" y="301"/>
      <point x="113" y="386" type="curve"/>
      <point x="45" y="374" type="line"/>
      <point x="44" y="367"/>
      <point x="44" y="365"/>
      <point x="44" y="358" type="curve" smooth="yes"/>
      <point x="44" y="301"/>
      <point x="70" y="246"/>
      <point x="112" y="206" type="curve" smooth="yes"/>
      <point x="151" y="168"/>
      <point x="211" y="134"/>
      <point x="302" y="112" type="curve"/>
      <point x="241" y="-62"/>
      <point x="138" y="-188"/>
      <point x="-55" y="-188" type="curve" smooth="yes"/>
      <point x="-197" y="-188"/>
      <point x="-279" y="-117"/>
    </contour>
  </outline>
</glyph>
<glyph name="KaphMed.peligaM" format="2">
  <advance width="484"/>
  <outline>
    <contour>
      <point x="-98" y="-301" type="curve" smooth="yes"/>
      <point x="178" y="-301"/>
      <point x="301" y="-122"/>
      <point x="371" y="76" type="curve" smooth="yes"/>
      <point x="402" y="165"/>
      <point x="425" y="276"/>
      <point x="430" y="382" type="curve"/>
      <point x="355" y="382" type="line"/>
      <point x="349" y="316"/>
      <point x="338" y="244"/>
      <point x="325" y="189" type="curve"/>
      <point x="188" y="221"/>
      <point x="128" y="301"/>
      <point x="112" y="386" type="curve"/>
      <point x="44" y="374" type="line"/>
      <point x="43" y="367"/>
      <point x="43" y="365"/>
      <point x="43" y="358" type="curve" smooth="yes"/>
      <point x="43" y="301"/>
      <point x="69" y="246"/>
      <point x="111" y="206" type="curve" smooth="yes"/>
      <point x="150" y="168"/>
      <point x="210" y="134"/>
      <point x="301" y="112" type="curve"/>
      <point x="239" y="-64"/>
      <point x="131" y="-216"/>
      <point x="-91" y="-216" type="curve" smooth="yes"/>
      <point x="-195" y="-216"/>
      <point x="-344" y="-160"/>
      <point x="-363" y="43" type="curve"/>
      <point x="-446" y="40" type="line"/>
      <point x="-431" y="-193"/>
      <point x="-273" y="-301"/>
    </contour>
  </outline>
</glyph>
<glyph name="KaphMed.short" format="2">
  <advance width="470"/>
  <outline>
    <contour>
      <point x="15" y="-310" type="curve" smooth="yes"/>
      <point x="179" y="-310"/>
      <point x="275" y="-157"/>
      <point x="343" y="18" type="curve"/>
      <point x="391" y="1"/>
      <point x="435" y="0"/>
      <point x="470" y="0" type="curve"/>
      <point x="470" y="76" type="line"/>
      <point x="443" y="76"/>
      <point x="404" y="77"/>
      <point x="365" y="93" type="curve"/>
      <point x="393" y="179"/>
      <point x="415" y="282"/>
      <point x="420" y="382" type="curve"/>
      <point x="345" y="382" type="line"/>
      <point x="337" y="291"/>
      <point x="317" y="180"/>
      <point x="298" y="125" type="curve"/>
      <point x="194" y="193"/>
      <point x="140" y="301"/>
      <point x="101" y="386" type="curve"/>
      <point x="29" y="354" type="line"/>
      <point x="51" y="286"/>
      <point x="136" y="117"/>
      <point x="269" y="46" type="curve"/>
      <point x="220" y="-96"/>
      <point x="137" y="-224"/>
      <point x="23" y="-224" type="curve" smooth="yes"/>
      <point x="-56" y="-224"/>
      <point x="-137" y="-185"/>
      <point x="-137" y="14" type="curve" smooth="yes"/>
      <point x="-137" y="40" type="line"/>
      <point x="-206" y="40" type="line"/>
      <point x="-209" y="14"/>
      <point x="-209" y="-7"/>
      <point x="-209" y="-12" type="curve" smooth="yes"/>
      <point x="-209" y="-254"/>
      <point x="-89" y="-310"/>
    </contour>
  </outline>
</glyph>
<glyph name="KaphMed.shortEE" format="2">
  <advance width="374"/>
  <outline>
    <contour>
      <point x="374" y="0" type="curve"/>
      <point x="385" y="76" type="line"/>
      <point x="375" y="76"/>
      <point x="367" y="78"/>
      <point x="360" y="80" type="curve"/>
      <point x="391" y="168"/>
      <point x="415" y="277"/>
      <point x="420" y="382" type="curve"/>
      <point x="345" y="382" type="line"/>
      <point x="337" y="285"/>
      <point x="314" y="168"/>
      <point x="295" y="114" type="curve"/>
      <point x="207" y="178"/>
      <point x="137" y="300"/>
      <point x="101" y="386" type="curve"/>
      <point x="29" y="353" type="line"/>
      <point x="68" y="243"/>
      <point x="160" y="106"/>
      <point x="266" y="37" type="curve"/>
      <point x="216" y="-101"/>
      <point x="135" y="-224"/>
      <point x="23" y="-224" type="curve" smooth="yes"/>
      <point x="-56" y="-224"/>
      <point x="-137" y="-185"/>
      <point x="-137" y="14" type="curve" smooth="yes"/>
      <point x="-137" y="40" type="line"/>
      <point x="-206" y="40" type="line"/>
      <point x="-209" y="14"/>
      <point x="-209" y="-7"/>
      <point x="-209" y="-12" type="curve" smooth="yes"/>
      <point x="-209" y="-254"/>
      <point x="-89" y="-310"/>
      <point x="15" y="-310" type="curve" smooth="yes"/>
      <point x="175" y="-310"/>
      <point x="270" y="-164"/>
      <point x="338" y="5" type="curve"/>
      <point x="348" y="2"/>
      <point x="360" y="0"/>
    </contour>
  </outline>
</glyph>
<glyph name="LamedhFin" format="2">
  <advance width="544"/>
  <outline>
    <contour>
      <point x="50" y="0" type="line"/>
      <point x="264" y="0" type="line" smooth="yes"/>
      <point x="335" y="0"/>
      <point x="410" y="11"/>
      <point x="437" y="59" type="curve"/>
      <point x="470" y="7"/>
      <point x="504" y="0"/>
      <point x="544" y="0" type="curve"/>
      <point x="544" y="76" type="line"/>
      <point x="526" y="76"/>
      <point x="512" y="96"/>
      <point x="492" y="125" type="curve" smooth="yes"/>
      <point x="446" y="192"/>
      <point x="273" y="521"/>
      <point x="180" y="715" type="curve"/>
      <point x="108" y="679" type="line"/>
      <point x="164" y="547"/>
      <point x="345" y="199"/>
      <point x="390" y="123" type="curve"/>
      <point x="388" y="98"/>
      <point x="361" y="76"/>
      <point x="264" y="76" type="curve" smooth="yes"/>
      <point x="50" y="76" type="line"/>
    </contour>
  </outline>
</glyph>
<glyph name="LamedhFin.hook" format="2">
  <advance width="544"/>
  <outline>
    <contour>
      <point x="115" y="738" type="curve" smooth="yes"/>
      <point x="84" y="738"/>
      <point x="59" y="719"/>
      <point x="16" y="676" type="curve" smooth="yes"/>
      <point x="-43" y="617" type="line"/>
      <point x="-3" y="568" type="line"/>
      <point x="106" y="669" type="line"/>
      <point x="110" y="669"/>
      <point x="115" y="661"/>
      <point x="132" y="625" type="curve" smooth="yes"/>
      <point x="205" y="471"/>
      <point x="350" y="190"/>
      <point x="390" y="123" type="curve"/>
      <point x="388" y="98"/>
      <point x="361" y="76"/>
      <point x="264" y="76" type="curve" smooth="yes"/>
      <point x="50" y="76" type="line"/>
      <point x="50" y="0" type="line"/>
      <point x="264" y="0" type="line" smooth="yes"/>
      <point x="335" y="0"/>
      <point x="410" y="11"/>
      <point x="437" y="59" type="curve"/>
      <point x="470" y="7"/>
      <point x="504" y="0"/>
      <point x="544" y="0" type="curve"/>
      <point x="544" y="76" type="line"/>
      <point x="527" y="76"/>
      <point x="512" y="96"/>
      <point x="492" y="125" type="curve" smooth="yes"/>
      <point x="449" y="188"/>
      <point x="293" y="485"/>
      <point x="195" y="680" type="curve" smooth="yes"/>
      <point x="171" y="728"/>
      <point x="146" y="738"/>
    </contour>
  </outline>
</glyph>
<glyph name="LamedhIni.hook" format="2">
  <advance width="312"/>
  <outline>
    <contour>
      <point x="238" y="204" type="curve" smooth="yes"/>
      <point x="-9" y="680" type="line" smooth="yes"/>
      <point x="-34" y="728"/>
      <point x="-58" y="738"/>
      <point x="-89" y="738" type="curve" smooth="yes"/>
      <point x="-120" y="738"/>
      <point x="-145" y="719"/>
      <point x="-188" y="676" type="curve" smooth="yes"/>
      <point x="-247" y="617" type="line"/>
      <point x="-207" y="568" type="line"/>
      <point x="-98" y="669" type="line"/>
      <point x="-94" y="669"/>
      <point x="-89" y="661"/>
      <point x="-71" y="625" type="curve" smooth="yes"/>
      <point x="-15" y="512"/>
      <point x="91" y="305"/>
      <point x="157" y="174" type="curve" smooth="yes"/>
      <point x="163" y="162"/>
      <point x="172" y="140"/>
      <point x="172" y="121" type="curve" smooth="yes"/>
      <point x="172" y="101"/>
      <point x="160" y="76"/>
      <point x="68" y="76" type="curve" smooth="yes"/>
      <point x="0" y="76" type="line" smooth="yes"/>
      <point x="-34" y="76"/>
      <point x="-43" y="57"/>
      <point x="-43" y="38" type="curve" smooth="yes"/>
      <point x="-43" y="19"/>
      <point x="-34" y="0"/>
      <point x="0" y="0" type="curve" smooth="yes"/>
      <point x="45" y="0" type="line" smooth="yes"/>
      <point x="145" y="0"/>
      <point x="262" y="9"/>
      <point x="262" y="123" type="curve" smooth="yes"/>
      <point x="262" y="145"/>
      <point x="255" y="172"/>
    </contour>
  </outline>
</glyph>
<glyph name="LamedhIni.hookwide" format="2">
  <advance width="357"/>
  <outline>
    <contour>
      <point x="283" y="204" type="curve" smooth="yes"/>
      <point x="36" y="680" type="line" smooth="yes"/>
      <point x="11" y="728"/>
      <point x="-13" y="738"/>
      <point x="-44" y="738" type="curve" smooth="yes"/>
      <point x="-75" y="738"/>
      <point x="-98" y="729"/>
      <point x="-137" y="682" type="curve" smooth="yes"/>
      <point x="-147" y="670" type="line"/>
      <point x="-102" y="633" type="line"/>
      <point x="-58" y="678" type="line"/>
      <point x="-54" y="678"/>
      <point x="-49" y="670"/>
      <point x="-31" y="634" type="curve" smooth="yes"/>
      <point x="25" y="521"/>
      <point x="136" y="303"/>
      <point x="202" y="174" type="curve" smooth="yes"/>
      <point x="208" y="162"/>
      <point x="217" y="140"/>
      <point x="217" y="121" type="curve" smooth="yes"/>
      <point x="217" y="101"/>
      <point x="205" y="76"/>
      <point x="113" y="76" type="curve" smooth="yes"/>
      <point x="0" y="76" type="line" smooth="yes"/>
      <point x="-34" y="76"/>
      <point x="-43" y="57"/>
      <point x="-43" y="38" type="curve" smooth="yes"/>
      <point x="-43" y="19"/>
      <point x="-34" y="0"/>
      <point x="0" y="0" type="curve" smooth="yes"/>
      <point x="90" y="0" type="line" smooth="yes"/>
      <point x="190" y="0"/>
      <point x="307" y="9"/>
      <point x="307" y="123" type="curve" smooth="yes"/>
      <point x="307" y="145"/>
      <point x="299" y="172"/>
    </contour>
  </outline>
</glyph>
<glyph name="LamedhMed" format="2">
  <advance width="342"/>
  <outline>
    <contour>
      <point x="0" y="0" type="curve" smooth="yes"/>
      <point x="62" y="0" type="line" smooth="yes"/>
      <point x="133" y="0"/>
      <point x="208" y="11"/>
      <point x="235" y="59" type="curve"/>
      <point x="268" y="7"/>
      <point x="302" y="0"/>
      <point x="342" y="0" type="curve"/>
      <point x="342" y="76" type="line"/>
      <point x="325" y="76"/>
      <point x="310" y="96"/>
      <point x="290" y="125" type="curve" smooth="yes"/>
      <point x="244" y="192"/>
      <point x="71" y="521"/>
      <point x="-22" y="715" type="curve"/>
      <point x="-94" y="679" type="line"/>
      <point x="-38" y="547"/>
      <point x="143" y="199"/>
      <point x="188" y="123" type="curve"/>
      <point x="186" y="98"/>
      <point x="159" y="76"/>
      <point x="62" y="76" type="curve" smooth="yes"/>
      <point x="0" y="76" type="line" smooth="yes"/>
      <point x="-34" y="76"/>
      <point x="-43" y="57"/>
      <point x="-43" y="38" type="curve" smooth="yes"/>
      <point x="-43" y="19"/>
      <point x="-34" y="0"/>
    </contour>
  </outline>
</glyph>
<glyph name="LamedhMed.hook" format="2">
  <advance width="342"/>
  <outline>
    <contour>
      <point x="-70" y="625" type="curve" smooth="yes"/>
      <point x="3" y="471"/>
      <point x="148" y="190"/>
      <point x="188" y="123" type="curve"/>
      <point x="186" y="98"/>
      <point x="159" y="76"/>
      <point x="62" y="76" type="curve" smooth="yes"/>
      <point x="0" y="76" type="line" smooth="yes"/>
      <point x="-34" y="76"/>
      <point x="-43" y="57"/>
      <point x="-43" y="38" type="curve" smooth="yes"/>
      <point x="-43" y="19"/>
      <point x="-34" y="0"/>
      <point x="0" y="0" type="curve" smooth="yes"/>
      <point x="62" y="0" type="line" smooth="yes"/>
      <point x="133" y="0"/>
      <point x="208" y="11"/>
      <point x="235" y="59" type="curve"/>
      <point x="268" y="7"/>
      <point x="302" y="0"/>
      <point x="342" y="0" type="curve"/>
      <point x="342" y="76" type="line"/>
      <point x="325" y="76"/>
      <point x="310" y="96"/>
      <point x="290" y="125" type="curve" smooth="yes"/>
      <point x="247" y="188"/>
      <point x="91" y="485"/>
      <point x="-7" y="680" type="curve" smooth="yes"/>
      <point x="-31" y="728"/>
      <point x="-56" y="738"/>
      <point x="-87" y="738" type="curve" smooth="yes"/>
      <point x="-118" y="738"/>
      <point x="-143" y="719"/>
      <point x="-186" y="676" type="curve" smooth="yes"/>
      <point x="-245" y="617" type="line"/>
      <point x="-205" y="568" type="line"/>
      <point x="-96" y="669" type="line"/>
      <point x="-92" y="669"/>
      <point x="-87" y="661"/>
    </contour>
  </outline>
</glyph>
<glyph name="LamedhMed.hookwide" format="2">
  <advance width="387"/>
  <outline>
    <contour>
      <point x="-29" y="634" type="curve" smooth="yes"/>
      <point x="46" y="481"/>
      <point x="193" y="190"/>
      <point x="233" y="123" type="curve"/>
      <point x="231" y="98"/>
      <point x="204" y="76"/>
      <point x="107" y="76" type="curve" smooth="yes"/>
      <point x="0" y="76" type="line" smooth="yes"/>
      <point x="-34" y="76"/>
      <point x="-43" y="57"/>
      <point x="-43" y="38" type="curve" smooth="yes"/>
      <point x="-43" y="19"/>
      <point x="-34" y="0"/>
      <point x="0" y="0" type="curve" smooth="yes"/>
      <point x="107" y="0" type="line" smooth="yes"/>
      <point x="178" y="0"/>
      <point x="253" y="11"/>
      <point x="280" y="59" type="curve"/>
      <point x="313" y="7"/>
      <point x="347" y="0"/>
      <point x="387" y="0" type="curve"/>
      <point x="387" y="76" type="line"/>
      <point x="370" y="76"/>
      <point x="355" y="96"/>
      <point x="335" y="125" type="curve" smooth="yes"/>
      <point x="292" y="188"/>
      <point x="136" y="485"/>
      <point x="38" y="680" type="curve" smooth="yes"/>
      <point x="14" y="728"/>
      <point x="-11" y="738"/>
      <point x="-42" y="738" type="curve" smooth="yes"/>
      <point x="-73" y="738"/>
      <point x="-96" y="729"/>
      <point x="-135" y="682" type="curve" smooth="yes"/>
      <point x="-145" y="670" type="line"/>
      <point x="-100" y="633" type="line"/>
      <point x="-56" y="678" type="line"/>
      <point x="-51" y="678"/>
      <point x="-47" y="670"/>
    </contour>
  </outline>
</glyph>
<glyph name="LamedhMed.pe" format="2">
  <advance width="312"/>
  <outline>
    <contour>
      <point x="0" y="0" type="curve" smooth="yes"/>
      <point x="45" y="0" type="line" smooth="yes"/>
      <point x="145" y="0"/>
      <point x="262" y="9"/>
      <point x="262" y="123" type="curve" smooth="yes"/>
      <point x="262" y="145"/>
      <point x="254" y="172"/>
      <point x="238" y="204" type="curve" smooth="yes"/>
      <point x="171" y="334"/>
      <point x="49" y="566"/>
      <point x="-26" y="715" type="curve"/>
      <point x="-99" y="679" type="line"/>
      <point x="-41" y="564"/>
      <point x="90" y="305"/>
      <point x="157" y="174" type="curve" smooth="yes"/>
      <point x="163" y="162"/>
      <point x="172" y="140"/>
      <point x="172" y="121" type="curve" smooth="yes"/>
      <point x="172" y="101"/>
      <point x="160" y="76"/>
      <point x="68" y="76" type="curve" smooth="yes"/>
      <point x="0" y="76" type="line" smooth="yes"/>
      <point x="-34" y="76"/>
      <point x="-43" y="57"/>
      <point x="-43" y="38" type="curve" smooth="yes"/>
      <point x="-43" y="19"/>
      <point x="-34" y="0"/>
    </contour>
  </outline>
</glyph>
<glyph name="LamedhMed.pewide" format="2">
  <advance width="402"/>
  <outline>
    <contour>
      <point x="0" y="0" type="curve" smooth="yes"/>
      <point x="135" y="0" type="line" smooth="yes"/>
      <point x="235" y="0"/>
      <point x="352" y="9"/>
      <point x="352" y="123" type="curve" smooth="yes"/>
      <point x="352" y="145"/>
      <point x="344" y="172"/>
      <point x="328" y="204" type="curve" smooth="yes"/>
      <point x="261" y="334"/>
      <point x="139" y="566"/>
      <point x="64" y="715" type="curve"/>
      <point x="-9" y="679" type="line"/>
      <point x="49" y="564"/>
      <point x="180" y="305"/>
      <point x="247" y="174" type="curve" smooth="yes"/>
      <point x="253" y="162"/>
      <point x="262" y="140"/>
      <point x="262" y="121" type="curve" smooth="yes"/>
      <point x="262" y="101"/>
      <point x="250" y="76"/>
      <point x="158" y="76" type="curve" smooth="yes"/>
      <point x="0" y="76" type="line" smooth="yes"/>
      <point x="-34" y="76"/>
      <point x="-43" y="57"/>
      <point x="-43" y="38" type="curve" smooth="yes"/>
      <point x="-43" y="19"/>
      <point x="-34" y="0"/>
    </contour>
  </outline>
</glyph>
<glyph name="LamedhMed.wide" format="2">
  <advance width="387"/>
  <outline>
    <contour>
      <point x="0" y="0" type="curve" smooth="yes"/>
      <point x="107" y="0" type="line" smooth="yes"/>
      <point x="178" y="0"/>
      <point x="253" y="11"/>
      <point x="280" y="59" type="curve"/>
      <point x="313" y="7"/>
      <point x="347" y="0"/>
      <point x="387" y="0" type="curve"/>
      <point x="387" y="76" type="line"/>
      <point x="370" y="76"/>
      <point x="355" y="96"/>
      <point x="335" y="125" type="curve" smooth="yes"/>
      <point x="289" y="192"/>
      <point x="116" y="521"/>
      <point x="23" y="715" type="curve"/>
      <point x="-49" y="679" type="line"/>
      <point x="7" y="547"/>
      <point x="188" y="199"/>
      <point x="233" y="123" type="curve"/>
      <point x="231" y="98"/>
      <point x="204" y="76"/>
      <point x="107" y="76" type="curve" smooth="yes"/>
      <point x="0" y="76" type="line" smooth="yes"/>
      <point x="-34" y="76"/>
      <point x="-43" y="57"/>
      <point x="-43" y="38" type="curve" smooth="yes"/>
      <point x="-43" y="19"/>
      <point x="-34" y="0"/>
    </contour>
  </outline>
</glyph>
<glyph name="LamedhSep.hook" format="2">
  <advance width="518"/>
  <outline>
    <contour>
      <point x="445" y="204" type="curve" smooth="yes"/>
      <point x="198" y="680" type="line" smooth="yes"/>
      <point x="173" y="728"/>
      <point x="149" y="738"/>
      <point x="118" y="738" type="curve" smooth="yes"/>
      <point x="87" y="738"/>
      <point x="62" y="719"/>
      <point x="19" y="676" type="curve" smooth="yes"/>
      <point x="-40" y="617" type="line"/>
      <point x="0" y="568" type="line"/>
      <point x="109" y="669" type="line"/>
      <point x="113" y="669"/>
      <point x="118" y="661"/>
      <point x="136" y="625" type="curve" smooth="yes"/>
      <point x="192" y="512"/>
      <point x="298" y="305"/>
      <point x="364" y="174" type="curve" smooth="yes"/>
      <point x="370" y="162"/>
      <point x="379" y="140"/>
      <point x="379" y="121" type="curve" smooth="yes"/>
      <point x="379" y="101"/>
      <point x="367" y="76"/>
      <point x="275" y="76" type="curve" smooth="yes"/>
      <point x="50" y="76" type="line"/>
      <point x="50" y="0" type="line"/>
      <point x="252" y="0" type="line" smooth="yes"/>
      <point x="352" y="0"/>
      <point x="469" y="9"/>
      <point x="469" y="123" type="curve" smooth="yes"/>
      <point x="469" y="145"/>
      <point x="461" y="172"/>
    </contour>
  </outline>
</glyph>
<glyph name="LeshFin.EE" format="2">
  <advance width="366"/>
  <outline>
    <contour>
      <point x="366" y="0" type="curve"/>
      <point x="377" y="76" type="line"/>
      <point x="363" y="76"/>
      <point x="349" y="77"/>
      <point x="328" y="97" type="curve"/>
      <point x="382" y="173"/>
      <point x="410" y="262"/>
      <point x="410" y="367" type="curve" smooth="yes"/>
      <point x="410" y="382" type="line"/>
      <point x="337" y="382" type="line"/>
      <point x="332" y="300"/>
      <point x="321" y="226"/>
      <point x="273" y="151" type="curve"/>
      <point x="204" y="221"/>
      <point x="150" y="340"/>
      <point x="131" y="386" type="curve"/>
      <point x="61" y="352" type="line"/>
      <point x="87" y="274"/>
      <point x="154" y="162"/>
      <point x="225" y="88" type="curve"/>
      <point x="187" y="46"/>
      <point x="136" y="3"/>
      <point x="67" y="-44" type="curve"/>
      <point x="67" y="-114" type="line"/>
      <point x="385" y="-180" type="line"/>
      <point x="393" y="-97" type="line"/>
      <point x="172" y="-53" type="line"/>
      <point x="211" y="-25"/>
      <point x="247" y="4"/>
      <point x="277" y="35" type="curve"/>
      <point x="308" y="9"/>
      <point x="336" y="0"/>
    </contour>
  </outline>
</glyph>
<glyph name="LeshFin" format="2">
  <advance width="470"/>
  <outline>
    <contour>
      <point x="470" y="0" type="curve"/>
      <point x="470" y="76" type="line"/>
      <point x="446" y="76"/>
      <point x="394" y="78"/>
      <point x="341" y="117" type="curve"/>
      <point x="386" y="189"/>
      <point x="410" y="271"/>
      <point x="410" y="367" type="curve" smooth="yes"/>
      <point x="410" y="382" type="line"/>
      <point x="337" y="382" type="line"/>
      <point x="332" y="305"/>
      <point x="322" y="236"/>
      <point x="282" y="165" type="curve"/>
      <point x="214" y="227"/>
      <point x="164" y="317"/>
      <point x="131" y="386" type="curve"/>
      <point x="57" y="353" type="line"/>
      <point x="79" y="285"/>
      <point x="170" y="154"/>
      <point x="233" y="98" type="curve"/>
      <point x="194" y="53"/>
      <point x="141" y="6"/>
      <point x="67" y="-44" type="curve"/>
      <point x="67" y="-114" type="line"/>
      <point x="385" y="-180" type="line"/>
      <point x="393" y="-97" type="line"/>
      <point x="172" y="-53" type="line"/>
      <point x="218" y="-20"/>
      <point x="259" y="14"/>
      <point x="292" y="52" type="curve"/>
      <point x="364" y="4"/>
      <point x="433" y="0"/>
    </contour>
  </outline>
</glyph>
<glyph name="LeshFin.pe" format="2">
  <advance width="470"/>
  <outline>
    <contour>
      <point x="82" y="-141" type="line"/>
      <point x="396" y="-153" type="line"/>
      <point x="398" y="-77" type="line"/>
      <point x="196" y="-65" type="line"/>
      <point x="277" y="9"/>
      <point x="349" y="107"/>
      <point x="386" y="199" type="curve" smooth="yes"/>
      <point x="404" y="245"/>
      <point x="420" y="305"/>
      <point x="420" y="382" type="curve"/>
      <point x="344" y="382" type="line"/>
      <point x="338" y="316"/>
      <point x="328" y="267"/>
      <point x="310" y="223" type="curve"/>
      <point x="191" y="253"/>
      <point x="143" y="324"/>
      <point x="128" y="390" type="curve"/>
      <point x="126" y="390" type="line"/>
      <point x="64" y="363" type="line"/>
      <point x="63" y="360"/>
      <point x="63" y="351"/>
      <point x="63" y="350" type="curve" smooth="yes"/>
      <point x="63" y="313"/>
      <point x="95" y="255"/>
      <point x="127" y="228" type="curve" smooth="yes"/>
      <point x="155" y="204"/>
      <point x="203" y="171"/>
      <point x="275" y="149" type="curve"/>
      <point x="231" y="76"/>
      <point x="161" y="-9"/>
      <point x="82" y="-79" type="curve"/>
    </contour>
  </outline>
</glyph>
<glyph name="LeshIni" format="2">
  <advance width="433"/>
  <outline>
    <contour>
      <point x="61" y="-135" type="line"/>
      <point x="354" y="-200" type="line"/>
      <point x="362" y="-120" type="line"/>
      <point x="157" y="-73" type="line"/>
      <point x="306" y="59"/>
      <point x="383" y="187"/>
      <point x="383" y="375" type="curve" smooth="yes"/>
      <point x="383" y="382" type="line"/>
      <point x="313" y="382" type="line"/>
      <point x="309" y="330"/>
      <point x="304" y="283"/>
      <point x="292" y="244" type="curve"/>
      <point x="172" y="272"/>
      <point x="124" y="328"/>
      <point x="109" y="395" type="curve"/>
      <point x="107" y="395" type="line"/>
      <point x="46" y="374" type="line"/>
      <point x="45" y="369"/>
      <point x="45" y="364"/>
      <point x="45" y="359" type="curve" smooth="yes"/>
      <point x="45" y="311"/>
      <point x="69" y="273"/>
      <point x="103" y="244" type="curve" smooth="yes"/>
      <point x="132" y="220"/>
      <point x="184" y="190"/>
      <point x="260" y="170" type="curve"/>
      <point x="248" y="149"/>
      <point x="228" y="128"/>
      <point x="194" y="111" type="curve" smooth="yes"/>
      <point x="127" y="77"/>
      <point x="63" y="76"/>
      <point x="15" y="76" type="curve" smooth="yes"/>
      <point x="0" y="76" type="line" smooth="yes"/>
      <point x="-34" y="76"/>
      <point x="-43" y="57"/>
      <point x="-43" y="38" type="curve" smooth="yes"/>
      <point x="-43" y="19"/>
      <point x="-34" y="0"/>
      <point x="0" y="0" type="curve" smooth="yes"/>
      <point x="50" y="0"/>
      <point x="113" y="3"/>
      <point x="178" y="39" type="curve"/>
      <point x="180" y="36" type="line"/>
      <point x="154" y="9"/>
      <point x="87" y="-52"/>
      <point x="61" y="-70" type="curve"/>
    </contour>
  </outline>
</glyph>
<glyph name="LeshMed.EE" format="2">
  <advance width="349"/>
  <outline>
    <contour>
      <point x="82" y="-114" type="line"/>
      <point x="375" y="-180" type="line"/>
      <point x="383" y="-100" type="line"/>
      <point x="173" y="-52" type="line"/>
      <point x="202" y="-24"/>
      <point x="230" y="7"/>
      <point x="255" y="39" type="curve"/>
      <point x="287" y="10"/>
      <point x="318" y="0"/>
      <point x="349" y="0" type="curve"/>
      <point x="360" y="76" type="line"/>
      <point x="343" y="76"/>
      <point x="328" y="78"/>
      <point x="299" y="108" type="curve"/>
      <point x="366" y="184"/>
      <point x="395" y="285"/>
      <point x="396" y="382" type="curve"/>
      <point x="323" y="382" type="line"/>
      <point x="317" y="303"/>
      <point x="303" y="224"/>
      <point x="248" y="159" type="curve"/>
      <point x="184" y="231"/>
      <point x="132" y="342"/>
      <point x="114" y="386" type="curve"/>
      <point x="44" y="352" type="line"/>
      <point x="67" y="282"/>
      <point x="123" y="185"/>
      <point x="185" y="113" type="curve"/>
      <point x="131" y="85"/>
      <point x="62" y="76"/>
      <point x="0" y="76" type="curve" smooth="yes"/>
      <point x="-34" y="76"/>
      <point x="-43" y="57"/>
      <point x="-43" y="38" type="curve" smooth="yes"/>
      <point x="-43" y="19"/>
      <point x="-34" y="0"/>
      <point x="0" y="0" type="curve" smooth="yes"/>
      <point x="45" y="0"/>
      <point x="121" y="10"/>
      <point x="167" y="38" type="curve"/>
      <point x="168" y="33" type="line"/>
      <point x="156" y="17"/>
      <point x="107" y="-30"/>
      <point x="82" y="-50" type="curve"/>
    </contour>
  </outline>
</glyph>
<glyph name="LeshMed" format="2">
  <advance width="445"/>
  <outline>
    <contour>
      <point x="82" y="-114" type="line"/>
      <point x="375" y="-180" type="line"/>
      <point x="383" y="-100" type="line"/>
      <point x="173" y="-52" type="line"/>
      <point x="206" y="-21"/>
      <point x="236" y="14"/>
      <point x="263" y="49" type="curve"/>
      <point x="335" y="4"/>
      <point x="401" y="0"/>
      <point x="445" y="0" type="curve"/>
      <point x="445" y="76" type="line"/>
      <point x="414" y="76"/>
      <point x="357" y="80"/>
      <point x="308" y="118" type="curve"/>
      <point x="314" y="126" type="line" smooth="yes"/>
      <point x="356" y="184"/>
      <point x="396" y="268"/>
      <point x="396" y="382" type="curve"/>
      <point x="323" y="382" type="line"/>
      <point x="317" y="302"/>
      <point x="302" y="223"/>
      <point x="252" y="166" type="curve"/>
      <point x="182" y="234"/>
      <point x="133" y="339"/>
      <point x="114" y="386" type="curve"/>
      <point x="44" y="352" type="line"/>
      <point x="73" y="275"/>
      <point x="123" y="187"/>
      <point x="194" y="117" type="curve"/>
      <point x="138" y="85"/>
      <point x="65" y="76"/>
      <point x="0" y="76" type="curve" smooth="yes"/>
      <point x="-34" y="76"/>
      <point x="-43" y="57"/>
      <point x="-43" y="38" type="curve" smooth="yes"/>
      <point x="-43" y="19"/>
      <point x="-34" y="0"/>
      <point x="0" y="0" type="curve" smooth="yes"/>
      <point x="45" y="0"/>
      <point x="121" y="10"/>
      <point x="167" y="38" type="curve"/>
      <point x="168" y="33" type="line"/>
      <point x="156" y="17"/>
      <point x="107" y="-30"/>
      <point x="82" y="-50" type="curve"/>
    </contour>
  </outline>
</glyph>
<glyph name="LeshMed.pe" format="2">
  <advance width="433"/>
  <outline>
    <contour>
      <point x="61" y="-141" type="line"/>
      <point x="365" y="-153" type="line"/>
      <point x="367" y="-77" type="line"/>
      <point x="166" y="-68" type="line"/>
      <point x="317" y="64"/>
      <point x="383" y="201"/>
      <point x="383" y="382" type="curve"/>
      <point x="313" y="382" type="line"/>
      <point x="309" y="330"/>
      <point x="304" y="283"/>
      <point x="292" y="244" type="curve"/>
      <point x="172" y="272"/>
      <point x="124" y="328"/>
      <point x="109" y="395" type="curve"/>
      <point x="107" y="395" type="line"/>
      <point x="46" y="374" type="line"/>
      <point x="45" y="369"/>
      <point x="45" y="364"/>
      <point x="45" y="359" type="curve" smooth="yes"/>
      <point x="45" y="311"/>
      <point x="69" y="273"/>
      <point x="103" y="244" type="curve" smooth="yes"/>
      <point x="132" y="219"/>
      <point x="184" y="190"/>
      <point x="260" y="170" type="curve"/>
      <point x="210" y="89"/>
      <point x="99" y="76"/>
      <point x="15" y="76" type="curve" smooth="yes"/>
      <point x="0" y="76" type="line" smooth="yes"/>
      <point x="-34" y="76"/>
      <point x="-43" y="57"/>
      <point x="-43" y="38" type="curve" smooth="yes"/>
      <point x="-43" y="19"/>
      <point x="-34" y="0"/>
      <point x="0" y="0" type="curve" smooth="yes"/>
      <point x="52" y="0"/>
      <point x="116" y="4"/>
      <point x="183" y="42" type="curve"/>
      <point x="186" y="41" type="line"/>
      <point x="167" y="18"/>
      <point x="104" y="-45"/>
      <point x="61" y="-81" type="curve"/>
    </contour>
  </outline>
</glyph>
<glyph name="MemFin.BB" format="2">
  <advance width="497"/>
  <outline>
    <contour>
      <point x="304" y="426" type="curve"/>
      <point x="233" y="401" type="line"/>
      <point x="246" y="373"/>
      <point x="261" y="342"/>
      <point x="277" y="311" type="curve"/>
      <point x="85" y="245" type="line"/>
      <point x="85" y="172" type="line"/>
      <point x="307" y="249" type="line"/>
      <point x="361" y="138"/>
      <point x="370" y="111"/>
      <point x="370" y="90" type="curve" smooth="yes"/>
      <point x="370" y="52"/>
      <point x="333" y="47"/>
      <point x="275" y="47" type="curve" smooth="yes"/>
      <point x="237" y="47" type="line" smooth="yes"/>
      <point x="194" y="47"/>
      <point x="150" y="49"/>
      <point x="150" y="87" type="curve" smooth="yes"/>
      <point x="150" y="92" type="line"/>
      <point x="82" y="92" type="line"/>
      <point x="81" y="86"/>
      <point x="81" y="80"/>
      <point x="81" y="75" type="curve" smooth="yes"/>
      <point x="81" y="-24"/>
      <point x="190" y="-26"/>
      <point x="246" y="-26" type="curve" smooth="yes"/>
      <point x="308" y="-26"/>
      <point x="369" y="-23"/>
      <point x="407" y="2" type="curve" smooth="yes"/>
      <point x="416" y="8"/>
      <point x="425" y="17"/>
      <point x="433" y="27" type="curve"/>
      <point x="448" y="8"/>
      <point x="468" y="0"/>
      <point x="497" y="0" type="curve"/>
      <point x="497" y="76" type="line"/>
      <point x="478" y="76"/>
      <point x="464" y="86"/>
      <point x="454" y="108" type="curve"/>
      <point x="440" y="148"/>
      <point x="422" y="192"/>
      <point x="401" y="235" type="curve" smooth="yes"/>
      <point x="382" y="275" type="line"/>
      <point x="499" y="316" type="line"/>
      <point x="476" y="379" type="line"/>
      <point x="352" y="337" type="line"/>
      <point x="336" y="368"/>
      <point x="319" y="399"/>
    </contour>
  </outline>
</glyph>
<glyph name="MemFin" format="2">
  <advance width="544"/>
  <outline>
    <contour>
      <point x="304" y="426" type="line"/>
      <point x="233" y="401" type="line"/>
      <point x="246" y="376"/>
      <point x="262" y="343"/>
      <point x="277" y="311" type="curve"/>
      <point x="85" y="245" type="line"/>
      <point x="85" y="172" type="line"/>
      <point x="307" y="249" type="line"/>
      <point x="361" y="141"/>
      <point x="370" y="123"/>
      <point x="370" y="90" type="curve" smooth="yes"/>
      <point x="370" y="52"/>
      <point x="333" y="47"/>
      <point x="275" y="47" type="curve" smooth="yes"/>
      <point x="237" y="47" type="line" smooth="yes"/>
      <point x="194" y="47"/>
      <point x="150" y="49"/>
      <point x="150" y="87" type="curve" smooth="yes"/>
      <point x="150" y="92" type="line"/>
      <point x="82" y="92" type="line"/>
      <point x="81" y="86"/>
      <point x="81" y="80"/>
      <point x="81" y="75" type="curve" smooth="yes"/>
      <point x="81" y="-24"/>
      <point x="190" y="-26"/>
      <point x="246" y="-26" type="curve" smooth="yes"/>
      <point x="308" y="-26"/>
      <point x="369" y="-23"/>
      <point x="407" y="2" type="curve" smooth="yes"/>
      <point x="420" y="11"/>
      <point x="432" y="23"/>
      <point x="440" y="38" type="curve"/>
      <point x="464" y="10"/>
      <point x="497" y="0"/>
      <point x="544" y="0" type="curve"/>
      <point x="544" y="76" type="line"/>
      <point x="481" y="76"/>
      <point x="460" y="107"/>
      <point x="442" y="146" type="curve"/>
      <point x="425" y="190"/>
      <point x="405" y="235"/>
      <point x="384" y="276" type="curve"/>
      <point x="499" y="316" type="line"/>
      <point x="476" y="379" type="line"/>
      <point x="353" y="337" type="line"/>
    </contour>
  </outline>
</glyph>
<glyph name="MemFin.pe" format="2">
  <advance width="563"/>
  <outline>
    <contour>
      <point x="305" y="426" type="curve"/>
      <point x="234" y="401" type="line"/>
      <point x="279" y="311" type="line"/>
      <point x="85" y="245" type="line"/>
      <point x="85" y="172" type="line"/>
      <point x="309" y="250" type="line"/>
      <point x="363" y="140"/>
      <point x="370" y="123"/>
      <point x="370" y="90" type="curve" smooth="yes"/>
      <point x="370" y="52"/>
      <point x="333" y="47"/>
      <point x="275" y="47" type="curve" smooth="yes"/>
      <point x="237" y="47" type="line" smooth="yes"/>
      <point x="194" y="47"/>
      <point x="150" y="49"/>
      <point x="150" y="87" type="curve" smooth="yes"/>
      <point x="150" y="92" type="line"/>
      <point x="82" y="92" type="line"/>
      <point x="81" y="86"/>
      <point x="81" y="80"/>
      <point x="81" y="75" type="curve" smooth="yes"/>
      <point x="81" y="-24"/>
      <point x="190" y="-26"/>
      <point x="246" y="-26" type="curve" smooth="yes"/>
      <point x="308" y="-26"/>
      <point x="369" y="-23"/>
      <point x="407" y="2" type="curve" smooth="yes"/>
      <point x="433" y="19"/>
      <point x="452" y="49"/>
      <point x="452" y="86" type="curve" smooth="yes"/>
      <point x="452" y="136"/>
      <point x="433" y="183"/>
      <point x="405" y="237" type="curve" smooth="yes"/>
      <point x="385" y="276" type="line"/>
      <point x="499" y="316" type="line"/>
      <point x="476" y="379" type="line"/>
      <point x="354" y="337" type="line"/>
      <point x="338" y="368"/>
      <point x="320" y="400"/>
    </contour>
  </outline>
</glyph>
<glyph name="MemIni.S" format="2">
  <advance width="426"/>
  <outline>
    <contour>
      <point x="146" y="160" type="curve"/>
      <point x="126" y="143" type="line" smooth="yes"/>
      <point x="56" y="84"/>
      <point x="28" y="76"/>
      <point x="0" y="76" type="curve" smooth="yes"/>
      <point x="-29" y="76"/>
      <point x="-37" y="57"/>
      <point x="-37" y="38" type="curve" smooth="yes"/>
      <point x="-37" y="19"/>
      <point x="-29" y="0"/>
      <point x="0" y="0" type="curve" smooth="yes"/>
      <point x="39" y="0"/>
      <point x="70" y="8"/>
      <point x="153" y="71" type="curve"/>
      <point x="178" y="90" type="line"/>
      <point x="214" y="12"/>
      <point x="230" y="-23"/>
      <point x="230" y="-51" type="curve" smooth="yes"/>
      <point x="230" y="-89"/>
      <point x="196" y="-95"/>
      <point x="138" y="-98" type="curve" smooth="yes"/>
      <point x="96" y="-100"/>
      <point x="81" y="-100"/>
      <point x="73" y="-100" type="curve" smooth="yes"/>
      <point x="39" y="-100"/>
      <point x="10" y="-94"/>
      <point x="8" y="-64" type="curve"/>
      <point x="-59" y="-64" type="line"/>
      <point x="-60" y="-71"/>
      <point x="-60" y="-77"/>
      <point x="-60" y="-79" type="curve" smooth="yes"/>
      <point x="-57" y="-164"/>
      <point x="24" y="-172"/>
      <point x="82" y="-172" type="curve" smooth="yes"/>
      <point x="96" y="-172"/>
      <point x="150" y="-170"/>
      <point x="182" y="-166" type="curve" smooth="yes"/>
      <point x="215" y="-162"/>
      <point x="247" y="-154"/>
      <point x="268" y="-139" type="curve" smooth="yes"/>
      <point x="293" y="-121"/>
      <point x="311" y="-95"/>
      <point x="311" y="-58" type="curve" smooth="yes"/>
      <point x="311" y="-9"/>
      <point x="284" y="57"/>
      <point x="251" y="126" type="curve" smooth="yes"/>
      <point x="240" y="149" type="line"/>
      <point x="390" y="298" type="line"/>
      <point x="344" y="348" type="line"/>
      <point x="207" y="216" type="line"/>
      <point x="131" y="360" type="line"/>
      <point x="66" y="327" type="line"/>
      <point x="93" y="274"/>
      <point x="129" y="200"/>
    </contour>
  </outline>
</glyph>
<glyph name="MemMed.Dx" format="2">
  <advance width="437"/>
  <outline>
    <contour>
      <point x="200" y="100" type="curve"/>
      <point x="236" y="26"/>
      <point x="255" y="-23"/>
      <point x="255" y="-51" type="curve" smooth="yes"/>
      <point x="255" y="-89"/>
      <point x="221" y="-95"/>
      <point x="163" y="-98" type="curve" smooth="yes"/>
      <point x="121" y="-100"/>
      <point x="106" y="-100"/>
      <point x="98" y="-100" type="curve" smooth="yes"/>
      <point x="64" y="-100"/>
      <point x="35" y="-94"/>
      <point x="33" y="-64" type="curve"/>
      <point x="-34" y="-64" type="line"/>
      <point x="-35" y="-71"/>
      <point x="-35" y="-77"/>
      <point x="-35" y="-79" type="curve" smooth="yes"/>
      <point x="-32" y="-164"/>
      <point x="49" y="-172"/>
      <point x="107" y="-172" type="curve" smooth="yes"/>
      <point x="121" y="-172"/>
      <point x="175" y="-170"/>
      <point x="207" y="-166" type="curve" smooth="yes"/>
      <point x="240" y="-162"/>
      <point x="272" y="-154"/>
      <point x="293" y="-139" type="curve" smooth="yes"/>
      <point x="318" y="-121"/>
      <point x="336" y="-95"/>
      <point x="336" y="-58" type="curve" smooth="yes"/>
      <point x="336" y="-36"/>
      <point x="330" y="-11"/>
      <point x="313" y="26" type="curve"/>
      <point x="315" y="27" type="line"/>
      <point x="340" y="7"/>
      <point x="377" y="0"/>
      <point x="437" y="0" type="curve"/>
      <point x="437" y="76" type="line"/>
      <point x="342" y="76"/>
      <point x="298" y="92"/>
      <point x="274" y="131" type="curve"/>
      <point x="264" y="149" type="line"/>
      <point x="415" y="298" type="line"/>
      <point x="369" y="348" type="line"/>
      <point x="232" y="216" type="line"/>
      <point x="156" y="360" type="line"/>
      <point x="91" y="327" type="line"/>
      <point x="118" y="274"/>
      <point x="150" y="207"/>
      <point x="167" y="167" type="curve"/>
      <point x="130" y="139"/>
      <point x="99" y="123"/>
      <point x="67" y="109" type="curve" smooth="yes"/>
      <point x="4" y="81"/>
      <point x="-52" y="76"/>
      <point x="-89" y="76" type="curve" smooth="yes"/>
      <point x="-129" y="76"/>
      <point x="-143" y="56"/>
      <point x="-143" y="37" type="curve" smooth="yes"/>
      <point x="-143" y="17"/>
      <point x="-141" y="0"/>
      <point x="-104" y="0" type="curve" smooth="yes"/>
      <point x="-47" y="0"/>
      <point x="42" y="9"/>
      <point x="131" y="59" type="curve" smooth="yes"/>
      <point x="153" y="71"/>
      <point x="176" y="84"/>
    </contour>
  </outline>
</glyph>
<glyph name="MemMed.EE" format="2">
  <advance width="359"/>
  <outline>
    <contour>
      <point x="166" y="360" type="line"/>
      <point x="101" y="327" type="line"/>
      <point x="128" y="274"/>
      <point x="164" y="200"/>
      <point x="181" y="160" type="curve"/>
      <point x="161" y="143" type="line" smooth="yes"/>
      <point x="90" y="85"/>
      <point x="33" y="76"/>
      <point x="0" y="76" type="curve" smooth="yes"/>
      <point x="-29" y="76"/>
      <point x="-37" y="57"/>
      <point x="-37" y="38" type="curve" smooth="yes"/>
      <point x="-37" y="19"/>
      <point x="-29" y="0"/>
      <point x="0" y="0" type="curve" smooth="yes"/>
      <point x="39" y="0"/>
      <point x="105" y="8"/>
      <point x="188" y="71" type="curve" smooth="yes"/>
      <point x="213" y="90" type="line"/>
      <point x="249" y="12"/>
      <point x="265" y="-23"/>
      <point x="265" y="-51" type="curve" smooth="yes"/>
      <point x="265" y="-89"/>
      <point x="231" y="-95"/>
      <point x="173" y="-98" type="curve" smooth="yes"/>
      <point x="131" y="-100"/>
      <point x="116" y="-100"/>
      <point x="108" y="-100" type="curve" smooth="yes"/>
      <point x="74" y="-100"/>
      <point x="45" y="-94"/>
      <point x="43" y="-64" type="curve"/>
      <point x="-24" y="-64" type="line"/>
      <point x="-25" y="-71"/>
      <point x="-25" y="-77"/>
      <point x="-25" y="-79" type="curve" smooth="yes"/>
      <point x="-22" y="-164"/>
      <point x="59" y="-172"/>
      <point x="117" y="-172" type="curve" smooth="yes"/>
      <point x="131" y="-172"/>
      <point x="185" y="-170"/>
      <point x="217" y="-166" type="curve" smooth="yes"/>
      <point x="250" y="-162"/>
      <point x="282" y="-154"/>
      <point x="303" y="-139" type="curve" smooth="yes"/>
      <point x="328" y="-121"/>
      <point x="346" y="-95"/>
      <point x="346" y="-58" type="curve" smooth="yes"/>
      <point x="346" y="-40"/>
      <point x="342" y="-18"/>
      <point x="333" y="6" type="curve"/>
      <point x="339" y="1"/>
      <point x="351" y="0"/>
      <point x="359" y="0" type="curve"/>
      <point x="370" y="76" type="line"/>
      <point x="324" y="76"/>
      <point x="305" y="87"/>
      <point x="294" y="110" type="curve" smooth="yes"/>
      <point x="275" y="149" type="line"/>
      <point x="425" y="298" type="line"/>
      <point x="379" y="348" type="line"/>
      <point x="242" y="216" type="line"/>
    </contour>
  </outline>
</glyph>
<glyph name="MemMed.EEL" format="2">
  <advance width="444"/>
  <outline>
    <contour>
      <point x="379" y="110" type="curve" smooth="yes"/>
      <point x="360" y="149" type="line"/>
      <point x="510" y="298" type="line"/>
      <point x="464" y="348" type="line"/>
      <point x="327" y="216" type="line"/>
      <point x="251" y="360" type="line"/>
      <point x="186" y="327" type="line"/>
      <point x="213" y="274"/>
      <point x="247" y="206"/>
      <point x="264" y="166" type="curve"/>
      <point x="165" y="89"/>
      <point x="63" y="76"/>
      <point x="0" y="76" type="curve" smooth="yes"/>
      <point x="-29" y="76"/>
      <point x="-37" y="57"/>
      <point x="-37" y="38" type="curve" smooth="yes"/>
      <point x="-37" y="19"/>
      <point x="-29" y="0"/>
      <point x="0" y="0" type="curve" smooth="yes"/>
      <point x="69" y="0"/>
      <point x="178" y="12"/>
      <point x="296" y="96" type="curve"/>
      <point x="332" y="18"/>
      <point x="350" y="-23"/>
      <point x="350" y="-51" type="curve" smooth="yes"/>
      <point x="350" y="-89"/>
      <point x="316" y="-95"/>
      <point x="258" y="-98" type="curve" smooth="yes"/>
      <point x="216" y="-100"/>
      <point x="201" y="-100"/>
      <point x="193" y="-100" type="curve" smooth="yes"/>
      <point x="159" y="-100"/>
      <point x="130" y="-94"/>
      <point x="128" y="-64" type="curve"/>
      <point x="61" y="-64" type="line"/>
      <point x="60" y="-71"/>
      <point x="60" y="-77"/>
      <point x="60" y="-79" type="curve" smooth="yes"/>
      <point x="63" y="-164"/>
      <point x="144" y="-172"/>
      <point x="202" y="-172" type="curve" smooth="yes"/>
      <point x="216" y="-172"/>
      <point x="270" y="-170"/>
      <point x="302" y="-166" type="curve" smooth="yes"/>
      <point x="335" y="-162"/>
      <point x="367" y="-154"/>
      <point x="388" y="-139" type="curve" smooth="yes"/>
      <point x="413" y="-121"/>
      <point x="431" y="-95"/>
      <point x="431" y="-58" type="curve" smooth="yes"/>
      <point x="431" y="-40"/>
      <point x="427" y="-18"/>
      <point x="418" y="6" type="curve"/>
      <point x="424" y="1"/>
      <point x="436" y="0"/>
      <point x="444" y="0" type="curve"/>
      <point x="455" y="76" type="line"/>
      <point x="409" y="76"/>
      <point x="390" y="87"/>
    </contour>
  </outline>
</glyph>
<glyph name="MemMed.S" format="2">
  <advance width="412"/>
  <outline>
    <contour>
      <point x="153" y="71" type="curve"/>
      <point x="178" y="90" type="line"/>
      <point x="214" y="12"/>
      <point x="230" y="-23"/>
      <point x="230" y="-51" type="curve" smooth="yes"/>
      <point x="230" y="-89"/>
      <point x="196" y="-95"/>
      <point x="138" y="-98" type="curve" smooth="yes"/>
      <point x="96" y="-100"/>
      <point x="81" y="-100"/>
      <point x="73" y="-100" type="curve" smooth="yes"/>
      <point x="39" y="-100"/>
      <point x="10" y="-94"/>
      <point x="8" y="-64" type="curve"/>
      <point x="-59" y="-64" type="line"/>
      <point x="-60" y="-71"/>
      <point x="-60" y="-77"/>
      <point x="-60" y="-79" type="curve" smooth="yes"/>
      <point x="-57" y="-164"/>
      <point x="24" y="-172"/>
      <point x="82" y="-172" type="curve" smooth="yes"/>
      <point x="96" y="-172"/>
      <point x="150" y="-170"/>
      <point x="182" y="-166" type="curve" smooth="yes"/>
      <point x="215" y="-162"/>
      <point x="247" y="-154"/>
      <point x="268" y="-139" type="curve" smooth="yes"/>
      <point x="293" y="-121"/>
      <point x="311" y="-95"/>
      <point x="311" y="-58" type="curve" smooth="yes"/>
      <point x="311" y="-36"/>
      <point x="303" y="-5"/>
      <point x="288" y="26" type="curve"/>
      <point x="290" y="27" type="line"/>
      <point x="315" y="7"/>
      <point x="352" y="0"/>
      <point x="412" y="0" type="curve"/>
      <point x="412" y="76" type="line"/>
      <point x="317" y="76"/>
      <point x="273" y="92"/>
      <point x="249" y="131" type="curve"/>
      <point x="240" y="149" type="line"/>
      <point x="390" y="298" type="line"/>
      <point x="344" y="348" type="line"/>
      <point x="207" y="216" type="line"/>
      <point x="131" y="360" type="line"/>
      <point x="66" y="327" type="line"/>
      <point x="93" y="274"/>
      <point x="129" y="200"/>
      <point x="146" y="160" type="curve"/>
      <point x="126" y="143" type="line" smooth="yes"/>
      <point x="56" y="84"/>
      <point x="28" y="76"/>
      <point x="0" y="76" type="curve" smooth="yes"/>
      <point x="-29" y="76"/>
      <point x="-37" y="57"/>
      <point x="-37" y="38" type="curve" smooth="yes"/>
      <point x="-37" y="19"/>
      <point x="-29" y="0"/>
      <point x="0" y="0" type="curve" smooth="yes"/>
      <point x="39" y="0"/>
      <point x="70" y="8"/>
    </contour>
  </outline>
</glyph>
<glyph name="NunFin.alt05" format="2">
  <advance width="674"/>
  <outline>
    <contour>
      <point x="492" y="216" type="curve"/>
      <point x="496" y="216" type="line"/>
      <point x="502" y="164"/>
      <point x="529" y="94"/>
      <point x="548" y="69" type="curve"/>
      <point x="480" y="69" type="line"/>
      <point x="467" y="0" type="line"/>
      <point x="674" y="0" type="line"/>
      <point x="674" y="76" type="line"/>
      <point x="648" y="76"/>
      <point x="624" y="89"/>
      <point x="600" y="140" type="curve" smooth="yes"/>
      <point x="572" y="200"/>
      <point x="551" y="272"/>
      <point x="524" y="382" type="curve"/>
      <point x="469" y="382" type="line"/>
      <point x="449" y="300"/>
      <point x="418" y="200"/>
      <point x="395" y="158" type="curve" smooth="yes"/>
      <point x="373" y="118"/>
      <point x="346" y="76"/>
      <point x="241" y="76" type="curve" smooth="yes"/>
      <point x="50" y="76" type="line"/>
      <point x="50" y="0" type="line"/>
      <point x="224" y="0" type="line" smooth="yes"/>
      <point x="333" y="0"/>
      <point x="399" y="25"/>
      <point x="436" y="78" type="curve" smooth="yes"/>
      <point x="469" y="125"/>
      <point x="480" y="166"/>
    </contour>
  </outline>
</glyph>
<glyph name="NunFin.alt06" format="2">
  <advance width="477"/>
  <outline>
    <contour>
      <point x="195" y="229" type="curve" smooth="yes"/>
      <point x="199" y="229" type="line"/>
      <point x="224" y="166"/>
      <point x="263" y="99"/>
      <point x="308" y="73" type="curve"/>
      <point x="308" y="69" type="line"/>
      <point x="239" y="69" type="line"/>
      <point x="234" y="0" type="line"/>
      <point x="477" y="0" type="line"/>
      <point x="477" y="76" type="line"/>
      <point x="390" y="76"/>
      <point x="335" y="122"/>
      <point x="263" y="264" type="curve" smooth="yes"/>
      <point x="246" y="298"/>
      <point x="228" y="337"/>
      <point x="210" y="382" type="curve"/>
      <point x="137" y="382" type="line"/>
      <point x="116" y="118"/>
      <point x="95" y="-65"/>
      <point x="64" y="-300" type="curve"/>
      <point x="140" y="-300" type="line"/>
      <point x="159" y="-168"/>
      <point x="187" y="112"/>
    </contour>
  </outline>
</glyph>
<glyph name="NunFin" format="2">
  <advance width="568"/>
  <outline>
    <contour>
      <point x="208" y="0" type="curve" smooth="yes"/>
      <point x="285" y="0"/>
      <point x="320" y="40"/>
      <point x="352" y="113" type="curve" smooth="yes"/>
      <point x="366" y="145"/>
      <point x="375" y="174"/>
      <point x="386" y="216" type="curve"/>
      <point x="390" y="216" type="line" smooth="yes"/>
      <point x="396" y="164"/>
      <point x="423" y="94"/>
      <point x="442" y="69" type="curve"/>
      <point x="383" y="69" type="line"/>
      <point x="370" y="0" type="line"/>
      <point x="568" y="0" type="line"/>
      <point x="568" y="76" type="line"/>
      <point x="542" y="76"/>
      <point x="518" y="89"/>
      <point x="494" y="140" type="curve" smooth="yes"/>
      <point x="466" y="200"/>
      <point x="445" y="272"/>
      <point x="418" y="382" type="curve"/>
      <point x="363" y="382" type="line"/>
      <point x="343" y="300"/>
      <point x="315" y="206"/>
      <point x="285" y="139" type="curve" smooth="yes"/>
      <point x="265" y="94"/>
      <point x="246" y="76"/>
      <point x="221" y="76" type="curve" smooth="yes"/>
      <point x="178" y="76"/>
      <point x="169" y="107"/>
      <point x="164" y="192" type="curve" smooth="yes"/>
      <point x="161" y="239"/>
      <point x="162" y="529"/>
      <point x="162" y="674" type="curve"/>
      <point x="89" y="674" type="line"/>
      <point x="85" y="564"/>
      <point x="80" y="323"/>
      <point x="80" y="196" type="curve" smooth="yes"/>
      <point x="80" y="74"/>
      <point x="99" y="0"/>
    </contour>
  </outline>
</glyph>
<glyph name="NunFin.pe" format="2">
  <advance width="604"/>
  <outline>
    <contour>
      <point x="406" y="231" type="curve"/>
      <point x="409" y="231" type="line"/>
      <point x="418" y="209"/>
      <point x="426" y="190"/>
      <point x="435" y="171" type="curve" smooth="yes"/>
      <point x="448" y="143"/>
      <point x="457" y="122"/>
      <point x="457" y="105" type="curve" smooth="yes"/>
      <point x="457" y="90"/>
      <point x="449" y="76"/>
      <point x="412" y="76" type="curve" smooth="yes"/>
      <point x="381" y="76" type="line"/>
      <point x="367" y="0" type="line"/>
      <point x="414" y="0" type="line" smooth="yes"/>
      <point x="478" y="0"/>
      <point x="535" y="29"/>
      <point x="535" y="96" type="curve" smooth="yes"/>
      <point x="535" y="124"/>
      <point x="530" y="142"/>
      <point x="501" y="204" type="curve" smooth="yes"/>
      <point x="473" y="264"/>
      <point x="450" y="322"/>
      <point x="428" y="382" type="curve"/>
      <point x="376" y="382" type="line"/>
      <point x="352" y="294"/>
      <point x="325" y="209"/>
      <point x="287" y="140" type="curve" smooth="yes"/>
      <point x="262" y="94"/>
      <point x="248" y="76"/>
      <point x="221" y="76" type="curve" smooth="yes"/>
      <point x="178" y="76"/>
      <point x="169" y="107"/>
      <point x="164" y="192" type="curve" smooth="yes"/>
      <point x="161" y="239"/>
      <point x="162" y="529"/>
      <point x="162" y="674" type="curve"/>
      <point x="89" y="674" type="line"/>
      <point x="85" y="564"/>
      <point x="80" y="323"/>
      <point x="80" y="196" type="curve" smooth="yes"/>
      <point x="80" y="74"/>
      <point x="100" y="0"/>
      <point x="203" y="0" type="curve" smooth="yes"/>
      <point x="292" y="0"/>
      <point x="329" y="59"/>
      <point x="363" y="129" type="curve" smooth="yes"/>
      <point x="380" y="163"/>
      <point x="394" y="195"/>
    </contour>
  </outline>
</glyph>
<glyph name="NunMed" format="2">
  <advance width="360"/>
  <outline>
    <contour>
      <point x="178" y="216" type="curve"/>
      <point x="182" y="216" type="line"/>
      <point x="188" y="164"/>
      <point x="215" y="94"/>
      <point x="234" y="69" type="curve"/>
      <point x="175" y="69" type="line"/>
      <point x="162" y="0" type="line"/>
      <point x="360" y="0" type="line"/>
      <point x="360" y="76" type="line"/>
      <point x="334" y="76"/>
      <point x="310" y="89"/>
      <point x="286" y="140" type="curve" smooth="yes"/>
      <point x="258" y="200"/>
      <point x="237" y="272"/>
      <point x="210" y="382" type="curve"/>
      <point x="155" y="382" type="line"/>
      <point x="135" y="300"/>
      <point x="106" y="206"/>
      <point x="75" y="139" type="curve" smooth="yes"/>
      <point x="54" y="94"/>
      <point x="25" y="76"/>
      <point x="0" y="76" type="curve" smooth="yes"/>
      <point x="-34" y="76"/>
      <point x="-43" y="57"/>
      <point x="-43" y="38" type="curve" smooth="yes"/>
      <point x="-43" y="19"/>
      <point x="-34" y="0"/>
      <point x="0" y="0" type="curve" smooth="yes"/>
      <point x="68" y="0"/>
      <point x="110" y="40"/>
      <point x="144" y="113" type="curve" smooth="yes"/>
      <point x="158" y="143"/>
      <point x="168" y="174"/>
    </contour>
  </outline>
</glyph>
<glyph name="NunMed.pe" format="2">
  <advance width="385"/>
  <outline>
    <contour>
      <point x="186" y="230" type="curve"/>
      <point x="189" y="230" type="line"/>
      <point x="218" y="163" type="line" smooth="yes"/>
      <point x="229" y="138"/>
      <point x="237" y="117"/>
      <point x="237" y="105" type="curve" smooth="yes"/>
      <point x="237" y="90"/>
      <point x="229" y="76"/>
      <point x="192" y="76" type="curve" smooth="yes"/>
      <point x="161" y="76" type="line"/>
      <point x="147" y="0" type="line"/>
      <point x="194" y="0" type="line" smooth="yes"/>
      <point x="258" y="0"/>
      <point x="315" y="29"/>
      <point x="315" y="96" type="curve" smooth="yes"/>
      <point x="315" y="124"/>
      <point x="310" y="142"/>
      <point x="281" y="204" type="curve" smooth="yes"/>
      <point x="253" y="264"/>
      <point x="230" y="322"/>
      <point x="208" y="382" type="curve"/>
      <point x="156" y="382" type="line"/>
      <point x="132" y="294"/>
      <point x="104" y="204"/>
      <point x="66" y="135" type="curve" smooth="yes"/>
      <point x="41" y="89"/>
      <point x="21" y="76"/>
      <point x="0" y="76" type="curve" smooth="yes"/>
      <point x="-34" y="76"/>
      <point x="-43" y="57"/>
      <point x="-43" y="38" type="curve" smooth="yes"/>
      <point x="-43" y="19"/>
      <point x="-34" y="0"/>
      <point x="0" y="0" type="curve" smooth="yes"/>
      <point x="75" y="0"/>
      <point x="109" y="58"/>
      <point x="143" y="123" type="curve" smooth="yes"/>
      <point x="161" y="158"/>
      <point x="173" y="191"/>
    </contour>
  </outline>
</glyph>
<glyph name="PeFin.DD" format="2">
  <advance width="725"/>
  <outline>
    <contour>
      <point x="658" y="53" type="curve" smooth="yes"/>
      <point x="679" y="108"/>
      <point x="687" y="156"/>
      <point x="687" y="197" type="curve" smooth="yes"/>
      <point x="687" y="331"/>
      <point x="634" y="410"/>
      <point x="522" y="410" type="curve" smooth="yes"/>
      <point x="415" y="410"/>
      <point x="313" y="302"/>
      <point x="313" y="192" type="curve" smooth="yes"/>
      <point x="313" y="101"/>
      <point x="356" y="48"/>
      <point x="440" y="21" type="curve" smooth="yes"/>
      <point x="469" y="12"/>
      <point x="505" y="5"/>
      <point x="546" y="2" type="curve"/>
      <point x="507" y="-52"/>
      <point x="448" y="-91"/>
      <point x="367" y="-91" type="curve" smooth="yes"/>
      <point x="251" y="-91"/>
      <point x="170" y="-38"/>
      <point x="164" y="231" type="curve" smooth="yes"/>
      <point x="163" y="278"/>
      <point x="162" y="529"/>
      <point x="162" y="674" type="curve"/>
      <point x="89" y="674" type="line"/>
      <point x="85" y="564"/>
      <point x="80" y="343"/>
      <point x="80" y="216" type="curve" smooth="yes"/>
      <point x="80" y="-88"/>
      <point x="187" y="-177"/>
      <point x="351" y="-177" type="curve" smooth="yes"/>
      <point x="513" y="-177"/>
      <point x="612" y="-69"/>
    </contour>
    <contour>
      <point x="394" y="202" type="curve" smooth="yes"/>
      <point x="394" y="264"/>
      <point x="455" y="330"/>
      <point x="518" y="330" type="curve" smooth="yes"/>
      <point x="595" y="330"/>
      <point x="608" y="272"/>
      <point x="608" y="206" type="curve" smooth="yes"/>
      <point x="608" y="166"/>
      <point x="600" y="119"/>
      <point x="583" y="75" type="curve"/>
      <point x="468" y="79"/>
      <point x="394" y="106"/>
    </contour>
  </outline>
</glyph>
<glyph name="PeFin" format="2">
  <advance width="754"/>
  <outline>
    <contour>
      <point x="687" y="197" type="curve" smooth="yes"/>
      <point x="687" y="331"/>
      <point x="634" y="410"/>
      <point x="522" y="410" type="curve" smooth="yes"/>
      <point x="415" y="410"/>
      <point x="313" y="302"/>
      <point x="313" y="192" type="curve" smooth="yes"/>
      <point x="313" y="101"/>
      <point x="356" y="52"/>
      <point x="440" y="25" type="curve" smooth="yes"/>
      <point x="469" y="16"/>
      <point x="506" y="8"/>
      <point x="547" y="4" type="curve"/>
      <point x="508" y="-51"/>
      <point x="449" y="-91"/>
      <point x="367" y="-91" type="curve" smooth="yes"/>
      <point x="251" y="-91"/>
      <point x="170" y="-38"/>
      <point x="164" y="231" type="curve" smooth="yes"/>
      <point x="163" y="278"/>
      <point x="162" y="529"/>
      <point x="162" y="674" type="curve"/>
      <point x="89" y="674" type="line"/>
      <point x="85" y="564"/>
      <point x="80" y="343"/>
      <point x="80" y="216" type="curve" smooth="yes"/>
      <point x="80" y="-88"/>
      <point x="187" y="-177"/>
      <point x="351" y="-177" type="curve" smooth="yes"/>
      <point x="489" y="-177"/>
      <point x="581" y="-98"/>
      <point x="634" y="0" type="curve"/>
      <point x="754" y="0" type="line"/>
      <point x="754" y="76" type="line"/>
      <point x="666" y="76" type="line"/>
      <point x="681" y="121"/>
      <point x="687" y="162"/>
    </contour>
    <contour>
      <point x="394" y="202" type="curve" smooth="yes"/>
      <point x="394" y="264"/>
      <point x="455" y="330"/>
      <point x="518" y="330" type="curve" smooth="yes"/>
      <point x="595" y="330"/>
      <point x="608" y="272"/>
      <point x="608" y="206" type="curve" smooth="yes"/>
      <point x="608" y="166"/>
      <point x="600" y="120"/>
      <point x="584" y="76" type="curve"/>
      <point x="472" y="84"/>
      <point x="394" y="106"/>
    </contour>
  </outline>
</glyph>
<glyph name="PeIni.ligaM" format="2">
  <advance width="489"/>
  <outline>
    <contour>
      <point x="-363" y="43" type="curve"/>
      <point x="-446" y="40" type="line"/>
      <point x="-431" y="-193"/>
      <point x="-282" y="-301"/>
      <point x="-72" y="-301" type="curve" smooth="yes"/>
      <point x="66" y="-301"/>
      <point x="174" y="-254"/>
      <point x="261" y="-176" type="curve" smooth="yes"/>
      <point x="373" y="-75"/>
      <point x="434" y="78"/>
      <point x="434" y="218" type="curve" smooth="yes"/>
      <point x="434" y="339"/>
      <point x="373" y="410"/>
      <point x="266" y="410" type="curve" smooth="yes"/>
      <point x="160" y="410"/>
      <point x="51" y="286"/>
      <point x="51" y="162" type="curve" smooth="yes"/>
      <point x="51" y="41"/>
      <point x="160" y="2"/>
      <point x="299" y="0" type="curve"/>
      <point x="234" y="-119"/>
      <point x="113" y="-216"/>
      <point x="-65" y="-216" type="curve" smooth="yes"/>
      <point x="-199" y="-216"/>
      <point x="-344" y="-160"/>
    </contour>
    <contour>
      <point x="134" y="179" type="curve" smooth="yes"/>
      <point x="134" y="248"/>
      <point x="191" y="330"/>
      <point x="263" y="330" type="curve" smooth="yes"/>
      <point x="339" y="330"/>
      <point x="355" y="269"/>
      <point x="355" y="214" type="curve" smooth="yes"/>
      <point x="355" y="169"/>
      <point x="347" y="122"/>
      <point x="332" y="76" type="curve"/>
      <point x="241" y="77"/>
      <point x="134" y="89"/>
    </contour>
  </outline>
</glyph>
<glyph name="PeMed.DD" format="2">
  <advance width="472"/>
  <outline>
    <contour>
      <point x="-8" y="-224" type="curve" smooth="yes"/>
      <point x="-113" y="-224"/>
      <point x="-188" y="-179"/>
      <point x="-188" y="20" type="curve" smooth="yes"/>
      <point x="-188" y="52" type="line"/>
      <point x="-257" y="37" type="line"/>
      <point x="-260" y="11"/>
      <point x="-260" y="-1"/>
      <point x="-260" y="-6" type="curve" smooth="yes"/>
      <point x="-260" y="-248"/>
      <point x="-144" y="-310"/>
      <point x="-16" y="-310" type="curve" smooth="yes"/>
      <point x="122" y="-310"/>
      <point x="245" y="-211"/>
      <point x="324" y="-90" type="curve" smooth="yes"/>
      <point x="387" y="7"/>
      <point x="434" y="114"/>
      <point x="434" y="218" type="curve" smooth="yes"/>
      <point x="434" y="339"/>
      <point x="373" y="410"/>
      <point x="266" y="410" type="curve" smooth="yes"/>
      <point x="160" y="410"/>
      <point x="51" y="286"/>
      <point x="51" y="162" type="curve" smooth="yes"/>
      <point x="51" y="45"/>
      <point x="153" y="5"/>
      <point x="284" y="0" type="curve"/>
      <point x="272" y="-20"/>
      <point x="259" y="-41"/>
      <point x="245" y="-62" type="curve" smooth="yes"/>
      <point x="184" y="-152"/>
      <point x="92" y="-224"/>
    </contour>
    <contour>
      <point x="134" y="179" type="curve" smooth="yes"/>
      <point x="134" y="248"/>
      <point x="191" y="330"/>
      <point x="263" y="330" type="curve" smooth="yes"/>
      <point x="339" y="330"/>
      <point x="355" y="269"/>
      <point x="355" y="214" type="curve" smooth="yes"/>
      <point x="355" y="171"/>
      <point x="342" y="124"/>
      <point x="322" y="76" type="curve"/>
      <point x="232" y="76"/>
      <point x="134" y="84"/>
    </contour>
  </outline>
</glyph>
<glyph name="PeMed.cut1" format="2">
  <advance width="501"/>
  <outline>
    <contour>
      <point x="-188" y="-6" type="curve"/>
      <point x="-255" y="-89" type="line"/>
      <point x="-231" y="-262"/>
      <point x="-128" y="-310"/>
      <point x="-16" y="-310" type="curve" smooth="yes"/>
      <point x="122" y="-310"/>
      <point x="245" y="-211"/>
      <point x="325" y="-90" type="curve" smooth="yes"/>
      <point x="344" y="-61"/>
      <point x="361" y="-31"/>
      <point x="377" y="0" type="curve"/>
      <point x="501" y="0" type="line"/>
      <point x="501" y="76" type="line"/>
      <point x="408" y="73" type="line"/>
      <point x="425" y="121"/>
      <point x="435" y="170"/>
      <point x="435" y="218" type="curve" smooth="yes"/>
      <point x="435" y="339"/>
      <point x="373" y="410"/>
      <point x="267" y="410" type="curve" smooth="yes"/>
      <point x="160" y="410"/>
      <point x="51" y="286"/>
      <point x="51" y="162" type="curve" smooth="yes"/>
      <point x="51" y="45"/>
      <point x="153" y="5"/>
      <point x="284" y="0" type="curve"/>
      <point x="272" y="-21"/>
      <point x="260" y="-41"/>
      <point x="246" y="-62" type="curve" smooth="yes"/>
      <point x="184" y="-152"/>
      <point x="93" y="-224"/>
      <point x="-8" y="-224" type="curve" smooth="yes"/>
      <point x="-105" y="-224"/>
      <point x="-180" y="-187"/>
    </contour>
    <contour>
      <point x="135" y="179" type="curve" smooth="yes"/>
      <point x="135" y="248"/>
      <point x="192" y="330"/>
      <point x="263" y="330" type="curve" smooth="yes"/>
      <point x="340" y="330"/>
      <point x="355" y="269"/>
      <point x="355" y="214" type="curve" smooth="yes"/>
      <point x="355" y="170"/>
      <point x="342" y="122"/>
      <point x="321" y="72" type="curve"/>
      <point x="233" y="75"/>
      <point x="135" y="89"/>
    </contour>
  </outline>
</glyph>
<glyph name="PeMed.cut2DD" format="2">
  <advance width="473"/>
  <outline>
    <contour>
      <point x="-174" y="-104" type="curve"/>
      <point x="-244" y="-142" type="line"/>
      <point x="-208" y="-272"/>
      <point x="-115" y="-310"/>
      <point x="-16" y="-310" type="curve" smooth="yes"/>
      <point x="122" y="-310"/>
      <point x="245" y="-211"/>
      <point x="325" y="-90" type="curve" smooth="yes"/>
      <point x="388" y="6"/>
      <point x="435" y="114"/>
      <point x="435" y="218" type="curve" smooth="yes"/>
      <point x="435" y="339"/>
      <point x="373" y="410"/>
      <point x="267" y="410" type="curve" smooth="yes"/>
      <point x="160" y="410"/>
      <point x="51" y="286"/>
      <point x="51" y="162" type="curve" smooth="yes"/>
      <point x="51" y="45"/>
      <point x="153" y="5"/>
      <point x="284" y="0" type="curve"/>
      <point x="272" y="-21"/>
      <point x="260" y="-41"/>
      <point x="246" y="-62" type="curve" smooth="yes"/>
      <point x="184" y="-152"/>
      <point x="93" y="-224"/>
      <point x="-8" y="-224" type="curve" smooth="yes"/>
      <point x="-83" y="-224"/>
      <point x="-147" y="-200"/>
    </contour>
    <contour>
      <point x="135" y="179" type="curve" smooth="yes"/>
      <point x="135" y="248"/>
      <point x="192" y="330"/>
      <point x="263" y="330" type="curve" smooth="yes"/>
      <point x="340" y="330"/>
      <point x="355" y="269"/>
      <point x="355" y="214" type="curve" smooth="yes"/>
      <point x="355" y="171"/>
      <point x="343" y="124"/>
      <point x="322" y="76" type="curve"/>
      <point x="228" y="76"/>
      <point x="135" y="94"/>
    </contour>
  </outline>
</glyph>
